<svg width="390" height="77" viewBox="0 0 390 77" fill="none" xmlns="http://www.w3.org/2000/svg">
<path d="M28.6827 0.00292969C32.7033 5.67912 35.3048 15.2179 34.4377 22.0766C33.594 21.5951 32.7219 21.0301 31.7494 20.4001C28.4089 18.236 23.8834 15.3041 15.2511 12.3504C25.1352 9.30534 27.2637 5.12712 28.6827 0.00292969Z" fill="#0032F6"/>
<path d="M79.6324 47.4971C70.0006 33.9222 50.1172 20.7809 39.3002 18.1347C46.0073 22.002 48.5561 28.8738 49.2076 34.8743C48.6208 31.9762 47.3986 28.6996 45.1601 26.0419C42.9254 24.7491 40.7149 23.6532 38.5918 22.7319C45.9286 32.9567 46.8559 41.5658 45.0728 47.9345C54.4295 43.3915 64.5795 47.625 68.2526 50.6447C67.132 48.3105 65.8895 46.1342 64.5516 44.1066C61.8403 42.9592 58.8824 42.0474 56.1422 41.8604C65.1184 41.2183 76.4864 45.7019 79.6324 47.4971Z" fill="#0032F6"/>
<path d="M60.6634 71.1329C71.2442 71.7848 73.7437 67.4271 72.662 65.4041C74.1995 66.6538 75.7786 75.4002 66.4277 76.446C60.4617 76.8447 55.4589 74.887 49.8722 72.7008C39.5432 68.6588 27.2186 63.8359 3.12245 71.6808C5.65842 70.5318 8.11089 69.5837 10.4834 68.8097C10.5228 68.6856 10.5683 68.5635 10.6134 68.4424C11.035 67.3107 11.4252 66.2635 6.52296 64.4542C6.36086 64.2068 6.396 64.0448 6.43973 63.8432C6.44652 63.8119 6.45354 63.7795 6.46005 63.7458C43.2252 61.7016 73.1251 51.2061 80.0551 48.7735L80.056 48.7732C80.5003 48.6172 80.8501 48.4944 81.1013 48.4091C81.3512 48.3242 81.587 48.4675 81.6704 48.718C81.7699 49.0166 81.59 49.3572 81.2911 49.4557C78.2191 50.4675 64.3366 55.7017 60.0888 58.0756C55.3535 60.7219 53.9614 62 52.4221 67.3124C38.02 64.6828 28.7361 64.9752 21.0361 66.3546C32.7211 64.7383 42.1681 67.1038 49.9596 69.0547C53.9321 70.0494 57.4743 70.9364 60.6634 71.1329Z" fill="#0032F6"/>
<path d="M39.3455 58.1399C41.8936 48.6153 39.3455 32.9925 34.6467 24.0299C27.4882 24.3333 18.1104 19.0651 14.0851 13.2219C16.3533 19.2848 19.2399 32.7008 20.3971 43.7328C19.7821 40.7768 18.7432 37.5961 17.3305 33.6886C12.8058 33.6886 4.97469 29.0768 0.710938 24.552C8.6293 37.2562 7.84585 54.3113 5.8445 61.5335C11.6745 58.8361 14.9648 59.8905 18.9839 61.5335C20.0197 58.0808 20.6501 55.1956 20.9099 52.5314C20.8941 55.2767 20.6442 57.5155 20.0891 58.9535C29.6331 55.1879 35.3264 56.4969 39.3455 58.1399Z" fill="#0032F6"/>
<path d="M106.559 11.4442H118.391C125.062 11.4442 129.931 12.8806 132.999 15.7535C136.115 18.5777 137.673 22.4731 137.673 27.4398C137.673 33.1855 135.993 37.5922 132.634 40.6598C129.274 43.7275 124.283 45.2613 117.661 45.2613H114.812V65.128H106.559V11.4442ZM117.88 38.0304C122.165 38.0304 125.159 37.0809 126.863 35.1819C128.568 33.2829 129.42 30.9943 129.42 28.3162C129.42 25.4433 128.592 23.1061 126.937 21.3045C125.281 19.5028 122.505 18.602 118.61 18.602H114.812V38.0304H117.88Z" fill="#0032F6"/>
<path d="M144.121 11.4442H167.639V18.602H152.228V33.429H164.645V40.7329H152.228V57.8971H170.05V65.128H144.121V11.4442Z" fill="#0032F6"/>
<path d="M177.193 11.4442H185.446V57.8241H200.857V65.128H177.193V11.4442Z" fill="#0032F6"/>
<path d="M232.786 11.371L258.642 65.1279H249.22L244.618 54.6102H220.004L215.403 65.1279H206.273L231.982 11.371H232.786ZM229.134 34.2323L223.291 47.2333H241.404L235.634 34.3053L232.494 26.9284H232.348L229.134 34.2323Z" fill="#0032F6"/>
<path d="M284.18 65.8582C278.873 65.8582 274.125 64.6409 269.938 62.2063C265.75 59.7717 262.463 56.4362 260.077 52.1999C257.74 47.915 256.571 43.1187 256.571 37.8112C256.571 32.6498 257.764 27.9996 260.15 23.8607C262.536 19.7218 265.847 16.4838 270.084 14.1465C274.32 11.8093 279.092 10.6406 284.399 10.6406C287.272 10.6406 289.853 10.9084 292.141 11.4441C294.479 11.931 296.378 12.5153 297.838 13.197C299.299 13.83 300.297 14.39 300.833 14.8769L297.619 21.7426C294.6 19.3079 290.145 18.0906 284.253 18.0906C280.358 18.0906 276.974 18.9427 274.101 20.647C271.228 22.3512 269.037 24.6642 267.527 27.5857C266.018 30.5073 265.263 33.7697 265.263 37.373C265.263 41.4632 266.066 45.1151 267.673 48.3288C269.329 51.5426 271.593 54.0502 274.466 55.8519C277.388 57.6048 280.674 58.4813 284.326 58.4813C286.615 58.4813 288.806 58.2135 290.9 57.6779C292.994 57.0935 294.771 56.1927 296.232 54.9754V44.6038H285.203V37.0808H304.339V58.1161C302.586 60.3073 299.932 62.1576 296.378 63.6671C292.872 65.1279 288.806 65.8582 284.18 65.8582Z" fill="#0032F6"/>
<path d="M330.862 65.8582C324.143 65.8582 319.274 63.8375 316.255 59.796C313.236 55.7545 311.726 49.887 311.726 42.1936V11.4441H319.907V42.3396C319.907 48.0367 320.759 52.1269 322.463 54.6102C324.167 57.0449 326.967 58.2622 330.862 58.2622C334.758 58.2622 337.533 57.0692 339.189 54.6833C340.893 52.2486 341.745 48.1341 341.745 42.3396V11.4441H349.999V42.1936C349.999 49.8383 348.392 55.7058 345.178 59.796C342.013 63.8375 337.241 65.8582 330.862 65.8582Z" fill="#0032F6"/>
<path d="M371.991 65.8582C369.07 65.8582 366.173 65.347 363.3 64.3244C360.427 63.3019 358.358 62.1576 357.091 60.8916L360.963 53.9529C361.985 54.878 363.568 55.8519 365.71 56.8744C367.901 57.8483 369.995 58.3352 371.991 58.3352C374.572 58.3352 376.666 57.7266 378.273 56.5092C379.928 55.2919 380.756 53.612 380.756 51.4695C380.756 49.814 380.318 48.3775 379.441 47.1602C378.565 45.9429 377.494 44.9447 376.228 44.1656C374.962 43.3378 373.16 42.3396 370.823 41.171C368.047 39.8076 366.148 38.7851 365.126 38.1034C360.403 34.9383 358.041 30.556 358.041 24.9563C358.041 20.3305 359.575 16.8003 362.642 14.3656C365.71 11.8823 369.581 10.6406 374.256 10.6406C379.271 10.6406 383.532 12.0771 387.038 14.9499L383.166 21.5965C382.241 20.6226 380.927 19.7949 379.222 19.1132C377.567 18.3828 375.79 18.0176 373.89 18.0176C371.456 18.0176 369.532 18.5776 368.12 19.6975C366.757 20.7687 366.075 22.3756 366.075 24.5181C366.075 26.0275 366.514 27.3909 367.39 28.6083C368.266 29.7769 369.362 30.7994 370.677 31.6759C372.04 32.5524 373.866 33.6236 376.155 34.8896C378.346 36.107 380.026 37.0808 381.194 37.8112C382.363 38.4929 383.459 39.3207 384.481 40.2945C385.893 41.5605 387.038 43.07 387.914 44.823C388.79 46.5759 389.229 48.4993 389.229 50.5931C389.229 53.8555 388.474 56.631 386.965 58.9195C385.504 61.2081 383.459 62.9367 380.829 64.1053C378.248 65.2739 375.303 65.8582 371.991 65.8582Z" fill="#0032F6"/>
</svg>
