<svg width="156" height="147" viewBox="0 0 156 147" fill="none" xmlns="http://www.w3.org/2000/svg">
<path d="M54.2068 0.18457C61.8875 11.028 66.8573 29.2503 65.2008 42.3525C63.589 41.4328 61.923 40.3535 60.0652 39.1499C53.6839 35.0157 45.0385 29.4148 28.548 23.7724C47.4299 17.9553 51.4961 9.97348 54.2068 0.18457Z" fill="#0032F6"/>
<path d="M151.538 90.9143C133.138 64.9817 95.1539 39.8773 74.4898 34.8224C87.3025 42.21 92.1716 55.3376 93.4163 66.8005C92.2952 61.2642 89.9605 55.0047 85.6842 49.9276C81.4152 47.458 77.1923 45.3645 73.1366 43.6045C87.1523 63.1373 88.9236 79.5835 85.5173 91.7498C103.392 83.0711 122.782 91.1585 129.799 96.9273C127.658 92.468 125.284 88.3106 122.728 84.4373C117.549 82.2453 111.898 80.5034 106.664 80.1463C123.811 78.9195 145.528 87.4848 151.538 90.9143Z" fill="#0032F6"/>
<path d="M115.301 136.066C135.513 137.312 140.288 128.987 138.222 125.122C141.159 127.51 144.176 144.219 126.312 146.216C114.915 146.978 105.358 143.238 94.6858 139.062C74.954 131.34 51.4099 122.127 5.37828 137.113C10.2228 134.918 14.9079 133.107 19.4401 131.628C19.5154 131.391 19.6023 131.158 19.6885 130.927C20.4939 128.765 21.2393 126.764 11.8744 123.308C11.5647 122.835 11.6318 122.526 11.7154 122.141C11.7284 122.081 11.7418 122.019 11.7542 121.955C81.9879 118.049 139.107 97.9996 152.345 93.3526L152.347 93.352C153.196 93.054 153.864 92.8195 154.344 92.6565C154.821 92.4944 155.272 92.7681 155.431 93.2465C155.621 93.8169 155.277 94.4676 154.706 94.6557C148.838 96.5886 122.318 106.588 114.203 111.123C105.157 116.178 102.498 118.62 99.557 128.768C72.0442 123.745 54.3088 124.303 39.5993 126.938C61.9216 123.851 79.9684 128.369 94.8527 132.096C102.442 133.997 109.208 135.691 115.301 136.066Z" fill="#0032F6"/>
<path d="M74.5764 111.246C79.444 93.0504 74.5764 63.2056 65.6001 46.0841C51.925 46.6637 34.0103 36.5997 26.3205 25.4371C30.6535 37.0194 36.1681 62.6483 38.3785 83.7231C37.2038 78.0762 35.2191 72 32.5204 64.5354C23.8768 64.5354 8.91667 55.7254 0.771484 47.0814C15.8982 71.3508 14.4015 103.932 10.5783 117.729C21.7156 112.576 28.0011 114.59 35.679 117.729C37.6576 111.133 38.862 105.621 39.3583 100.531C39.3281 105.776 38.8506 110.053 37.7903 112.8C56.0224 105.606 66.8985 108.107 74.5764 111.246Z" fill="#0032F6"/>
</svg>
