<svg width="223" height="160" viewBox="0 0 223 160" fill="none" xmlns="http://www.w3.org/2000/svg">
<path d="M0.464844 116.347H9.77719C15.0274 116.347 18.8596 117.478 21.2739 119.739C23.7266 121.961 24.9529 125.027 24.9529 128.936C24.9529 133.458 23.6307 136.926 20.9865 139.341C18.3423 141.755 14.4142 142.962 9.20236 142.962H6.96049V158.598H0.464844V116.347ZM9.37481 137.271C12.7472 137.271 15.104 136.524 16.4453 135.029C17.7866 133.535 18.4572 131.734 18.4572 129.626C18.4572 127.365 17.8057 125.525 16.5028 124.108C15.1998 122.69 13.0154 121.981 9.94964 121.981H6.96049V137.271H9.37481Z" fill="#0032F6"/>
<path d="M30.0271 116.347H48.5369V121.981H36.4078V133.65H46.1801V139.398H36.4078V152.907H50.4338V158.598H30.0271V116.347Z" fill="#0032F6"/>
<path d="M56.0556 116.347H62.5512V152.849H74.6803V158.598H56.0556V116.347Z" fill="#0032F6"/>
<path d="M99.8088 116.29L120.158 158.598H112.743L109.121 150.32H89.7492L86.1277 158.598H78.9423L99.1765 116.29H99.8088ZM96.9346 134.282L92.3359 144.514H106.592L102.051 134.34L99.5789 128.534H99.4639L96.9346 134.282Z" fill="#0032F6"/>
<path d="M140.257 159.172C136.08 159.172 132.344 158.214 129.048 156.298C125.752 154.382 123.166 151.757 121.288 148.423C119.448 145.051 118.529 141.276 118.529 137.099C118.529 133.037 119.468 129.377 121.345 126.119C123.223 122.862 125.829 120.314 129.163 118.474C132.497 116.635 136.253 115.715 140.43 115.715C142.691 115.715 144.722 115.926 146.523 116.347C148.363 116.73 149.857 117.19 151.007 117.727C152.157 118.225 152.942 118.666 153.364 119.049L150.834 124.452C148.458 122.536 144.952 121.578 140.315 121.578C137.249 121.578 134.586 122.249 132.325 123.59C130.064 124.931 128.339 126.752 127.151 129.051C125.963 131.35 125.369 133.918 125.369 136.754C125.369 139.973 126.001 142.847 127.266 145.376C128.569 147.906 130.351 149.879 132.612 151.297C134.911 152.677 137.498 153.367 140.372 153.367C142.174 153.367 143.898 153.156 145.546 152.734C147.194 152.274 148.593 151.565 149.742 150.607V142.445H141.062V136.524H156.123V153.079C154.743 154.804 152.655 156.26 149.857 157.448C147.098 158.598 143.898 159.172 140.257 159.172Z" fill="#0032F6"/>
<path d="M176.998 159.172C171.709 159.172 167.877 157.582 165.501 154.401C163.125 151.221 161.937 146.603 161.937 140.548V116.347H168.375V140.663C168.375 145.146 169.046 148.366 170.387 150.32C171.728 152.236 173.932 153.194 176.998 153.194C180.063 153.194 182.248 152.255 183.551 150.377C184.892 148.461 185.563 145.223 185.563 140.663V116.347H192.058V140.548C192.058 146.564 190.794 151.182 188.264 154.401C185.773 157.582 182.018 159.172 176.998 159.172Z" fill="#0032F6"/>
<path d="M209.367 159.172C207.068 159.172 204.788 158.77 202.527 157.965C200.266 157.161 198.637 156.26 197.64 155.264L200.687 149.803C201.492 150.531 202.737 151.297 204.423 152.102C206.148 152.868 207.796 153.252 209.367 153.252C211.398 153.252 213.046 152.773 214.311 151.815C215.614 150.857 216.265 149.534 216.265 147.848C216.265 146.545 215.92 145.415 215.23 144.457C214.541 143.499 213.698 142.713 212.701 142.1C211.705 141.448 210.287 140.663 208.447 139.743C206.263 138.67 204.768 137.865 203.964 137.329C200.246 134.838 198.388 131.389 198.388 126.982C198.388 123.341 199.595 120.563 202.009 118.647C204.423 116.692 207.47 115.715 211.149 115.715C215.096 115.715 218.449 116.845 221.209 119.106L218.162 124.337C217.434 123.571 216.399 122.919 215.058 122.383C213.755 121.808 212.356 121.521 210.862 121.521C208.946 121.521 207.432 121.961 206.32 122.843C205.247 123.686 204.711 124.951 204.711 126.637C204.711 127.825 205.056 128.898 205.746 129.856C206.435 130.776 207.298 131.58 208.332 132.27C209.405 132.96 210.842 133.803 212.644 134.799C214.368 135.757 215.69 136.524 216.61 137.099C217.53 137.635 218.392 138.287 219.197 139.053C220.308 140.05 221.209 141.238 221.899 142.617C222.588 143.997 222.933 145.511 222.933 147.158C222.933 149.726 222.339 151.91 221.151 153.712C220.002 155.513 218.392 156.873 216.323 157.793C214.292 158.713 211.973 159.172 209.367 159.172Z" fill="#0032F6"/>
<path fill-rule="evenodd" clip-rule="evenodd" d="M52.2879 0.0820312C84.7243 8.01684 144.348 47.4231 173.23 88.1296C163.797 82.7464 129.71 69.3023 102.794 71.2269C111.01 71.7878 119.879 74.5219 128.008 77.9623C132.02 84.0422 135.746 90.568 139.106 97.5678C128.092 88.5125 97.6557 75.8177 69.5982 89.4407C74.945 70.3433 74.0201 42.8859 50.1641 13.867C56.5304 16.6297 63.1591 19.9159 69.8601 23.7924C76.5715 31.7606 80.2362 41.5842 81.9964 50.2736C80.0417 32.2812 72.3983 11.6775 52.2879 0.0820312Z" fill="#0032F6"/>
</svg>
