<svg width="202" height="154" viewBox="0 0 202 154" fill="none" xmlns="http://www.w3.org/2000/svg">
<path d="M0.589844 98.337H9.00376C13.7474 98.337 17.2099 99.3585 19.3913 101.401C21.6073 103.41 22.7153 106.18 22.7153 109.711C22.7153 113.797 21.5208 116.931 19.1316 119.112C16.7425 121.294 13.1934 122.384 8.48439 122.384H6.45881V136.511H0.589844V98.337ZM8.6402 117.242C11.6872 117.242 13.8167 116.567 15.0285 115.217C16.2404 113.866 16.8464 112.239 16.8464 110.335C16.8464 108.292 16.2577 106.63 15.0805 105.349C13.9032 104.067 11.9296 103.427 9.15958 103.427H6.45881V117.242H8.6402Z" fill="#0032F6"/>
<path d="M27.3001 98.337H44.024V103.427H33.0652V113.97H41.8946V119.164H33.0652V131.369H45.738V136.511H27.3001V98.337Z" fill="#0032F6"/>
<path d="M50.8173 98.337H56.6863V131.318H67.6452V136.511H50.8173V98.337Z" fill="#0032F6"/>
<path d="M90.3494 98.285L108.735 136.511H102.035L98.7633 129.032H81.2603L77.9882 136.511H71.496L89.7781 98.285H90.3494ZM87.7525 114.542L83.5975 123.786H96.478L92.375 114.593L90.1416 109.348H90.0378L87.7525 114.542Z" fill="#0032F6"/>
<path d="M126.896 137.031C123.121 137.031 119.746 136.165 116.768 134.434C113.79 132.702 111.453 130.331 109.756 127.318C108.094 124.271 107.263 120.861 107.263 117.086C107.263 113.416 108.111 110.11 109.808 107.166C111.505 104.223 113.859 101.921 116.872 100.259C119.884 98.5966 123.277 97.7656 127.051 97.7656C129.094 97.7656 130.929 97.9561 132.557 98.3369C134.219 98.6832 135.569 99.0987 136.608 99.5834C137.647 100.034 138.357 100.432 138.737 100.778L136.452 105.66C134.305 103.929 131.137 103.063 126.948 103.063C124.178 103.063 121.771 103.669 119.728 104.881C117.685 106.093 116.127 107.738 115.054 109.815C113.98 111.893 113.444 114.213 113.444 116.775C113.444 119.683 114.015 122.28 115.158 124.566C116.335 126.851 117.945 128.634 119.988 129.915C122.065 131.162 124.403 131.785 126.999 131.785C128.627 131.785 130.185 131.594 131.674 131.214C133.163 130.798 134.427 130.157 135.465 129.292V121.917H127.623V116.567H141.23V131.525C139.984 133.083 138.097 134.399 135.569 135.472C133.076 136.511 130.185 137.031 126.896 137.031Z" fill="#0032F6"/>
<path d="M160.091 137.031C155.313 137.031 151.85 135.594 149.704 132.72C147.557 129.846 146.483 125.674 146.483 120.203V98.3369H152.3V120.307C152.3 124.358 152.906 127.266 154.118 129.032C155.33 130.763 157.321 131.629 160.091 131.629C162.861 131.629 164.835 130.781 166.012 129.084C167.224 127.353 167.83 124.427 167.83 120.307V98.3369H173.699V120.203C173.699 125.639 172.556 129.811 170.271 132.72C168.02 135.594 164.627 137.031 160.091 137.031Z" fill="#0032F6"/>
<path d="M189.338 137.031C187.26 137.031 185.2 136.667 183.157 135.94C181.114 135.213 179.643 134.399 178.742 133.499L181.495 128.565C182.222 129.223 183.348 129.915 184.871 130.642C186.429 131.335 187.918 131.681 189.338 131.681C191.173 131.681 192.662 131.248 193.804 130.383C194.982 129.517 195.57 128.322 195.57 126.799C195.57 125.622 195.259 124.6 194.635 123.735C194.012 122.869 193.25 122.159 192.35 121.605C191.45 121.016 190.169 120.307 188.507 119.476C186.533 118.506 185.183 117.779 184.456 117.294C181.097 115.044 179.418 111.927 179.418 107.945C179.418 104.656 180.508 102.146 182.69 100.414C184.871 98.6486 187.624 97.7656 190.948 97.7656C194.514 97.7656 197.544 98.7871 200.037 100.83L197.284 105.556C196.626 104.864 195.691 104.275 194.48 103.79C193.302 103.271 192.039 103.011 190.688 103.011C188.957 103.011 187.589 103.41 186.585 104.206C185.616 104.968 185.131 106.11 185.131 107.634C185.131 108.707 185.442 109.677 186.066 110.542C186.689 111.373 187.468 112.1 188.403 112.724C189.372 113.347 190.671 114.109 192.298 115.009C193.856 115.875 195.051 116.567 195.882 117.086C196.713 117.571 197.492 118.16 198.219 118.852C199.223 119.753 200.037 120.826 200.66 122.073C201.283 123.319 201.595 124.687 201.595 126.176C201.595 128.495 201.058 130.469 199.985 132.096C198.946 133.724 197.492 134.953 195.622 135.784C193.787 136.615 191.692 137.031 189.338 137.031Z" fill="#0032F6"/>
<path d="M37.4473 153.819V145.65H42.3772V146.528H38.4364V149.288H42.1219V150.165H38.4364V152.941H42.441V153.819H37.4473Z" fill="#0032F6"/>
<path d="M46.2942 145.65H47.4748L50.2509 152.431H50.3466L53.1227 145.65H54.3033V153.819H53.378V147.613H53.2982L50.7455 153.819H49.852L47.2993 147.613H47.2195V153.819H46.2942V145.65Z" fill="#0032F6"/>
<path d="M58.4207 153.819V145.65H61.2766C61.8456 145.65 62.315 145.749 62.6846 145.945C63.0542 146.14 63.3294 146.401 63.5102 146.731C63.691 147.058 63.7814 147.421 63.7814 147.82C63.7814 148.171 63.719 148.461 63.594 148.69C63.4717 148.918 63.3095 149.099 63.1074 149.232C62.9079 149.365 62.6912 149.463 62.4572 149.527V149.607C62.7072 149.623 62.9585 149.711 63.2111 149.87C63.4637 150.03 63.6751 150.258 63.8453 150.556C64.0154 150.854 64.1005 151.218 64.1005 151.649C64.1005 152.059 64.0075 152.427 63.8213 152.754C63.6352 153.081 63.3414 153.34 62.9398 153.532C62.5383 153.723 62.0158 153.819 61.3723 153.819H58.4207ZM59.4099 152.941H61.3723C62.0185 152.941 62.4772 152.816 62.7484 152.567C63.0223 152.314 63.1592 152.008 63.1592 151.649C63.1592 151.373 63.0888 151.117 62.9478 150.883C62.8069 150.647 62.6061 150.458 62.3455 150.317C62.085 150.173 61.7765 150.102 61.4202 150.102H59.4099V152.941ZM59.4099 149.24H61.2447C61.5425 149.24 61.8111 149.182 62.0504 149.065C62.2924 148.948 62.4838 148.783 62.6247 148.57C62.7683 148.357 62.8401 148.107 62.8401 147.82C62.8401 147.461 62.7152 147.157 62.4652 146.907C62.2152 146.654 61.819 146.528 61.2766 146.528H59.4099V149.24Z" fill="#0032F6"/>
<path d="M68.195 153.819H67.158L70.1574 145.65H71.1785L74.1779 153.819H73.1409L70.6999 146.943H70.636L68.195 153.819ZM68.5779 150.628H72.758V151.506H68.5779V150.628Z" fill="#0032F6"/>
<path d="M77.5844 153.819V145.65H80.3445C80.9827 145.65 81.5065 145.759 81.916 145.977C82.3255 146.193 82.6287 146.489 82.8254 146.867C83.0222 147.244 83.1206 147.674 83.1206 148.155C83.1206 148.636 83.0222 149.063 82.8254 149.435C82.6287 149.808 82.3268 150.1 81.92 150.313C81.5132 150.523 80.9933 150.628 80.3605 150.628H78.1268V149.735H80.3285C80.7646 149.735 81.1156 149.671 81.3815 149.543C81.6501 149.416 81.8442 149.235 81.9639 149.001C82.0862 148.764 82.1474 148.482 82.1474 148.155C82.1474 147.828 82.0862 147.542 81.9639 147.298C81.8416 147.053 81.6461 146.864 81.3776 146.731C81.109 146.596 80.754 146.528 80.3126 146.528H78.5736V153.819H77.5844ZM81.4294 150.149L83.4397 153.819H82.2909L80.3126 150.149H81.4294Z" fill="#0032F6"/>
<path d="M86.9029 153.819V145.65H87.8921V149.703H87.9879L91.6574 145.65H92.9497L89.5195 149.336L92.9497 153.819H91.7531L88.9132 150.022L87.8921 151.171V153.819H86.9029Z" fill="#0032F6"/>
<path d="M108.55 149.735C108.55 150.596 108.394 151.341 108.083 151.968C107.772 152.596 107.345 153.08 106.802 153.42C106.26 153.76 105.64 153.931 104.944 153.931C104.247 153.931 103.628 153.76 103.085 153.42C102.543 153.08 102.116 152.596 101.805 151.968C101.494 151.341 101.338 150.596 101.338 149.735C101.338 148.873 101.494 148.129 101.805 147.501C102.116 146.873 102.543 146.389 103.085 146.049C103.628 145.709 104.247 145.539 104.944 145.539C105.64 145.539 106.26 145.709 106.802 146.049C107.345 146.389 107.772 146.873 108.083 147.501C108.394 148.129 108.55 148.873 108.55 149.735ZM107.592 149.735C107.592 149.027 107.474 148.43 107.237 147.944C107.003 147.457 106.685 147.089 106.284 146.839C105.885 146.589 105.438 146.464 104.944 146.464C104.449 146.464 104.001 146.589 103.6 146.839C103.201 147.089 102.883 147.457 102.646 147.944C102.412 148.43 102.295 149.027 102.295 149.735C102.295 150.442 102.412 151.039 102.646 151.525C102.883 152.012 103.201 152.38 103.6 152.63C104.001 152.88 104.449 153.005 104.944 153.005C105.438 153.005 105.885 152.88 106.284 152.63C106.685 152.38 107.003 152.012 107.237 151.525C107.474 151.039 107.592 150.442 107.592 149.735Z" fill="#0032F6"/>
<path d="M118.824 145.65V153.819H117.867L113.416 147.405H113.336V153.819H112.347V145.65H113.304L117.771 152.08H117.851V145.65H118.824Z" fill="#0032F6"/>
<path d="M129.715 153.819L127.481 145.65H128.486L130.193 152.303H130.273L132.012 145.65H133.129L134.868 152.303H134.948L136.655 145.65H137.66L135.426 153.819H134.405L132.602 147.31H132.539L130.736 153.819H129.715Z" fill="#0032F6"/>
<path d="M141.026 153.819V145.65H145.956V146.528H142.016V149.288H145.701V150.165H142.016V152.941H146.02V153.819H141.026Z" fill="#0032F6"/>
<path d="M149.873 153.819V145.65H152.729C153.298 145.65 153.768 145.749 154.137 145.945C154.507 146.14 154.782 146.401 154.963 146.731C155.144 147.058 155.234 147.421 155.234 147.82C155.234 148.171 155.172 148.461 155.047 148.69C154.924 148.918 154.762 149.099 154.56 149.232C154.361 149.365 154.144 149.463 153.91 149.527V149.607C154.16 149.623 154.411 149.711 154.664 149.87C154.916 150.03 155.128 150.258 155.298 150.556C155.468 150.854 155.553 151.218 155.553 151.649C155.553 152.059 155.46 152.427 155.274 152.754C155.088 153.081 154.794 153.34 154.392 153.532C153.991 153.723 153.468 153.819 152.825 153.819H149.873ZM150.863 152.941H152.825C153.471 152.941 153.93 152.816 154.201 152.567C154.475 152.314 154.612 152.008 154.612 151.649C154.612 151.373 154.541 151.117 154.4 150.883C154.26 150.647 154.059 150.458 153.798 150.317C153.538 150.173 153.229 150.102 152.873 150.102H150.863V152.941ZM150.863 149.24H152.697C152.995 149.24 153.264 149.182 153.503 149.065C153.745 148.948 153.936 148.783 154.077 148.57C154.221 148.357 154.293 148.107 154.293 147.82C154.293 147.461 154.168 147.157 153.918 146.907C153.668 146.654 153.272 146.528 152.729 146.528H150.863V149.24Z" fill="#0032F6"/>
<path d="M161.929 153.931C161.403 153.931 160.933 153.84 160.521 153.659C160.112 153.479 159.786 153.227 159.544 152.906C159.305 152.581 159.174 152.205 159.153 151.777H160.158C160.179 152.04 160.27 152.267 160.429 152.459C160.589 152.648 160.798 152.794 161.056 152.898C161.314 153.001 161.599 153.053 161.913 153.053C162.264 153.053 162.575 152.992 162.847 152.87C163.118 152.747 163.33 152.577 163.485 152.359C163.639 152.141 163.716 151.888 163.716 151.601C163.716 151.301 163.642 151.036 163.493 150.808C163.344 150.576 163.126 150.395 162.839 150.265C162.551 150.135 162.2 150.07 161.786 150.07H161.131V149.192H161.786C162.11 149.192 162.394 149.134 162.639 149.017C162.886 148.9 163.079 148.735 163.217 148.522C163.358 148.309 163.429 148.059 163.429 147.772C163.429 147.496 163.368 147.255 163.245 147.05C163.123 146.846 162.95 146.686 162.727 146.572C162.506 146.457 162.246 146.4 161.945 146.4C161.663 146.4 161.397 146.452 161.147 146.556C160.9 146.657 160.698 146.804 160.541 146.998C160.384 147.19 160.299 147.421 160.286 147.692H159.329C159.345 147.264 159.473 146.889 159.715 146.568C159.957 146.243 160.274 145.991 160.665 145.81C161.058 145.629 161.49 145.539 161.961 145.539C162.466 145.539 162.9 145.641 163.261 145.846C163.623 146.048 163.901 146.315 164.095 146.647C164.289 146.98 164.386 147.339 164.386 147.724C164.386 148.184 164.265 148.577 164.023 148.901C163.784 149.225 163.458 149.45 163.046 149.575V149.639C163.562 149.724 163.965 149.943 164.255 150.297C164.544 150.648 164.689 151.083 164.689 151.601C164.689 152.045 164.568 152.444 164.326 152.798C164.087 153.149 163.76 153.425 163.345 153.627C162.93 153.83 162.458 153.931 161.929 153.931Z" fill="#0032F6"/>
<path d="M27.5962 149.734L0.589844 149.734" stroke="#0032F6" stroke-width="0.700747"/>
<path d="M201.596 149.734H173.764" stroke="#0032F6" stroke-width="0.700747"/>
<path d="M86.0758 0.571777C90.329 6.57625 93.0809 16.6667 92.1637 23.922C91.2712 23.4127 90.3487 22.8151 89.3199 22.1486C85.7863 19.8593 80.9989 16.7579 71.8674 13.6334C82.3232 10.4122 84.5748 5.99233 86.0758 0.571777Z" fill="#0032F6"/>
<path d="M139.972 50.8128C129.783 36.4528 108.75 22.5514 97.3074 19.7522C104.402 23.8431 107.099 31.1124 107.788 37.46C107.167 34.3943 105.874 30.9281 103.506 28.1167C101.142 26.7492 98.8039 25.5899 96.5581 24.6153C104.319 35.4315 105.3 44.5385 103.414 51.2755C113.312 46.4697 124.049 50.9481 127.934 54.1425C126.749 51.6732 125.435 49.3711 124.019 47.2262C121.151 46.0125 118.022 45.0479 115.123 44.8501C124.619 44.1708 136.644 48.9137 139.972 50.8128Z" fill="#0032F6"/>
<path d="M119.906 75.8156C131.099 76.5052 133.743 71.8954 132.599 69.7554C134.225 71.0775 135.896 80.3297 126.004 81.436C119.693 81.8577 114.401 79.7868 108.491 77.4741C97.5645 73.1984 84.5271 68.0966 59.0373 76.3952C61.72 75.1798 64.3143 74.1768 66.824 73.358C66.8657 73.2267 66.9138 73.0976 66.9615 72.9694C67.4075 71.7724 67.8202 70.6646 62.6345 68.7506C62.463 68.4889 62.5002 68.3176 62.5464 68.1043C62.5536 68.0712 62.5611 68.0369 62.5679 68.0013C101.459 65.8388 133.089 54.7363 140.419 52.163L140.42 52.1627C140.89 51.9977 141.26 51.8678 141.526 51.7776C141.791 51.6878 142.04 51.8393 142.128 52.1043C142.233 52.4202 142.043 52.7805 141.727 52.8846C138.477 53.955 123.792 59.4919 119.298 62.0031C114.289 64.8025 112.817 66.1545 111.188 71.7741C95.9532 68.9925 86.1323 69.3017 77.987 70.7609C90.3478 69.0511 100.341 71.5534 108.583 73.6172C112.786 74.6695 116.533 75.6077 119.906 75.8156Z" fill="#0032F6"/>
<path d="M97.3554 62.0712C100.051 51.9957 97.3554 35.4693 92.3848 25.9884C84.8123 26.3093 74.8921 20.7364 70.6339 14.5552C73.0333 20.9688 76.087 35.1607 77.311 46.8308C76.6605 43.7038 75.5615 40.3391 74.0671 36.2057C69.2807 36.2057 60.9967 31.3272 56.4863 26.5406C64.8627 39.9797 64.0339 58.0211 61.9168 65.6611C68.084 62.8076 71.5646 63.923 75.8161 65.6611C76.9118 62.0086 77.5787 58.9565 77.8535 56.1382C77.8368 59.0423 77.5724 61.4106 76.9853 62.9318C87.0812 58.9484 93.1038 60.3331 97.3554 62.0712Z" fill="#0032F6"/>
</svg>
