<svg width="202" height="154" viewBox="0 0 202 154" fill="none" xmlns="http://www.w3.org/2000/svg">
<path d="M0.588867 98.336H9.00279C13.7464 98.336 17.209 99.3575 19.3903 101.4C21.6064 103.409 22.7144 106.179 22.7144 109.71C22.7144 113.796 21.5198 116.93 19.1307 119.111C16.7415 121.293 13.1924 122.383 8.48341 122.383H6.45784V136.51H0.588867V98.336ZM8.63922 117.241C11.6862 117.241 13.8157 116.566 15.0276 115.216C16.2394 113.865 16.8454 112.238 16.8454 110.334C16.8454 108.291 16.2568 106.629 15.0795 105.348C13.9023 104.067 11.9286 103.426 9.1586 103.426H6.45784V117.241H8.63922Z" fill="black"/>
<path d="M27.2991 98.336H44.023V103.426H33.0642V113.969H41.8936V119.163H33.0642V131.368H45.737V136.51H27.2991V98.336Z" fill="black"/>
<path d="M50.8163 98.336H56.6853V131.317H67.6442V136.51H50.8163V98.336Z" fill="black"/>
<path d="M90.3484 98.284L108.734 136.51H102.034L98.7623 129.031H81.2593L77.9872 136.51H71.495L89.7771 98.284H90.3484ZM87.7515 114.541L83.5965 123.785H96.4771L92.374 114.592L90.1407 109.347H90.0368L87.7515 114.541Z" fill="black"/>
<path d="M126.895 137.03C123.12 137.03 119.745 136.164 116.767 134.433C113.789 132.701 111.452 130.33 109.755 127.317C108.093 124.27 107.262 120.86 107.262 117.086C107.262 113.415 108.11 110.109 109.807 107.165C111.504 104.222 113.858 101.92 116.871 100.258C119.883 98.5957 123.276 97.7646 127.05 97.7646C129.093 97.7646 130.928 97.9551 132.556 98.336C134.218 98.6822 135.568 99.0977 136.607 99.5825C137.646 100.033 138.356 100.431 138.736 100.777L136.451 105.659C134.304 103.928 131.136 103.062 126.947 103.062C124.177 103.062 121.77 103.668 119.727 104.88C117.684 106.092 116.126 107.737 115.053 109.814C113.979 111.892 113.443 114.212 113.443 116.774C113.443 119.682 114.014 122.279 115.157 124.565C116.334 126.85 117.944 128.633 119.987 129.914C122.064 131.161 124.402 131.784 126.999 131.784C128.626 131.784 130.184 131.593 131.673 131.213C133.162 130.797 134.426 130.157 135.464 129.291V121.916H127.622V116.566H141.229V131.524C139.983 133.082 138.096 134.398 135.568 135.471C133.075 136.51 130.184 137.03 126.895 137.03Z" fill="black"/>
<path d="M160.09 137.03C155.312 137.03 151.849 135.593 149.703 132.719C147.556 129.845 146.482 125.673 146.482 120.202V98.336H152.3V120.306C152.3 124.357 152.905 127.265 154.117 129.031C155.329 130.762 157.32 131.628 160.09 131.628C162.86 131.628 164.834 130.78 166.011 129.083C167.223 127.352 167.829 124.426 167.829 120.306V98.336H173.698V120.202C173.698 125.638 172.555 129.81 170.27 132.719C168.019 135.593 164.626 137.03 160.09 137.03Z" fill="black"/>
<path d="M189.337 137.03C187.259 137.03 185.199 136.666 183.156 135.939C181.113 135.212 179.642 134.398 178.741 133.498L181.494 128.564C182.221 129.222 183.347 129.914 184.87 130.641C186.428 131.334 187.917 131.68 189.337 131.68C191.172 131.68 192.661 131.247 193.803 130.382C194.981 129.516 195.569 128.321 195.569 126.798C195.569 125.621 195.258 124.599 194.634 123.734C194.011 122.868 193.249 122.158 192.349 121.604C191.449 121.015 190.168 120.306 188.506 119.475C186.532 118.505 185.182 117.778 184.455 117.293C181.096 115.043 179.417 111.926 179.417 107.944C179.417 104.655 180.507 102.145 182.689 100.413C184.87 98.6476 187.623 97.7646 190.947 97.7646C194.513 97.7646 197.543 98.7861 200.036 100.829L197.283 105.555C196.625 104.863 195.691 104.274 194.479 103.789C193.301 103.27 192.038 103.01 190.687 103.01C188.956 103.01 187.588 103.409 186.584 104.205C185.615 104.967 185.13 106.109 185.13 107.633C185.13 108.706 185.441 109.676 186.065 110.541C186.688 111.372 187.467 112.099 188.402 112.723C189.371 113.346 190.67 114.108 192.297 115.008C193.855 115.874 195.05 116.566 195.881 117.086C196.712 117.57 197.491 118.159 198.218 118.851C199.222 119.752 200.036 120.825 200.659 122.072C201.282 123.318 201.594 124.686 201.594 126.175C201.594 128.494 201.057 130.468 199.984 132.096C198.945 133.723 197.491 134.952 195.621 135.783C193.786 136.614 191.691 137.03 189.337 137.03Z" fill="black"/>
<path d="M37.4473 153.818V145.649H42.3772V146.527H38.4364V149.287H42.1219V150.164H38.4364V152.94H42.441V153.818H37.4473Z" fill="black"/>
<path d="M46.2942 145.649H47.4748L50.2509 152.43H50.3466L53.1227 145.649H54.3033V153.818H53.378V147.612H53.2982L50.7455 153.818H49.852L47.2993 147.612H47.2195V153.818H46.2942V145.649Z" fill="black"/>
<path d="M58.4207 153.818V145.649H61.2766C61.8456 145.649 62.315 145.748 62.6846 145.944C63.0542 146.139 63.3294 146.4 63.5102 146.73C63.691 147.057 63.7814 147.42 63.7814 147.819C63.7814 148.17 63.719 148.46 63.594 148.689C63.4717 148.917 63.3095 149.098 63.1074 149.231C62.9079 149.364 62.6912 149.462 62.4572 149.526V149.606C62.7072 149.622 62.9585 149.71 63.2111 149.869C63.4637 150.029 63.6751 150.257 63.8453 150.555C64.0154 150.853 64.1005 151.217 64.1005 151.648C64.1005 152.058 64.0075 152.426 63.8213 152.753C63.6352 153.08 63.3414 153.339 62.9398 153.531C62.5383 153.722 62.0158 153.818 61.3723 153.818H58.4207ZM59.4099 152.94H61.3723C62.0185 152.94 62.4772 152.815 62.7484 152.566C63.0223 152.313 63.1592 152.007 63.1592 151.648C63.1592 151.372 63.0888 151.116 62.9478 150.882C62.8069 150.646 62.6061 150.457 62.3455 150.316C62.085 150.172 61.7765 150.101 61.4202 150.101H59.4099V152.94ZM59.4099 149.239H61.2447C61.5425 149.239 61.8111 149.181 62.0504 149.064C62.2924 148.947 62.4838 148.782 62.6247 148.569C62.7683 148.356 62.8401 148.106 62.8401 147.819C62.8401 147.46 62.7152 147.156 62.4652 146.906C62.2152 146.653 61.819 146.527 61.2766 146.527H59.4099V149.239Z" fill="black"/>
<path d="M68.195 153.818H67.158L70.1574 145.649H71.1785L74.1779 153.818H73.1409L70.6999 146.942H70.636L68.195 153.818ZM68.5779 150.627H72.758V151.505H68.5779V150.627Z" fill="black"/>
<path d="M77.5844 153.818V145.649H80.3445C80.9827 145.649 81.5065 145.758 81.916 145.976C82.3255 146.192 82.6287 146.488 82.8254 146.866C83.0222 147.243 83.1206 147.673 83.1206 148.154C83.1206 148.635 83.0222 149.062 82.8254 149.434C82.6287 149.807 82.3268 150.099 81.92 150.312C81.5132 150.522 80.9933 150.627 80.3605 150.627H78.1268V149.734H80.3285C80.7646 149.734 81.1156 149.67 81.3815 149.542C81.6501 149.415 81.8442 149.234 81.9639 149C82.0862 148.763 82.1474 148.481 82.1474 148.154C82.1474 147.827 82.0862 147.541 81.9639 147.297C81.8416 147.052 81.6461 146.863 81.3776 146.73C81.109 146.595 80.754 146.527 80.3126 146.527H78.5736V153.818H77.5844ZM81.4294 150.148L83.4397 153.818H82.2909L80.3126 150.148H81.4294Z" fill="black"/>
<path d="M86.9029 153.818V145.649H87.8921V149.702H87.9879L91.6574 145.649H92.9497L89.5195 149.335L92.9497 153.818H91.7531L88.9132 150.021L87.8921 151.17V153.818H86.9029Z" fill="black"/>
<path d="M108.55 149.734C108.55 150.595 108.394 151.34 108.083 151.967C107.772 152.595 107.345 153.079 106.802 153.419C106.26 153.759 105.64 153.93 104.944 153.93C104.247 153.93 103.628 153.759 103.085 153.419C102.543 153.079 102.116 152.595 101.805 151.967C101.494 151.34 101.338 150.595 101.338 149.734C101.338 148.872 101.494 148.128 101.805 147.5C102.116 146.872 102.543 146.389 103.085 146.048C103.628 145.708 104.247 145.538 104.944 145.538C105.64 145.538 106.26 145.708 106.802 146.048C107.345 146.389 107.772 146.872 108.083 147.5C108.394 148.128 108.55 148.872 108.55 149.734ZM107.592 149.734C107.592 149.026 107.474 148.429 107.237 147.943C107.003 147.456 106.685 147.088 106.284 146.838C105.885 146.588 105.438 146.463 104.944 146.463C104.449 146.463 104.001 146.588 103.6 146.838C103.201 147.088 102.883 147.456 102.646 147.943C102.412 148.429 102.295 149.026 102.295 149.734C102.295 150.441 102.412 151.038 102.646 151.525C102.883 152.011 103.201 152.379 103.6 152.629C104.001 152.879 104.449 153.004 104.944 153.004C105.438 153.004 105.885 152.879 106.284 152.629C106.685 152.379 107.003 152.011 107.237 151.525C107.474 151.038 107.592 150.441 107.592 149.734Z" fill="black"/>
<path d="M118.824 145.649V153.818H117.867L113.416 147.404H113.336V153.818H112.347V145.649H113.304L117.771 152.079H117.851V145.649H118.824Z" fill="black"/>
<path d="M129.715 153.818L127.481 145.649H128.486L130.193 152.302H130.273L132.012 145.649H133.129L134.868 152.302H134.948L136.655 145.649H137.66L135.426 153.818H134.405L132.602 147.309H132.539L130.736 153.818H129.715Z" fill="black"/>
<path d="M141.026 153.818V145.649H145.956V146.527H142.016V149.287H145.701V150.164H142.016V152.94H146.02V153.818H141.026Z" fill="black"/>
<path d="M149.873 153.818V145.649H152.729C153.298 145.649 153.768 145.748 154.137 145.944C154.507 146.139 154.782 146.4 154.963 146.73C155.144 147.057 155.234 147.42 155.234 147.819C155.234 148.17 155.172 148.46 155.047 148.689C154.924 148.917 154.762 149.098 154.56 149.231C154.361 149.364 154.144 149.462 153.91 149.526V149.606C154.16 149.622 154.411 149.71 154.664 149.869C154.916 150.029 155.128 150.257 155.298 150.555C155.468 150.853 155.553 151.217 155.553 151.648C155.553 152.058 155.46 152.426 155.274 152.753C155.088 153.08 154.794 153.339 154.392 153.531C153.991 153.722 153.468 153.818 152.825 153.818H149.873ZM150.863 152.94H152.825C153.471 152.94 153.93 152.815 154.201 152.566C154.475 152.313 154.612 152.007 154.612 151.648C154.612 151.372 154.541 151.116 154.4 150.882C154.26 150.646 154.059 150.457 153.798 150.316C153.538 150.172 153.229 150.101 152.873 150.101H150.863V152.94ZM150.863 149.239H152.697C152.995 149.239 153.264 149.181 153.503 149.064C153.745 148.947 153.936 148.782 154.077 148.569C154.221 148.356 154.293 148.106 154.293 147.819C154.293 147.46 154.168 147.156 153.918 146.906C153.668 146.653 153.272 146.527 152.729 146.527H150.863V149.239Z" fill="black"/>
<path d="M161.929 153.93C161.403 153.93 160.933 153.839 160.521 153.658C160.112 153.478 159.786 153.226 159.544 152.905C159.305 152.58 159.174 152.204 159.153 151.776H160.158C160.179 152.039 160.27 152.266 160.429 152.458C160.589 152.647 160.798 152.793 161.056 152.897C161.314 153 161.599 153.052 161.913 153.052C162.264 153.052 162.575 152.991 162.847 152.869C163.118 152.746 163.33 152.576 163.485 152.358C163.639 152.14 163.716 151.887 163.716 151.6C163.716 151.3 163.642 151.035 163.493 150.807C163.344 150.575 163.126 150.394 162.839 150.264C162.551 150.134 162.2 150.069 161.786 150.069H161.131V149.191H161.786C162.11 149.191 162.394 149.133 162.639 149.016C162.886 148.899 163.079 148.734 163.217 148.521C163.358 148.308 163.429 148.058 163.429 147.771C163.429 147.495 163.368 147.254 163.245 147.049C163.123 146.845 162.95 146.685 162.727 146.571C162.506 146.456 162.246 146.399 161.945 146.399C161.663 146.399 161.397 146.451 161.147 146.555C160.9 146.656 160.698 146.803 160.541 146.997C160.384 147.189 160.299 147.42 160.286 147.691H159.329C159.345 147.263 159.473 146.888 159.715 146.567C159.957 146.242 160.274 145.99 160.665 145.809C161.058 145.628 161.49 145.538 161.961 145.538C162.466 145.538 162.9 145.64 163.261 145.845C163.623 146.047 163.901 146.314 164.095 146.646C164.289 146.979 164.386 147.338 164.386 147.723C164.386 148.183 164.265 148.576 164.023 148.9C163.784 149.224 163.458 149.449 163.046 149.574V149.638C163.562 149.723 163.965 149.942 164.255 150.296C164.544 150.647 164.689 151.082 164.689 151.6C164.689 152.044 164.568 152.443 164.326 152.797C164.087 153.148 163.76 153.424 163.345 153.627C162.93 153.829 162.458 153.93 161.929 153.93Z" fill="black"/>
<path d="M27.5953 149.733L0.588867 149.733" stroke="black" stroke-width="0.700747"/>
<path d="M201.594 149.733H173.762" stroke="black" stroke-width="0.700747"/>
<path d="M86.0739 0.570801C90.327 6.57528 93.079 16.6658 92.1617 23.9211C91.2692 23.4117 90.3467 22.8141 89.3179 22.1476C85.7843 19.8584 80.997 16.7569 71.8654 13.6324C82.3212 10.4112 84.5728 5.99136 86.0739 0.570801Z" fill="black"/>
<path d="M139.97 50.8119C129.781 36.4518 108.748 22.5504 97.3055 19.7513C104.4 23.8422 107.097 31.1114 107.786 37.459C107.165 34.3933 105.872 30.9271 103.504 28.1157C101.14 26.7482 98.802 25.5889 96.5561 24.6143C104.317 35.4305 105.298 44.5375 103.412 51.2745C113.31 46.4687 124.047 50.9471 127.932 54.1415C126.747 51.6722 125.433 49.3701 124.017 47.2253C121.149 46.0115 118.02 45.0469 115.122 44.8491C124.617 44.1698 136.642 48.9128 139.97 50.8119Z" fill="black"/>
<path d="M119.904 75.8146C131.097 76.5043 133.741 71.8945 132.597 69.7544C134.223 71.0765 135.894 80.3288 126.002 81.435C119.691 81.8568 114.399 79.7858 108.489 77.4732C97.5625 73.1974 84.5251 68.0956 59.0354 76.3942C61.718 75.1788 64.3123 74.1758 66.822 73.357C66.8637 73.2257 66.9118 73.0966 66.9596 72.9685C67.4055 71.7714 67.8183 70.6636 62.6325 68.7496C62.4611 68.4879 62.4982 68.3166 62.5445 68.1033C62.5517 68.0702 62.5591 68.036 62.566 68.0003C101.457 65.8378 133.087 54.7353 140.417 52.162L140.418 52.1617C140.888 51.9967 141.258 51.8668 141.524 51.7766C141.789 51.6868 142.038 51.8384 142.126 52.1033C142.231 52.4192 142.041 52.7795 141.725 52.8837C138.475 53.954 123.79 59.4909 119.296 62.0021C114.287 64.8015 112.815 66.1535 111.186 71.7732C95.9512 68.9915 86.1303 69.3008 77.9851 70.76C90.3459 69.0501 100.339 71.5524 108.581 73.6162C112.784 74.6685 116.531 75.6067 119.904 75.8146Z" fill="black"/>
<path d="M97.3534 62.0702C100.049 51.9947 97.3534 35.4683 92.3828 25.9874C84.8104 26.3083 74.8902 20.7354 70.632 14.5543C73.0314 20.9679 76.085 35.1598 77.3091 46.8298C76.6586 43.7028 75.5595 40.3382 74.0651 36.2047C69.2788 36.2047 60.9947 31.3262 56.4844 26.5397C64.8607 39.9787 64.0319 58.0201 61.9148 65.6601C68.082 62.8066 71.5626 63.9221 75.8142 65.6601C76.9099 62.0077 77.5768 58.9555 77.8516 56.1372C77.8349 59.0414 77.5705 61.4096 76.9833 62.9309C87.0793 58.9474 93.1019 60.3322 97.3534 62.0702Z" fill="black"/>
</svg>
