<svg width="227" height="154" viewBox="0 0 227 154" fill="none" xmlns="http://www.w3.org/2000/svg">
<path d="M0.703125 110.443H10.1591C15.4902 110.443 19.3816 111.591 21.8331 113.887C24.3236 116.144 25.5688 119.257 25.5688 123.226C25.5688 127.818 24.2263 131.34 21.5413 133.791C18.8562 136.243 14.8676 137.469 9.57538 137.469H7.29895V153.345H0.703125V110.443ZM9.75049 131.69C13.1749 131.69 15.568 130.931 16.93 129.414C18.292 127.896 18.973 126.067 18.973 123.927C18.973 121.631 18.3114 119.763 16.9884 118.323C15.6653 116.884 13.4473 116.164 10.3342 116.164H7.29895V131.69H9.75049Z" fill="black"/>
<path d="M30.7213 110.443H49.5165V116.164H37.2004V128.013H47.1233V133.85H37.2004V147.567H51.4427V153.345H30.7213V110.443Z" fill="black"/>
<path d="M57.1511 110.443H63.7469V147.508H76.063V153.345H57.1511V110.443Z" fill="black"/>
<path d="M101.579 110.385L122.242 153.345H114.712L111.035 144.94H91.3644L87.687 153.345H80.3908L100.937 110.385H101.579ZM98.6606 128.655L93.991 139.045H108.467L103.856 128.713L101.346 122.818H101.229L98.6606 128.655Z" fill="black"/>
<path d="M142.651 153.929C138.41 153.929 134.616 152.956 131.269 151.011C127.923 149.065 125.296 146.399 123.389 143.014C121.522 139.589 120.588 135.757 120.588 131.515C120.588 127.39 121.541 123.674 123.448 120.366C125.354 117.059 128.001 114.471 131.386 112.603C134.772 110.735 138.585 109.801 142.827 109.801C145.122 109.801 147.185 110.015 149.014 110.443C150.882 110.832 152.399 111.299 153.567 111.844C154.734 112.35 155.532 112.798 155.96 113.187L153.392 118.674C150.979 116.728 147.418 115.755 142.71 115.755C139.597 115.755 136.892 116.436 134.596 117.798C132.301 119.16 130.549 121.008 129.343 123.343C128.137 125.678 127.534 128.285 127.534 131.165C127.534 134.433 128.176 137.352 129.46 139.92C130.783 142.489 132.592 144.493 134.888 145.932C137.223 147.333 139.85 148.034 142.768 148.034C144.597 148.034 146.348 147.82 148.022 147.392C149.695 146.925 151.115 146.205 152.283 145.232V136.943H143.469V130.931H158.762V147.742C157.361 149.493 155.24 150.972 152.399 152.178C149.598 153.345 146.348 153.929 142.651 153.929Z" fill="black"/>
<path d="M179.958 153.929C174.588 153.929 170.697 152.314 168.284 149.084C165.872 145.855 164.665 141.165 164.665 135.017V110.443H171.203V135.134C171.203 139.687 171.884 142.955 173.246 144.94C174.608 146.886 176.845 147.859 179.958 147.859C183.071 147.859 185.289 146.905 186.612 144.998C187.974 143.053 188.655 139.765 188.655 135.134V110.443H195.251V135.017C195.251 141.127 193.967 145.816 191.399 149.084C188.869 152.314 185.056 153.929 179.958 153.929Z" fill="black"/>
<path d="M212.827 153.929C210.492 153.929 208.177 153.52 205.881 152.703C203.585 151.886 201.931 150.972 200.919 149.96L204.013 144.415C204.83 145.154 206.095 145.932 207.807 146.75C209.558 147.528 211.231 147.917 212.827 147.917C214.889 147.917 216.563 147.431 217.847 146.458C219.17 145.485 219.831 144.142 219.831 142.43C219.831 141.107 219.481 139.959 218.781 138.986C218.08 138.013 217.224 137.216 216.212 136.593C215.201 135.932 213.761 135.134 211.893 134.2C209.675 133.11 208.157 132.293 207.34 131.748C203.566 129.219 201.678 125.717 201.678 121.242C201.678 117.545 202.904 114.724 205.356 112.778C207.807 110.794 210.901 109.801 214.636 109.801C218.644 109.801 222.049 110.949 224.851 113.245L221.758 118.557C221.018 117.779 219.968 117.117 218.606 116.572C217.282 115.989 215.862 115.697 214.345 115.697C212.399 115.697 210.862 116.144 209.733 117.039C208.644 117.895 208.099 119.179 208.099 120.892C208.099 122.098 208.449 123.187 209.15 124.16C209.85 125.094 210.726 125.911 211.776 126.612C212.866 127.312 214.325 128.168 216.154 129.18C217.905 130.153 219.248 130.931 220.182 131.515C221.115 132.06 221.991 132.721 222.808 133.5C223.937 134.511 224.851 135.718 225.552 137.118C226.252 138.519 226.602 140.056 226.602 141.73C226.602 144.337 225.999 146.555 224.793 148.384C223.625 150.213 221.991 151.594 219.89 152.528C217.827 153.462 215.473 153.929 212.827 153.929Z" fill="black"/>
<path d="M96.7755 0.570312C101.555 7.31843 104.648 18.6586 103.617 26.8124C102.614 26.24 101.578 25.5684 100.421 24.8193C96.4501 22.2466 91.0699 18.761 80.8075 15.2496C92.5581 11.6294 95.0886 6.66219 96.7755 0.570312Z" fill="black"/>
<path d="M157.347 57.0336C145.896 40.8951 122.258 25.2721 109.398 22.1262C117.372 26.7238 120.402 34.8933 121.177 42.027C120.479 38.5816 119.026 34.6862 116.365 31.5266C113.708 29.9897 111.08 28.6869 108.556 27.5916C117.278 39.7473 118.381 49.9822 116.261 57.5535C127.385 52.1526 139.451 57.1855 143.818 60.7756C142.486 58.0005 141.009 55.4133 139.418 53.0028C136.195 51.6387 132.678 50.5546 129.421 50.3324C140.092 49.569 153.607 54.8993 157.347 57.0336Z" fill="black"/>
<path d="M134.796 85.1328C147.375 85.9079 150.346 80.7272 149.06 78.3221C150.888 79.8079 152.765 90.2061 141.649 91.4493C134.556 91.9233 128.608 89.5958 121.967 86.9968C109.687 82.1915 95.035 76.4578 66.3884 85.7842C69.4033 84.4183 72.3189 83.2911 75.1394 82.3709C75.1863 82.2233 75.2403 82.0782 75.294 81.9342C75.7952 80.5889 76.2591 79.3439 70.4311 77.1929C70.2384 76.8988 70.2801 76.7062 70.3321 76.4665C70.3402 76.4293 70.3486 76.3908 70.3563 76.3508C114.064 73.9204 149.611 61.4429 157.849 58.551L157.851 58.5506C158.379 58.3652 158.795 58.2192 159.093 58.1178C159.39 58.0169 159.671 58.1872 159.77 58.485C159.888 58.84 159.674 59.2449 159.319 59.362C155.667 60.5648 139.163 66.7875 134.113 69.6097C128.483 72.7558 126.828 74.2753 124.998 80.5909C107.876 77.4647 96.839 77.8123 87.685 79.4522C101.577 77.5306 112.808 80.3428 122.07 82.6622C126.793 83.8448 131.004 84.8992 134.796 85.1328Z" fill="black"/>
<path d="M109.452 69.6862C112.481 58.3629 109.452 39.7898 103.866 29.1347C95.3556 29.4954 84.2068 23.2323 79.4212 16.2856C82.1178 23.4935 85.5496 39.443 86.9253 52.5583C86.1942 49.0441 84.9591 45.2627 83.2796 40.6174C77.9004 40.6174 68.5904 35.1347 63.5215 29.7553C72.9352 44.8587 72.0038 65.1346 69.6245 73.7207C76.5555 70.5139 80.4671 71.7674 85.2452 73.7207C86.4766 69.6159 87.2261 66.1858 87.535 63.0185C87.5162 66.2823 87.219 68.9438 86.5592 70.6535C97.9055 66.1767 104.674 67.7329 109.452 69.6862Z" fill="black"/>
</svg>
