<svg width="223" height="160" viewBox="0 0 223 160" fill="none" xmlns="http://www.w3.org/2000/svg">
<path d="M0.46582 116.347H9.77817C15.0283 116.347 18.8606 117.478 21.2749 119.739C23.7275 121.961 24.9538 125.027 24.9538 128.936C24.9538 133.458 23.6317 136.926 20.9875 139.341C18.3432 141.755 14.4152 142.962 9.20333 142.962H6.96147V158.598H0.46582V116.347ZM9.37578 137.271C12.7482 137.271 15.105 136.524 16.4463 135.029C17.7876 133.535 18.4582 131.734 18.4582 129.626C18.4582 127.365 17.8067 125.525 16.5038 124.108C15.2008 122.69 13.0164 121.981 9.95062 121.981H6.96147V137.271H9.37578Z" fill="black"/>
<path d="M30.0281 116.347H48.5379V121.981H36.4088V133.65H46.181V139.398H36.4088V152.907H50.4348V158.598H30.0281V116.347Z" fill="black"/>
<path d="M56.0565 116.347H62.5522V152.849H74.6812V158.598H56.0565V116.347Z" fill="black"/>
<path d="M99.8098 116.29L120.159 158.598H112.744L109.122 150.32H89.7502L86.1287 158.598H78.9432L99.1775 116.29H99.8098ZM96.9356 134.282L92.3369 144.514H106.593L102.052 134.34L99.5799 128.534H99.4649L96.9356 134.282Z" fill="black"/>
<path d="M140.258 159.172C136.081 159.172 132.345 158.214 129.049 156.298C125.753 154.382 123.167 151.757 121.289 148.423C119.449 145.051 118.53 141.276 118.53 137.099C118.53 133.037 119.468 129.377 121.346 126.119C123.224 122.862 125.83 120.314 129.164 118.474C132.498 116.635 136.254 115.715 140.431 115.715C142.692 115.715 144.723 115.926 146.524 116.347C148.364 116.73 149.858 117.19 151.008 117.727C152.157 118.225 152.943 118.666 153.365 119.049L150.835 124.452C148.459 122.536 144.953 121.578 140.316 121.578C137.25 121.578 134.587 122.249 132.326 123.59C130.065 124.931 128.34 126.752 127.152 129.051C125.964 131.35 125.37 133.918 125.37 136.754C125.37 139.973 126.002 142.847 127.267 145.376C128.57 147.906 130.352 149.879 132.613 151.297C134.912 152.677 137.499 153.367 140.373 153.367C142.175 153.367 143.899 153.156 145.547 152.734C147.195 152.274 148.594 151.565 149.743 150.607V142.445H141.063V136.524H156.124V153.079C154.744 154.804 152.656 156.26 149.858 157.448C147.099 158.598 143.899 159.172 140.258 159.172Z" fill="black"/>
<path d="M176.999 159.172C171.71 159.172 167.878 157.582 165.502 154.401C163.126 151.221 161.938 146.603 161.938 140.548V116.347H168.376V140.663C168.376 145.146 169.047 148.366 170.388 150.32C171.729 152.236 173.933 153.194 176.999 153.194C180.064 153.194 182.249 152.255 183.552 150.377C184.893 148.461 185.564 145.223 185.564 140.663V116.347H192.059V140.548C192.059 146.564 190.795 151.182 188.265 154.401C185.774 157.582 182.019 159.172 176.999 159.172Z" fill="black"/>
<path d="M209.368 159.172C207.069 159.172 204.789 158.77 202.528 157.965C200.266 157.161 198.638 156.26 197.641 155.264L200.688 149.803C201.493 150.531 202.738 151.297 204.424 152.102C206.149 152.868 207.797 153.252 209.368 153.252C211.399 153.252 213.047 152.773 214.312 151.815C215.615 150.857 216.266 149.534 216.266 147.848C216.266 146.545 215.921 145.415 215.231 144.457C214.542 143.499 213.698 142.713 212.702 142.1C211.706 141.448 210.288 140.663 208.448 139.743C206.264 138.67 204.769 137.865 203.965 137.329C200.247 134.838 198.389 131.389 198.389 126.982C198.389 123.341 199.596 120.563 202.01 118.647C204.424 116.692 207.471 115.715 211.15 115.715C215.097 115.715 218.45 116.845 221.21 119.106L218.163 124.337C217.435 123.571 216.4 122.919 215.059 122.383C213.756 121.808 212.357 121.521 210.863 121.521C208.947 121.521 207.433 121.961 206.321 122.843C205.248 123.686 204.712 124.951 204.712 126.637C204.712 127.825 205.057 128.898 205.747 129.856C206.436 130.776 207.299 131.58 208.333 132.27C209.406 132.96 210.843 133.803 212.645 134.799C214.369 135.757 215.691 136.524 216.611 137.099C217.531 137.635 218.393 138.287 219.198 139.053C220.309 140.05 221.21 141.238 221.899 142.617C222.589 143.997 222.934 145.511 222.934 147.158C222.934 149.726 222.34 151.91 221.152 153.712C220.003 155.513 218.393 156.873 216.324 157.793C214.292 158.713 211.974 159.172 209.368 159.172Z" fill="black"/>
<path fill-rule="evenodd" clip-rule="evenodd" d="M52.2899 0.0820312C84.7262 8.01684 144.35 47.4231 173.232 88.1296C163.799 82.7464 129.712 69.3023 102.796 71.2269C111.012 71.7878 119.881 74.5219 128.01 77.9623C132.022 84.0422 135.748 90.568 139.108 97.5678C128.094 88.5125 97.6576 75.8177 69.6001 89.4407C74.947 70.3433 74.0221 42.8859 50.166 13.867C56.5323 16.6297 63.1611 19.9159 69.8621 23.7924C76.5734 31.7606 80.2382 41.5842 81.9983 50.2736C80.0437 32.2812 72.4003 11.6775 52.2899 0.0820312Z" fill="black"/>
</svg>
