<svg width="290" height="82" viewBox="0 0 290 82" fill="none" xmlns="http://www.w3.org/2000/svg">
<path d="M0.570312 1.15414H12.6616C19.4786 1.15414 24.4544 2.62202 27.5892 5.55777C30.7737 8.44377 32.366 12.4244 32.366 17.4998C32.366 23.3713 30.6493 27.8745 27.216 31.0093C23.7827 34.144 18.6824 35.7114 11.9153 35.7114H9.00438V56.0129H0.570312V1.15414ZM12.1392 28.3223C16.5179 28.3223 19.5781 27.352 21.3196 25.4114C23.0612 23.4708 23.9319 21.1322 23.9319 18.3955C23.9319 15.4597 23.0861 13.0713 21.3943 11.2302C19.7025 9.38918 16.8662 8.46865 12.8856 8.46865H9.00438V28.3223H12.1392Z" fill="black"/>
<path d="M38.9545 1.15414H62.9879V8.46865H47.2393V23.6201H59.9278V31.0839H47.2393V48.6238H65.451V56.0129H38.9545V1.15414Z" fill="black"/>
<path d="M72.7503 1.15414H81.1844V48.5491H96.933V56.0129H72.7503V1.15414Z" fill="black"/>
<path d="M129.56 1.07939L155.982 56.0128H146.354L141.652 45.265H116.499L111.797 56.0128H102.467L128.739 1.07939H129.56ZM125.828 24.441L119.857 37.7265H138.368L132.471 24.5157L129.262 16.9772H129.113L125.828 24.441Z" fill="black"/>
<path d="M182.08 56.7592C176.656 56.7592 171.804 55.5152 167.525 53.0273C163.246 50.5394 159.887 47.1309 157.449 42.8019C155.061 38.4232 153.866 33.522 153.866 28.0983C153.866 22.8239 155.086 18.0719 157.524 13.8425C159.962 9.61298 163.345 6.30403 167.674 3.91563C172.003 1.52721 176.88 0.333008 182.303 0.333008C185.239 0.333008 187.876 0.606681 190.215 1.15403C192.603 1.65161 194.544 2.24871 196.037 2.94533C197.53 3.59219 198.55 4.16442 199.097 4.662L195.813 11.678C192.728 9.19003 188.175 7.94606 182.154 7.94606C178.173 7.94606 174.715 8.81684 171.78 10.5584C168.844 12.2999 166.605 14.6635 165.062 17.649C163.52 20.6345 162.748 23.9683 162.748 27.6504C162.748 31.8302 163.569 35.5621 165.211 38.8461C166.903 42.1302 169.217 44.6927 172.153 46.5338C175.138 48.3251 178.497 49.2208 182.229 49.2208C184.567 49.2208 186.807 48.9471 188.946 48.3998C191.086 47.8027 192.902 46.8821 194.395 45.6382V35.0396H183.124V27.3519H202.68V48.8476C200.888 51.0867 198.176 52.9775 194.544 54.52C190.961 56.0128 186.807 56.7592 182.08 56.7592Z" fill="black"/>
<path d="M229.784 56.7592C222.917 56.7592 217.941 54.6942 214.856 50.5642C211.771 46.4343 210.228 40.4384 210.228 32.5765V1.15403H218.588V32.7258C218.588 38.5476 219.459 42.7273 221.2 45.265C222.942 47.7529 225.803 48.9969 229.784 48.9969C233.764 48.9969 236.6 47.7778 238.292 45.3396C240.034 42.8517 240.905 38.6471 240.905 32.7258V1.15403H249.339V32.5765C249.339 40.3886 247.697 46.3845 244.413 50.5642C241.178 54.6942 236.302 56.7592 229.784 56.7592Z" fill="black"/>
<path d="M271.813 56.7592C268.827 56.7592 265.867 56.2367 262.931 55.1918C259.995 54.1469 257.88 52.9775 256.587 51.6838L260.542 44.5932C261.587 45.5386 263.205 46.5338 265.394 47.5787C267.633 48.5739 269.773 49.0715 271.813 49.0715C274.45 49.0715 276.59 48.4495 278.232 47.2055C279.923 45.9616 280.769 44.2449 280.769 42.0555C280.769 40.3637 280.321 38.8959 279.426 37.6519C278.53 36.4079 277.435 35.3879 276.142 34.5918C274.848 33.7459 273.007 32.7258 270.619 31.5316C267.782 30.1384 265.842 29.0934 264.797 28.3968C259.97 25.1625 257.557 20.6842 257.557 14.962C257.557 10.235 259.124 6.62746 262.259 4.13954C265.394 1.60185 269.35 0.333008 274.127 0.333008C279.252 0.333008 283.606 1.80089 287.188 4.73664L283.232 11.5287C282.287 10.5335 280.943 9.68761 279.202 8.99099C277.51 8.24462 275.694 7.87143 273.753 7.87143C271.265 7.87143 269.3 8.44365 267.857 9.5881C266.464 10.6828 265.767 12.3248 265.767 14.5142C265.767 16.0567 266.215 17.4499 267.111 18.6939C268.006 19.8881 269.126 20.933 270.469 21.8287C271.863 22.7243 273.728 23.819 276.067 25.1128C278.306 26.3567 280.023 27.3519 281.217 28.0983C282.411 28.7949 283.531 29.6408 284.576 30.636C286.019 31.9297 287.188 33.4722 288.084 35.2635C288.979 37.0548 289.427 39.0203 289.427 41.1599C289.427 44.4937 288.656 47.3299 287.114 49.6686C285.621 52.0072 283.531 53.7737 280.844 54.9679C278.207 56.1621 275.196 56.7592 271.813 56.7592Z" fill="black"/>
<path d="M53.5381 80.8852V69.1463H60.6227V70.4073H54.9596V74.3738H60.2559V75.6348H54.9596V79.6242H60.7144V80.8852H53.5381Z" fill="black"/>
<path d="M66.2517 69.1463H67.9483L71.9377 78.8905H72.0753L76.0647 69.1463H77.7613V80.8852H76.4315V71.9664H76.3169L72.6484 80.8852H71.3645L67.6961 71.9664H67.5815V80.8852H66.2517V69.1463Z" fill="black"/>
<path d="M83.6783 80.8852V69.1463H87.7823C88.6001 69.1463 89.2745 69.2877 89.8057 69.5705C90.3368 69.8494 90.7323 70.2258 90.9922 70.6997C91.252 71.1697 91.3819 71.6913 91.3819 72.2645C91.3819 72.7689 91.2921 73.1854 91.1125 73.514C90.9368 73.8427 90.7037 74.1025 90.4132 74.2936C90.1266 74.4846 89.8152 74.626 89.4789 74.7177V74.8324C89.8381 74.8553 90.1993 74.9814 90.5623 75.2107C90.9253 75.44 91.2291 75.7686 91.4736 76.1966C91.7182 76.6245 91.8405 77.1481 91.8405 77.7671C91.8405 78.3556 91.7067 78.8848 91.4393 79.3548C91.1718 79.8248 90.7495 80.1974 90.1725 80.4725C89.5955 80.7477 88.8446 80.8852 87.9199 80.8852H83.6783ZM85.0998 79.6242H87.9199C88.8484 79.6242 89.5076 79.4446 89.8974 79.0854C90.291 78.7224 90.4878 78.283 90.4878 77.7671C90.4878 77.3697 90.3865 77.0028 90.184 76.6666C89.9814 76.3265 89.6929 76.0552 89.3184 75.8526C88.944 75.6463 88.5007 75.5431 87.9887 75.5431H85.0998V79.6242ZM85.0998 74.305H87.7364C88.1644 74.305 88.5504 74.221 88.8943 74.0528C89.242 73.8847 89.5172 73.6478 89.7197 73.3421C89.926 73.0364 90.0292 72.6772 90.0292 72.2645C90.0292 71.7486 89.8496 71.3111 89.4904 70.9519C89.1312 70.5889 88.5618 70.4073 87.7823 70.4073H85.0998V74.305Z" fill="black"/>
<path d="M97.7245 80.8852H96.2342L100.545 69.1463H102.012L106.322 80.8852H104.832L101.324 71.0035H101.232L97.7245 80.8852ZM98.2748 76.2997H104.282V77.5607H98.2748V76.2997Z" fill="black"/>
<path d="M111.218 80.8852V69.1463H115.184C116.101 69.1463 116.854 69.303 117.442 69.6163C118.031 69.9259 118.467 70.3519 118.749 70.8946C119.032 71.4372 119.173 72.0543 119.173 72.746C119.173 73.4376 119.032 74.0509 118.749 74.5859C118.467 75.1209 118.033 75.5412 117.448 75.8469C116.864 76.1488 116.116 76.2997 115.207 76.2997H111.997V75.0158H115.161C115.788 75.0158 116.292 74.9241 116.674 74.7407C117.06 74.5572 117.339 74.2974 117.511 73.9611C117.687 73.621 117.775 73.216 117.775 72.746C117.775 72.2759 117.687 71.8652 117.511 71.5136C117.335 71.162 117.055 70.8907 116.669 70.6997C116.283 70.5048 115.773 70.4073 115.138 70.4073H112.639V80.8852H111.218ZM116.743 75.6119L119.632 80.8852H117.981L115.138 75.6119H116.743Z" fill="black"/>
<path d="M124.609 80.8852V69.1463H126.03V74.9699H126.168L131.441 69.1463H133.299L128.369 74.4426L133.299 80.8852H131.579L127.498 75.4285L126.03 77.0793V80.8852H124.609Z" fill="black"/>
<path d="M155.716 75.0158C155.716 76.2539 155.493 77.3238 155.046 78.2256C154.599 79.1275 153.985 79.8229 153.206 80.3121C152.426 80.8012 151.536 81.0457 150.535 81.0457C149.534 81.0457 148.643 80.8012 147.864 80.3121C147.084 79.8229 146.471 79.1275 146.024 78.2256C145.577 77.3238 145.353 76.2539 145.353 75.0158C145.353 73.7777 145.577 72.7077 146.024 71.8059C146.471 70.9041 147.084 70.2086 147.864 69.7195C148.643 69.2304 149.534 68.9858 150.535 68.9858C151.536 68.9858 152.426 69.2304 153.206 69.7195C153.985 70.2086 154.599 70.9041 155.046 71.8059C155.493 72.7077 155.716 73.7777 155.716 75.0158ZM154.341 75.0158C154.341 73.9993 154.171 73.1415 153.831 72.4422C153.494 71.7429 153.038 71.2136 152.461 70.8544C151.888 70.4952 151.246 70.3156 150.535 70.3156C149.824 70.3156 149.18 70.4952 148.603 70.8544C148.03 71.2136 147.573 71.7429 147.233 72.4422C146.897 73.1415 146.729 73.9993 146.729 75.0158C146.729 76.0322 146.897 76.8901 147.233 77.5894C147.573 78.2887 148.03 78.8179 148.603 79.1771C149.18 79.5363 149.824 79.7159 150.535 79.7159C151.246 79.7159 151.888 79.5363 152.461 79.1771C153.038 78.8179 153.494 78.2887 153.831 77.5894C154.171 76.8901 154.341 76.0322 154.341 75.0158Z" fill="black"/>
<path d="M170.482 69.1463V80.8852H169.106L162.71 71.6684H162.595V80.8852H161.173V69.1463H162.549L168.969 78.3861H169.083V69.1463H170.482Z" fill="black"/>
<path d="M186.132 80.8852L182.922 69.1463H184.367L186.82 78.7071H186.934L189.434 69.1463H191.038L193.538 78.7071H193.652L196.105 69.1463H197.55L194.34 80.8852H192.873L190.282 71.5308H190.19L187.599 80.8852H186.132Z" fill="black"/>
<path d="M202.388 80.8852V69.1463H209.472V70.4073H203.809V74.3738H209.106V75.6348H203.809V79.6242H209.564V80.8852H202.388Z" fill="black"/>
<path d="M215.101 80.8852V69.1463H219.205C220.023 69.1463 220.698 69.2877 221.229 69.5705C221.76 69.8494 222.155 70.2258 222.415 70.6997C222.675 71.1697 222.805 71.6913 222.805 72.2645C222.805 72.7689 222.715 73.1854 222.536 73.514C222.36 73.8427 222.127 74.1025 221.836 74.2936C221.55 74.4846 221.238 74.626 220.902 74.7177V74.8324C221.261 74.8553 221.622 74.9814 221.985 75.2107C222.348 75.44 222.652 75.7686 222.897 76.1966C223.141 76.6245 223.264 77.1481 223.264 77.7671C223.264 78.3556 223.13 78.8848 222.862 79.3548C222.595 79.8248 222.173 80.1974 221.596 80.4725C221.019 80.7477 220.268 80.8852 219.343 80.8852H215.101ZM216.523 79.6242H219.343C220.272 79.6242 220.931 79.4446 221.321 79.0854C221.714 78.7224 221.911 78.283 221.911 77.7671C221.911 77.3697 221.81 77.0028 221.607 76.6666C221.405 76.3265 221.116 76.0552 220.742 75.8526C220.367 75.6463 219.924 75.5431 219.412 75.5431H216.523V79.6242ZM216.523 74.305H219.16C219.588 74.305 219.973 74.221 220.317 74.0528C220.665 73.8847 220.94 73.6478 221.143 73.3421C221.349 73.0364 221.452 72.6772 221.452 72.2645C221.452 71.7486 221.273 71.3111 220.914 70.9519C220.554 70.5889 219.985 70.4073 219.205 70.4073H216.523V74.305Z" fill="black"/>
<path d="M232.426 81.0457C231.67 81.0457 230.995 80.9158 230.403 80.656C229.814 80.3961 229.346 80.035 228.999 79.5726C228.655 79.1065 228.467 78.5657 228.437 77.9505H229.881C229.912 78.3288 230.042 78.6555 230.271 78.9307C230.5 79.202 230.8 79.4122 231.171 79.5612C231.542 79.7102 231.952 79.7847 232.403 79.7847C232.908 79.7847 233.355 79.6968 233.745 79.5211C234.134 79.3453 234.44 79.1007 234.662 78.7874C234.883 78.474 234.994 78.111 234.994 77.6983C234.994 77.2665 234.887 76.8863 234.673 76.5577C234.459 76.2252 234.146 75.9654 233.733 75.7781C233.32 75.5909 232.816 75.4973 232.22 75.4973H231.28V74.2363H232.22C232.686 74.2363 233.095 74.1522 233.447 73.984C233.802 73.8159 234.079 73.579 234.278 73.2733C234.48 72.9676 234.581 72.6084 234.581 72.1957C234.581 71.7983 234.494 71.4525 234.318 71.1582C234.142 70.864 233.894 70.6347 233.573 70.4704C233.255 70.3061 232.881 70.2239 232.449 70.2239C232.044 70.2239 231.662 70.2984 231.303 70.4475C230.947 70.5927 230.657 70.8048 230.432 71.0837C230.206 71.3588 230.084 71.6913 230.065 72.0811H228.689C228.712 71.4658 228.897 70.927 229.245 70.4647C229.593 69.9985 230.048 69.6355 230.609 69.3756C231.175 69.1158 231.796 68.9858 232.472 68.9858C233.198 68.9858 233.821 69.133 234.341 69.4272C234.86 69.7176 235.26 70.1016 235.539 70.5793C235.818 71.057 235.957 71.5728 235.957 72.1269C235.957 72.788 235.783 73.3516 235.436 73.8178C235.092 74.284 234.623 74.6069 234.031 74.7865V74.8782C234.773 75.0005 235.351 75.3158 235.768 75.824C236.184 76.3284 236.393 76.9532 236.393 77.6983C236.393 78.3365 236.219 78.9097 235.871 79.4179C235.527 79.9223 235.057 80.3197 234.461 80.6101C233.865 80.9005 233.187 81.0457 232.426 81.0457Z" fill="black"/>
<path d="M39.3802 75.0156L0.570312 75.0156" stroke="black"/>
<path d="M289.428 75.0156H249.432" stroke="black"/>
</svg>
