<svg width="108" height="22" viewBox="0 0 108 22" fill="none" xmlns="http://www.w3.org/2000/svg">
<path d="M0.369141 0.564675H4.85897C7.39027 0.564675 9.23793 1.10974 10.402 2.19986C11.5845 3.2715 12.1757 4.74964 12.1757 6.63425C12.1757 8.8145 11.5383 10.4866 10.2634 11.6507C8.9885 12.8147 7.09464 13.3967 4.58182 13.3967H3.50093V20.9352H0.369141V0.564675ZM4.66496 10.6529C6.29091 10.6529 7.42722 10.2926 8.0739 9.57204C8.72059 8.85145 9.04393 7.98305 9.04393 6.96683C9.04393 5.87671 8.72983 4.98983 8.10162 4.3062C7.47341 3.62256 6.42024 3.28074 4.94211 3.28074H3.50093V10.6529H4.66496Z" fill="black"/>
<path d="M14.6222 0.564675H23.5464V3.28074H17.6986V8.90688H22.4101V11.6784H17.6986V18.1914H24.461V20.9352H14.6222V0.564675Z" fill="black"/>
<path d="M27.1715 0.564675H30.3033V18.1637H36.1511V20.9352H27.1715V0.564675Z" fill="black"/>
<path d="M48.2665 0.536915L58.0776 20.9351H54.5024L52.7564 16.9442H43.4164L41.6704 20.9351H38.206L47.9617 0.536915H48.2665ZM46.8808 9.2117L44.6636 14.145H51.5369L49.3474 9.23942L48.1557 6.44021H48.1002L46.8808 9.2117Z" fill="black"/>
<path d="M67.7683 21.2123C65.7543 21.2123 63.9529 20.7504 62.3639 19.8265C60.7749 18.9027 59.5277 17.6371 58.6223 16.0296C57.7355 14.4036 57.292 12.5837 57.292 10.5697C57.292 8.61121 57.7447 6.84669 58.6501 5.27618C59.5554 3.70566 60.8118 2.47696 62.4193 1.59009C64.0268 0.703206 65.8375 0.259766 67.8514 0.259766C68.9416 0.259766 69.9208 0.361388 70.7892 0.564631C71.6761 0.749398 72.3967 0.971118 72.951 1.22979C73.5053 1.46999 73.8841 1.68247 74.0873 1.86723L72.8678 4.47244C71.7223 3.54861 70.0317 3.08669 67.796 3.08669C66.3179 3.08669 65.0337 3.41003 63.9436 4.05672C62.8535 4.7034 62.022 5.58104 61.4493 6.68964C60.8765 7.79824 60.5901 9.03618 60.5901 10.4034C60.5901 11.9555 60.895 13.3412 61.5047 14.5607C62.1329 15.7802 62.9921 16.7317 64.0822 17.4153C65.1908 18.0805 66.438 18.4131 67.8237 18.4131C68.6921 18.4131 69.5236 18.3115 70.3181 18.1082C71.1126 17.8865 71.787 17.5447 72.3413 17.0828V13.1472H68.1563V10.2926H75.4176V18.2745C74.7525 19.1059 73.7455 19.8081 72.3967 20.3808C71.0664 20.9351 69.5236 21.2123 67.7683 21.2123Z" fill="black"/>
<path d="M85.482 21.2123C82.9323 21.2123 81.0846 20.4455 79.939 18.9119C78.7935 17.3784 78.2207 15.1519 78.2207 12.2326V0.564631H81.3248V12.2881C81.3248 14.4498 81.6481 16.0019 82.2948 16.9442C82.9415 17.868 84.0039 18.3299 85.482 18.3299C86.9602 18.3299 88.0133 17.8773 88.6416 16.9719C89.2882 16.0481 89.6116 14.4868 89.6116 12.2881V0.564631H92.7434V12.2326C92.7434 15.1335 92.1336 17.3599 90.9142 18.9119C89.7132 20.4455 87.9025 21.2123 85.482 21.2123Z" fill="black"/>
<path d="M101.089 21.2123C99.98 21.2123 98.8806 21.0183 97.7905 20.6303C96.7004 20.2423 95.9151 19.8081 95.4347 19.3277L96.9036 16.6947C97.2916 17.0458 97.8921 17.4153 98.7051 17.8033C99.5366 18.1729 100.331 18.3576 101.089 18.3576C102.068 18.3576 102.862 18.1267 103.472 17.6648C104.1 17.2029 104.414 16.5654 104.414 15.7524C104.414 15.1242 104.248 14.5792 103.916 14.1173C103.583 13.6553 103.176 13.2766 102.696 12.9809C102.216 12.6668 101.532 12.2881 100.645 11.8446C99.592 11.3273 98.8714 10.9393 98.4834 10.6806C96.6912 9.47961 95.795 7.81672 95.795 5.6919C95.795 3.93662 96.3771 2.59706 97.5411 1.67323C98.7051 0.73092 100.174 0.259766 101.948 0.259766C103.851 0.259766 105.468 0.804827 106.798 1.89495L105.329 4.41701C104.978 4.04748 104.479 3.73338 103.832 3.4747C103.204 3.19755 102.53 3.05898 101.809 3.05898C100.885 3.05898 100.156 3.27146 99.6197 3.69642C99.1024 4.10291 98.8437 4.71264 98.8437 5.52561C98.8437 6.09839 99.01 6.61573 99.3426 7.07765C99.6751 7.52109 100.091 7.9091 100.59 8.24168C101.107 8.57426 101.8 8.98074 102.668 9.46114C103.5 9.92305 104.137 10.2926 104.581 10.5697C105.024 10.8284 105.44 11.1425 105.828 11.512C106.364 11.9924 106.798 12.5652 107.13 13.2304C107.463 13.8955 107.629 14.6254 107.629 15.4199C107.629 16.6578 107.343 17.711 106.77 18.5794C106.216 19.4478 105.44 20.1037 104.442 20.5471C103.463 20.9906 102.345 21.2123 101.089 21.2123Z" fill="black"/>
</svg>
