<svg width="313" height="311" viewBox="0 0 313 311" fill="none" xmlns="http://www.w3.org/2000/svg">
<g clip-path="url(#clip0_216_1308)">
<path d="M304.12 97.9705L304.005 97.7061C296.431 79.8572 285.766 63.7271 272.29 49.7785C242.377 18.7413 202.146 1.65271 159.022 1.65271C72.2435 1.65271 1.65356 72.2053 1.65356 158.921C1.65356 176.638 4.58034 194.007 10.3512 210.551L12.4016 216.451L11.9552 210.22C10.2685 186.917 22.4883 164.738 43.0915 153.732C68.49 140.13 93.4751 149.617 111.763 165.846C111.912 166.028 112.077 166.209 112.226 166.391C115.302 169.118 118.245 172.093 121.023 175.249C121.106 175.349 121.205 175.448 121.288 175.563C121.718 176.059 122.148 176.588 122.577 177.1C122.859 177.431 123.123 177.762 123.404 178.092L125.637 180.885C133.458 190.685 144.189 204.089 153.482 211.625C168.513 223.788 191.464 230.829 214.531 230.829C218.979 230.829 223.427 230.564 227.842 230.036C246.246 227.788 272.24 219.739 291.554 194.222C312.272 166.821 317.217 129.041 304.137 97.9705H304.12ZM137.443 192.338C152.457 203.444 174.284 209.84 196.243 209.84C200.691 209.84 205.139 209.575 209.554 209.047C227.958 206.799 253.952 198.75 273.265 173.233C293.984 145.832 298.928 108.052 285.849 76.9815L285.733 76.7171C282.575 69.2636 278.838 62.124 274.621 55.315C282.013 65.2476 288.213 76.0065 293.091 87.4925L293.207 87.757C306.055 118.298 301.194 155.434 280.839 182.373C261.889 207.444 236.342 215.327 218.252 217.541C191.448 220.814 162.742 213.724 145.148 199.494C142.668 197.494 140.089 195.049 137.476 192.371L137.443 192.338ZM159.022 3.30538C201.7 3.30538 241.501 20.2122 271.099 50.9189C272.157 52.0262 273.183 53.15 274.208 54.2903C273.331 53.3318 272.455 52.3898 271.562 51.4643C270.074 49.9273 268.553 48.4234 267.015 46.9359C273.844 56.3727 279.615 66.5201 284.195 77.3451L284.311 77.6096C297.159 108.151 292.298 145.287 271.942 172.225C252.993 197.296 227.445 205.179 209.356 207.394C182.552 210.666 153.846 203.576 136.252 189.347C134.185 187.678 132.036 185.678 129.87 183.496C129.622 183.199 129.39 182.901 129.159 182.604C144.156 193.462 165.719 199.709 187.397 199.709C191.845 199.709 196.293 199.445 200.708 198.916C219.112 196.668 245.105 188.62 264.419 163.102C285.138 135.701 290.082 97.9209 277.002 66.8507L276.887 66.5862C273.91 59.5789 270.421 52.8856 266.519 46.4401C265.047 45.0519 263.542 43.6967 262.021 42.358C267.197 50.2082 271.661 58.5047 275.365 67.2308L275.481 67.4952C288.329 98.0366 283.484 135.172 263.112 162.111C244.163 187.182 218.616 195.065 200.526 197.28C173.722 200.552 145.016 193.462 127.422 179.232C126.397 178.39 125.339 177.481 124.281 176.506C123.454 175.497 122.611 174.489 121.734 173.498C136.666 183.728 157.55 189.595 178.567 189.595C183.015 189.595 187.463 189.33 191.861 188.801C210.265 186.554 236.259 178.505 255.572 152.988C276.291 125.587 281.235 87.8066 268.156 56.7363L268.04 56.4719C265.775 51.1172 263.195 45.9278 260.368 40.9037C259.177 39.879 257.953 38.8874 256.73 37.9124C260.417 44.0603 263.691 50.4727 266.519 57.1329L266.635 57.3974C279.483 87.9388 274.621 125.074 254.266 152.013C235.316 177.084 209.769 184.967 191.679 187.182C164.875 190.454 136.17 183.364 118.576 169.135C117.617 168.358 116.641 167.498 115.649 166.606L115.351 166.242C113.119 163.466 110.705 160.772 108.125 158.177L106.472 156.112C104.207 153.302 101.759 150.559 99.1633 147.931L97.6089 145.981C95.3601 143.171 92.9129 140.428 90.3002 137.816L88.7294 135.866C75.1041 118.893 54.7324 104.35 32.2111 104.35C25.5473 104.35 18.7016 105.672 11.7733 108.531C32.7237 47.3491 90.8294 3.30538 159.022 3.30538ZM281.533 62.9173C280.69 61.8596 279.83 60.8019 278.97 59.7607C279.83 60.8019 280.69 61.8596 281.533 62.9173ZM277.201 57.6453C276.407 56.7198 275.597 55.7943 274.77 54.8853C275.597 55.7943 276.407 56.7198 277.201 57.6453ZM15.9237 122.595C43.4056 107.87 70.4246 120.215 88.9774 138.858L89.3412 139.304C71.2018 125.421 47.8041 118.513 24.0095 131.272C15.7914 135.668 8.91264 141.799 3.63782 149.055C4.06774 142.312 4.91105 135.684 6.18428 129.206C9.17721 126.727 12.4182 124.479 15.9402 122.612L15.9237 122.595ZM6.69688 126.628C7.85437 121.157 9.30949 115.786 11.0292 110.547C37.4529 98.8299 63.0829 111.291 80.7758 129.388C62.5868 115.357 39.0733 108.3 15.1465 121.124C12.1371 122.728 9.32603 124.579 6.69688 126.628V126.628ZM3.47247 152.195C8.78035 144.196 16.0064 137.42 24.8032 132.726C50.7639 118.811 76.2947 129.057 94.6821 145.948C95.2774 146.675 95.8727 147.418 96.4845 148.146C85.4057 140.081 72.4915 134.676 58.7671 134.676C50.3505 134.676 41.6529 136.709 32.8891 141.403C19.1812 148.724 9.11106 160.871 4.15042 175.018C3.60475 169.697 3.30711 164.325 3.30711 158.921C3.30711 156.673 3.37325 154.426 3.45593 152.195H3.47247ZM42.3143 152.261C22.819 162.689 10.6323 182.835 10.1693 204.667C7.5898 196.288 5.75436 187.711 4.62995 179.001C8.92917 163.763 19.2308 150.559 33.6662 142.841C58.8332 129.355 83.6034 138.577 101.859 154.541C103.115 155.996 104.372 157.417 105.645 158.822C87.8034 145.948 65.249 139.981 42.3143 152.261V152.261ZM290.231 193.198C271.281 218.269 245.734 226.152 227.644 228.366C200.84 231.639 172.134 224.549 154.541 210.319C151.68 208.005 148.687 205.113 145.661 201.94C160.692 213.36 182.833 219.938 205.123 219.938C209.571 219.938 214.019 219.673 218.434 219.144C236.838 216.897 262.831 208.848 282.145 183.331C302.864 155.93 307.808 118.15 294.728 87.0794L294.613 86.8149C291.454 79.3614 287.717 72.2384 283.484 65.4294C291.124 75.5602 297.506 86.567 302.517 98.3341L302.632 98.5985C315.48 129.14 310.619 166.275 290.264 193.214L290.231 193.198Z" fill="#F2F2F2" stroke="#F2F2F2" stroke-width="2" stroke-miterlimit="10"/>
<path d="M291.405 222.863C271 242.447 243.303 254.512 212.762 254.512C200.427 254.512 188.571 252.512 177.442 248.893C172.068 247.587 166.959 245.852 162.312 243.621C151.151 238.282 137.674 227.771 127.836 220.086L125.124 217.971C109.366 205.725 87.82 197.214 68.4404 203.758C82.4129 207.493 93.9547 218.583 97.5429 233.638C102.636 254.958 89.9035 276.36 68.9696 282.227C93.4255 300.307 123.685 311 156.442 311C216.764 311 268.619 274.757 291.405 222.863V222.863Z" fill="white"/>
</g>
<defs>
<clipPath id="clip0_216_1308">
<rect width="313" height="311" fill="white"/>
</clipPath>
</defs>
</svg>