<svg width="376" height="73" viewBox="0 0 376 73" fill="none" xmlns="http://www.w3.org/2000/svg">
<path fill-rule="evenodd" clip-rule="evenodd" d="M1.86678 0.394531C25.9776 6.29269 70.2973 35.5845 91.7663 65.8427C84.7544 61.8413 59.4173 51.8481 39.41 53.2784C45.5168 53.6956 52.1087 55.7278 58.1509 58.2849C61.133 62.8043 63.9026 67.6551 66.4004 72.8582C58.2131 66.1271 35.5889 56.6907 14.733 66.8171C18.7075 52.6215 18.02 32.2116 0.287109 10.6411C5.01936 12.6947 9.94669 15.1374 14.9277 18.0189C19.919 23.9449 22.6433 31.2515 23.9509 37.7129C22.4997 24.3365 16.819 9.01581 1.86678 0.394531Z" fill="#186EF0"/>
<path d="M118.514 12.282H129.26C135.318 12.282 139.74 13.5865 142.526 16.1956C145.356 18.7605 146.771 22.2982 146.771 26.8088C146.771 32.027 145.246 36.029 142.194 38.815C139.143 41.601 134.61 42.9939 128.596 42.9939H126.009V61.0364H118.514V12.282ZM128.795 36.427C132.687 36.427 135.406 35.5647 136.954 33.8401C138.502 32.1154 139.276 30.037 139.276 27.6048C139.276 24.9957 138.524 22.8731 137.02 21.2369C135.517 19.6007 132.996 18.7826 129.459 18.7826H126.009V36.427H128.795Z" fill="#186EF0"/>
<path d="M152.627 12.282H173.986V18.7826H159.99V32.2481H171.266V38.8813H159.99V54.4695H176.175V61.0364H152.627V12.282Z" fill="#186EF0"/>
<path d="M182.662 12.282H190.157V54.4031H204.154V61.0364H182.662V12.282Z" fill="#186EF0"/>
<path d="M233.15 12.2156L256.632 61.0363H248.075L243.896 51.4844H221.542L217.363 61.0363H209.072L232.421 12.2156H233.15ZM229.834 32.9776L224.527 44.7848H240.978L235.737 33.044L232.885 26.3444H232.752L229.834 32.9776Z" fill="#186EF0"/>
<path d="M279.825 61.6996C275.005 61.6996 270.694 60.5941 266.891 58.383C263.088 56.1719 260.103 53.1427 257.936 49.2954C255.813 45.4039 254.752 41.0481 254.752 36.2279C254.752 31.5404 255.835 27.3173 258.002 23.5584C260.169 19.7996 263.176 16.8588 267.023 14.7362C270.871 12.6136 275.204 11.5522 280.024 11.5522C282.634 11.5522 284.977 11.7955 287.056 12.2819C289.178 12.7241 290.903 13.2548 292.23 13.8739C293.556 14.4488 294.463 14.9573 294.949 15.3995L292.031 21.6348C289.289 19.4237 285.243 18.3182 279.892 18.3182C276.354 18.3182 273.281 19.092 270.672 20.6398C268.062 22.1876 266.073 24.2881 264.702 26.9414C263.331 29.5947 262.645 32.5575 262.645 35.8299C262.645 39.5446 263.375 42.8612 264.834 45.7798C266.338 48.6984 268.394 50.9758 271.003 52.612C273.657 54.204 276.641 55 279.958 55C282.037 55 284.026 54.7568 285.928 54.2704C287.83 53.7397 289.444 52.9216 290.77 51.8161V42.3968H280.754V35.5646H298.133V54.6684C296.541 56.6583 294.131 58.3388 290.903 59.7096C287.719 61.0363 284.026 61.6996 279.825 61.6996Z" fill="#186EF0"/>
<path d="M322.221 61.6996C316.119 61.6996 311.696 59.8644 308.955 56.194C306.213 52.5236 304.842 47.1949 304.842 40.2079V12.2819H312.271V40.3405C312.271 45.5145 313.045 49.2291 314.593 51.4844C316.141 53.6955 318.683 54.801 322.221 54.801C325.759 54.801 328.28 53.7176 329.783 51.5507C331.331 49.3396 332.105 45.6029 332.105 40.3405V12.2819H339.6V40.2079C339.6 47.1507 338.141 52.4794 335.222 56.194C332.348 59.8644 328.014 61.6996 322.221 61.6996Z" fill="#186EF0"/>
<path d="M359.574 61.6996C356.92 61.6996 354.289 61.2353 351.68 60.3066C349.071 59.378 347.192 58.3388 346.042 57.189L349.557 50.8874C350.486 51.7276 351.923 52.612 353.869 53.5407C355.859 54.4251 357.761 54.8674 359.574 54.8674C361.917 54.8674 363.819 54.3146 365.278 53.209C366.782 52.1035 367.534 50.5779 367.534 48.6321C367.534 47.1286 367.136 45.824 366.34 44.7185C365.544 43.6129 364.571 42.7064 363.421 41.9989C362.271 41.2471 360.635 40.3405 358.512 39.2792C355.992 38.041 354.267 37.1124 353.338 36.4933C349.049 33.6188 346.904 29.6389 346.904 24.5534C346.904 20.3524 348.297 17.1463 351.083 14.9352C353.869 12.6799 357.385 11.5522 361.63 11.5522C366.185 11.5522 370.054 12.8568 373.238 15.4659L369.722 21.5021C368.882 20.6177 367.688 19.8659 366.141 19.2468C364.637 18.5835 363.023 18.2518 361.298 18.2518C359.087 18.2518 357.34 18.7604 356.058 19.7775C354.82 20.7504 354.201 22.2097 354.201 24.1554C354.201 25.5263 354.599 26.7645 355.395 27.87C356.191 28.9314 357.186 29.86 358.38 30.656C359.618 31.452 361.276 32.4249 363.355 33.5746C365.345 34.6802 366.87 35.5646 367.932 36.2279C368.993 36.847 369.988 37.5988 370.916 38.4832C372.199 39.633 373.238 41.0039 374.034 42.5958C374.83 44.1878 375.228 45.9346 375.228 47.8361C375.228 50.799 374.543 53.3196 373.172 55.398C371.845 57.4764 369.988 59.0463 367.6 60.1076C365.256 61.1689 362.581 61.6996 359.574 61.6996Z" fill="#186EF0"/>
</svg>
