<svg width="202" height="161" viewBox="0 0 202 161" fill="none" xmlns="http://www.w3.org/2000/svg">
<path d="M0.107422 105.354H8.52134C13.265 105.354 16.7275 106.376 18.9089 108.418C21.1249 110.427 22.2329 113.197 22.2329 116.728C22.2329 120.814 21.0383 123.948 18.6492 126.129C16.2601 128.311 12.711 129.401 8.00196 129.401H5.97639V143.528H0.107422V105.354ZM8.15778 124.259C11.2048 124.259 13.3342 123.584 14.5461 122.234C15.758 120.884 16.3639 119.256 16.3639 117.352C16.3639 115.309 15.7753 113.647 14.5981 112.366C13.4208 111.085 11.4472 110.444 8.67716 110.444H5.97639V124.259H8.15778Z" fill="#186EF0"/>
<path d="M26.8176 105.354H43.5416V110.444H32.5827V120.987H41.4122V126.181H32.5827V138.387H45.2556V143.528H26.8176V105.354Z" fill="#186EF0"/>
<path d="M50.3349 105.354H56.2039V138.335H67.1627V143.528H50.3349V105.354Z" fill="#186EF0"/>
<path d="M89.867 105.302L108.253 143.528H101.553L98.2809 136.049H80.7779L77.5058 143.528H71.0136L89.2956 105.302H89.867ZM87.2701 121.559L83.1151 130.804H95.9956L91.8925 121.611L89.6592 116.365H89.5553L87.2701 121.559Z" fill="#186EF0"/>
<path d="M126.413 144.048C122.639 144.048 119.263 143.182 116.285 141.451C113.308 139.72 110.97 137.348 109.274 134.335C107.612 131.288 106.781 127.878 106.781 124.104C106.781 120.433 107.629 117.127 109.326 114.183C111.022 111.24 113.377 108.938 116.389 107.276C119.402 105.614 122.795 104.783 126.569 104.783C128.612 104.783 130.447 104.973 132.074 105.354C133.736 105.7 135.087 106.116 136.126 106.601C137.164 107.051 137.874 107.449 138.255 107.795L135.97 112.677C133.823 110.946 130.655 110.08 126.465 110.08C123.695 110.08 121.289 110.686 119.246 111.898C117.203 113.11 115.645 114.755 114.571 116.832C113.498 118.91 112.961 121.23 112.961 123.792C112.961 126.7 113.533 129.297 114.675 131.583C115.853 133.868 117.463 135.651 119.505 136.932C121.583 138.179 123.92 138.802 126.517 138.802C128.144 138.802 129.703 138.612 131.191 138.231C132.68 137.815 133.944 137.175 134.983 136.309V128.934H127.14V123.584H140.748V138.542C139.502 140.1 137.614 141.416 135.087 142.49C132.594 143.528 129.703 144.048 126.413 144.048Z" fill="#186EF0"/>
<path d="M159.609 144.048C154.83 144.048 151.368 142.611 149.221 139.737C147.074 136.863 146.001 132.691 146.001 127.22V105.354H151.818V127.324C151.818 131.375 152.424 134.283 153.636 136.049C154.848 137.781 156.839 138.646 159.609 138.646C162.379 138.646 164.352 137.798 165.53 136.101C166.742 134.37 167.347 131.444 167.347 127.324V105.354H173.216V127.22C173.216 132.656 172.074 136.828 169.789 139.737C167.538 142.611 164.145 144.048 159.609 144.048Z" fill="#186EF0"/>
<path d="M188.855 144.048C186.778 144.048 184.718 143.684 182.675 142.957C180.632 142.23 179.16 141.416 178.26 140.516L181.013 135.582C181.74 136.24 182.865 136.932 184.389 137.659C185.947 138.352 187.436 138.698 188.855 138.698C190.69 138.698 192.179 138.265 193.322 137.4C194.499 136.534 195.088 135.339 195.088 133.816C195.088 132.639 194.776 131.617 194.153 130.752C193.53 129.886 192.768 129.176 191.868 128.622C190.967 128.034 189.686 127.324 188.024 126.493C186.051 125.523 184.7 124.796 183.973 124.311C180.615 122.061 178.935 118.944 178.935 114.963C178.935 111.673 180.026 109.163 182.207 107.432C184.389 105.666 187.141 104.783 190.465 104.783C194.032 104.783 197.062 105.804 199.555 107.847L196.802 112.573C196.144 111.881 195.209 111.292 193.997 110.807C192.82 110.288 191.556 110.028 190.206 110.028C188.474 110.028 187.107 110.427 186.103 111.223C185.133 111.985 184.648 113.127 184.648 114.651C184.648 115.724 184.96 116.694 185.583 117.559C186.207 118.39 186.986 119.118 187.92 119.741C188.89 120.364 190.188 121.126 191.816 122.026C193.374 122.892 194.569 123.584 195.4 124.104C196.231 124.588 197.01 125.177 197.737 125.869C198.741 126.77 199.555 127.843 200.178 129.09C200.801 130.336 201.113 131.704 201.113 133.193C201.113 135.513 200.576 137.486 199.503 139.114C198.464 140.741 197.01 141.97 195.14 142.801C193.305 143.632 191.21 144.048 188.855 144.048Z" fill="#186EF0"/>
<path d="M36.9648 160.836V152.667H41.8948V153.545H37.954V156.305H41.6395V157.182H37.954V159.959H41.9586V160.836H36.9648Z" fill="#186EF0"/>
<path d="M45.8118 152.667H46.9924L49.7685 159.448H49.8642L52.6403 152.667H53.8209V160.836H52.8955V154.63H52.8158L50.2631 160.836H49.3696L46.8169 154.63H46.7371V160.836H45.8118V152.667Z" fill="#186EF0"/>
<path d="M57.9383 160.836V152.667H60.7942C61.3632 152.667 61.8325 152.766 62.2022 152.963C62.5718 153.157 62.847 153.419 63.0278 153.748C63.2086 154.075 63.299 154.438 63.299 154.837C63.299 155.188 63.2365 155.478 63.1116 155.707C62.9892 155.935 62.827 156.116 62.6249 156.249C62.4255 156.382 62.2088 156.48 61.9748 156.544V156.624C62.2248 156.64 62.476 156.728 62.7287 156.887C62.9813 157.047 63.1927 157.276 63.3628 157.573C63.533 157.871 63.6181 158.235 63.6181 158.666C63.6181 159.076 63.525 159.444 63.3389 159.771C63.1528 160.098 62.8589 160.357 62.4574 160.549C62.0559 160.74 61.5334 160.836 60.8899 160.836H57.9383ZM58.9275 159.959H60.8899C61.5361 159.959 61.9947 159.834 62.266 159.584C62.5399 159.331 62.6768 159.025 62.6768 158.666C62.6768 158.39 62.6063 158.134 62.4654 157.9C62.3245 157.664 62.1237 157.475 61.8631 157.334C61.6025 157.19 61.2941 157.119 60.9378 157.119H58.9275V159.959ZM58.9275 156.257H60.7623C61.0601 156.257 61.3286 156.199 61.568 156.082C61.8099 155.965 62.0014 155.8 62.1423 155.587C62.2859 155.374 62.3577 155.124 62.3577 154.837C62.3577 154.478 62.2327 154.174 61.9828 153.924C61.7328 153.671 61.3366 153.545 60.7942 153.545H58.9275V156.257Z" fill="#186EF0"/>
<path d="M67.7126 160.836H66.6756L69.675 152.667H70.6961L73.6955 160.836H72.6585L70.2174 153.96H70.1536L67.7126 160.836ZM68.0955 157.645H72.2756V158.523H68.0955V157.645Z" fill="#186EF0"/>
<path d="M77.102 160.836V152.667H79.8621C80.5003 152.667 81.0241 152.776 81.4336 152.994C81.8431 153.21 82.1462 153.506 82.343 153.884C82.5398 154.261 82.6382 154.691 82.6382 155.172C82.6382 155.653 82.5398 156.08 82.343 156.453C82.1462 156.825 81.8444 157.117 81.4376 157.33C81.0307 157.54 80.5109 157.645 79.878 157.645H77.6444V156.752H79.8461C80.2822 156.752 80.6332 156.688 80.8991 156.56C81.1677 156.433 81.3618 156.252 81.4815 156.018C81.6038 155.781 81.6649 155.499 81.6649 155.172C81.6649 154.845 81.6038 154.559 81.4815 154.315C81.3591 154.07 81.1637 153.881 80.8951 153.748C80.6266 153.613 80.2716 153.545 79.8302 153.545H78.0911V160.836H77.102ZM80.947 157.167L82.9572 160.836H81.8085L79.8302 157.167H80.947Z" fill="#186EF0"/>
<path d="M86.4205 160.836V152.667H87.4097V156.72H87.5054L91.175 152.667H92.4673L89.0371 156.353L92.4673 160.836H91.2707L88.4308 157.039L87.4097 158.188V160.836H86.4205Z" fill="#186EF0"/>
<path d="M108.067 156.752C108.067 157.613 107.912 158.358 107.6 158.985C107.289 159.613 106.863 160.097 106.32 160.437C105.778 160.778 105.158 160.948 104.461 160.948C103.765 160.948 103.145 160.778 102.603 160.437C102.06 160.097 101.633 159.613 101.322 158.985C101.011 158.358 100.856 157.613 100.856 156.752C100.856 155.89 101.011 155.146 101.322 154.518C101.633 153.891 102.06 153.407 102.603 153.066C103.145 152.726 103.765 152.556 104.461 152.556C105.158 152.556 105.778 152.726 106.32 153.066C106.863 153.407 107.289 153.891 107.6 154.518C107.912 155.146 108.067 155.89 108.067 156.752ZM107.11 156.752C107.11 156.044 106.991 155.447 106.755 154.961C106.521 154.474 106.203 154.106 105.802 153.856C105.403 153.606 104.956 153.481 104.461 153.481C103.967 153.481 103.519 153.606 103.117 153.856C102.718 154.106 102.401 154.474 102.164 154.961C101.93 155.447 101.813 156.044 101.813 156.752C101.813 157.459 101.93 158.056 102.164 158.543C102.401 159.029 102.718 159.397 103.117 159.647C103.519 159.897 103.967 160.022 104.461 160.022C104.956 160.022 105.403 159.897 105.802 159.647C106.203 159.397 106.521 159.029 106.755 158.543C106.991 158.056 107.11 157.459 107.11 156.752Z" fill="#186EF0"/>
<path d="M118.342 152.667V160.836H117.385L112.933 154.422H112.854V160.836H111.864V152.667H112.822L117.289 159.097H117.369V152.667H118.342Z" fill="#186EF0"/>
<path d="M129.232 160.836L126.999 152.667H128.004L129.711 159.32H129.791L131.53 152.667H132.646L134.385 159.32H134.465L136.172 152.667H137.177L134.944 160.836H133.923L132.12 154.327H132.056L130.253 160.836H129.232Z" fill="#186EF0"/>
<path d="M140.544 160.836V152.667H145.474V153.545H141.533V156.305H145.219V157.182H141.533V159.959H145.538V160.836H140.544Z" fill="#186EF0"/>
<path d="M149.391 160.836V152.667H152.247C152.816 152.667 153.285 152.766 153.655 152.963C154.024 153.157 154.3 153.419 154.48 153.748C154.661 154.075 154.752 154.438 154.752 154.837C154.752 155.188 154.689 155.478 154.564 155.707C154.442 155.935 154.28 156.116 154.078 156.249C153.878 156.382 153.661 156.48 153.427 156.544V156.624C153.677 156.64 153.929 156.728 154.181 156.887C154.434 157.047 154.645 157.276 154.815 157.573C154.986 157.871 155.071 158.235 155.071 158.666C155.071 159.076 154.978 159.444 154.792 159.771C154.605 160.098 154.312 160.357 153.91 160.549C153.509 160.74 152.986 160.836 152.343 160.836H149.391ZM150.38 159.959H152.343C152.989 159.959 153.447 159.834 153.719 159.584C153.993 159.331 154.129 159.025 154.129 158.666C154.129 158.39 154.059 158.134 153.918 157.9C153.777 157.664 153.576 157.475 153.316 157.334C153.055 157.19 152.747 157.119 152.39 157.119H150.38V159.959ZM150.38 156.257H152.215C152.513 156.257 152.781 156.199 153.021 156.082C153.263 155.965 153.454 155.8 153.595 155.587C153.739 155.374 153.81 155.124 153.81 154.837C153.81 154.478 153.685 154.174 153.435 153.924C153.185 153.671 152.789 153.545 152.247 153.545H150.38V156.257Z" fill="#186EF0"/>
<path d="M161.447 160.948C160.92 160.948 160.451 160.857 160.039 160.676C159.629 160.496 159.304 160.244 159.062 159.923C158.822 159.598 158.692 159.222 158.671 158.794H159.676C159.697 159.057 159.787 159.284 159.947 159.476C160.107 159.665 160.315 159.811 160.573 159.915C160.831 160.018 161.117 160.07 161.431 160.07C161.782 160.07 162.093 160.009 162.364 159.887C162.635 159.764 162.848 159.594 163.002 159.376C163.157 159.158 163.234 158.906 163.234 158.618C163.234 158.318 163.159 158.053 163.01 157.825C162.861 157.593 162.643 157.412 162.356 157.282C162.069 157.152 161.718 157.087 161.303 157.087H160.649V156.209H161.303C161.628 156.209 161.912 156.151 162.157 156.034C162.404 155.917 162.597 155.752 162.735 155.539C162.876 155.326 162.946 155.076 162.946 154.789C162.946 154.513 162.885 154.272 162.763 154.067C162.641 153.863 162.468 153.703 162.244 153.589C162.024 153.474 161.763 153.417 161.463 153.417C161.181 153.417 160.915 153.469 160.665 153.573C160.418 153.674 160.216 153.821 160.059 154.015C159.902 154.207 159.817 154.438 159.803 154.71H158.846C158.862 154.281 158.991 153.906 159.233 153.585C159.475 153.26 159.791 153.008 160.182 152.827C160.576 152.646 161.008 152.556 161.479 152.556C161.984 152.556 162.417 152.658 162.779 152.863C163.141 153.065 163.418 153.332 163.613 153.665C163.807 153.997 163.904 154.356 163.904 154.741C163.904 155.201 163.783 155.594 163.541 155.918C163.301 156.242 162.976 156.467 162.564 156.592V156.656C163.079 156.741 163.482 156.96 163.772 157.314C164.062 157.665 164.207 158.1 164.207 158.618C164.207 159.062 164.086 159.461 163.844 159.815C163.605 160.166 163.278 160.442 162.863 160.645C162.448 160.847 161.976 160.948 161.447 160.948Z" fill="#186EF0"/>
<path d="M27.1138 156.751L0.107422 156.751" stroke="#186EF0" stroke-width="0.700747"/>
<path d="M201.113 156.751H173.281" stroke="#186EF0" stroke-width="0.700747"/>
<path fill-rule="evenodd" clip-rule="evenodd" d="M46.9328 0.306152C76.2397 7.47543 130.111 43.0799 156.207 79.8591C147.684 74.9953 116.886 62.8484 92.5664 64.5871C99.9897 65.094 108.003 67.5642 115.348 70.6727C118.973 76.166 122.339 82.0623 125.375 88.3867C115.423 80.205 87.9234 68.735 62.5728 81.0436C67.4038 63.7887 66.5682 38.9803 45.0137 12.7611C50.7658 15.2573 56.755 18.2264 62.8095 21.729C68.8737 28.9288 72.1849 37.8052 73.7752 45.6566C72.0093 29.3998 65.1034 10.7832 46.9328 0.306152Z" fill="#186EF0"/>
</svg>
