<svg width="202" height="154" viewBox="0 0 202 154" fill="none" xmlns="http://www.w3.org/2000/svg">
<path d="M0.589844 98.3365H9.00376C13.7474 98.3365 17.2099 99.358 19.3913 101.401C21.6073 103.409 22.7153 106.179 22.7153 109.711C22.7153 113.797 21.5208 116.93 19.1316 119.112C16.7425 121.293 13.1934 122.384 8.48439 122.384H6.45881V136.511H0.589844V98.3365ZM8.6402 117.242C11.6872 117.242 13.8167 116.567 15.0285 115.216C16.2404 113.866 16.8464 112.239 16.8464 110.334C16.8464 108.291 16.2577 106.629 15.0805 105.348C13.9032 104.067 11.9296 103.426 9.15958 103.426H6.45881V117.242H8.6402Z" fill="#186EF0"/>
<path d="M27.3001 98.3365H44.024V103.426H33.0652V113.97H41.8946V119.164H33.0652V131.369H45.738V136.511H27.3001V98.3365Z" fill="#186EF0"/>
<path d="M50.8173 98.3365H56.6863V131.317H67.6452V136.511H50.8173V98.3365Z" fill="#186EF0"/>
<path d="M90.3494 98.2845L108.735 136.511H102.035L98.7633 129.032H81.2603L77.9882 136.511H71.496L89.7781 98.2845H90.3494ZM87.7525 114.541L83.5975 123.786H96.478L92.375 114.593L90.1416 109.347H90.0378L87.7525 114.541Z" fill="#186EF0"/>
<path d="M126.896 137.03C123.121 137.03 119.746 136.164 116.768 134.433C113.79 132.702 111.453 130.33 109.756 127.318C108.094 124.271 107.263 120.86 107.263 117.086C107.263 113.416 108.111 110.109 109.808 107.166C111.505 104.223 113.859 101.92 116.872 100.258C119.884 98.5961 123.277 97.7651 127.051 97.7651C129.094 97.7651 130.929 97.9556 132.557 98.3365C134.219 98.6827 135.569 99.0982 136.608 99.583C137.647 100.033 138.357 100.431 138.737 100.778L136.452 105.66C134.305 103.928 131.137 103.063 126.948 103.063C124.178 103.063 121.771 103.669 119.728 104.881C117.685 106.092 116.127 107.737 115.054 109.815C113.98 111.892 113.444 114.212 113.444 116.774C113.444 119.683 114.015 122.28 115.158 124.565C116.335 126.85 117.945 128.633 119.988 129.915C122.065 131.161 124.403 131.784 126.999 131.784C128.627 131.784 130.185 131.594 131.674 131.213C133.163 130.798 134.427 130.157 135.465 129.291V121.916H127.623V116.567H141.23V131.525C139.984 133.083 138.097 134.399 135.569 135.472C133.076 136.511 130.185 137.03 126.896 137.03Z" fill="#186EF0"/>
<path d="M160.091 137.03C155.313 137.03 151.85 135.593 149.704 132.719C147.557 129.845 146.483 125.673 146.483 120.202V98.3365H152.3V120.306C152.3 124.357 152.906 127.266 154.118 129.032C155.33 130.763 157.321 131.629 160.091 131.629C162.861 131.629 164.835 130.78 166.012 129.084C167.224 127.352 167.83 124.427 167.83 120.306V98.3365H173.699V120.202C173.699 125.638 172.556 129.811 170.271 132.719C168.02 135.593 164.627 137.03 160.091 137.03Z" fill="#186EF0"/>
<path d="M189.338 137.03C187.26 137.03 185.2 136.667 183.157 135.939C181.114 135.212 179.643 134.399 178.742 133.498L181.495 128.564C182.222 129.222 183.348 129.915 184.871 130.642C186.429 131.334 187.918 131.681 189.338 131.681C191.173 131.681 192.662 131.248 193.804 130.382C194.982 129.516 195.57 128.322 195.57 126.798C195.57 125.621 195.259 124.6 194.635 123.734C194.012 122.868 193.25 122.159 192.35 121.605C191.45 121.016 190.169 120.306 188.507 119.475C186.533 118.506 185.183 117.778 184.456 117.294C181.097 115.043 179.418 111.927 179.418 107.945C179.418 104.656 180.508 102.145 182.69 100.414C184.871 98.6481 187.624 97.7651 190.948 97.7651C194.514 97.7651 197.544 98.7866 200.037 100.829L197.284 105.556C196.626 104.863 195.691 104.275 194.48 103.79C193.302 103.271 192.039 103.011 190.688 103.011C188.957 103.011 187.589 103.409 186.585 104.205C185.616 104.967 185.131 106.11 185.131 107.633C185.131 108.707 185.442 109.676 186.066 110.542C186.689 111.373 187.468 112.1 188.403 112.723C189.372 113.346 190.671 114.108 192.298 115.008C193.856 115.874 195.051 116.567 195.882 117.086C196.713 117.571 197.492 118.159 198.219 118.852C199.223 119.752 200.037 120.826 200.66 122.072C201.283 123.319 201.595 124.686 201.595 126.175C201.595 128.495 201.058 130.469 199.985 132.096C198.946 133.723 197.492 134.953 195.622 135.784C193.787 136.615 191.692 137.03 189.338 137.03Z" fill="#186EF0"/>
<path d="M37.4473 153.818V145.65H42.3772V146.527H38.4364V149.287H42.1219V150.165H38.4364V152.941H42.441V153.818H37.4473Z" fill="#186EF0"/>
<path d="M46.2942 145.65H47.4748L50.2509 152.43H50.3466L53.1227 145.65H54.3033V153.818H53.378V147.612H53.2982L50.7455 153.818H49.852L47.2993 147.612H47.2195V153.818H46.2942V145.65Z" fill="#186EF0"/>
<path d="M58.4207 153.818V145.65H61.2766C61.8456 145.65 62.315 145.748 62.6846 145.945C63.0542 146.139 63.3294 146.401 63.5102 146.731C63.691 147.058 63.7814 147.421 63.7814 147.82C63.7814 148.171 63.719 148.46 63.594 148.689C63.4717 148.918 63.3095 149.099 63.1074 149.232C62.9079 149.365 62.6912 149.463 62.4572 149.527V149.606C62.7072 149.622 62.9585 149.71 63.2111 149.87C63.4637 150.029 63.6751 150.258 63.8453 150.556C64.0154 150.854 64.1005 151.218 64.1005 151.649C64.1005 152.058 64.0075 152.426 63.8213 152.753C63.6352 153.081 63.3414 153.34 62.9398 153.531C62.5383 153.723 62.0158 153.818 61.3723 153.818H58.4207ZM59.4099 152.941H61.3723C62.0185 152.941 62.4772 152.816 62.7484 152.566C63.0223 152.313 63.1592 152.008 63.1592 151.649C63.1592 151.372 63.0888 151.117 62.9478 150.883C62.8069 150.646 62.6061 150.457 62.3455 150.316C62.085 150.173 61.7765 150.101 61.4202 150.101H59.4099V152.941ZM59.4099 149.24H61.2447C61.5425 149.24 61.8111 149.181 62.0504 149.064C62.2924 148.947 62.4838 148.782 62.6247 148.569C62.7683 148.357 62.8401 148.107 62.8401 147.82C62.8401 147.461 62.7152 147.156 62.4652 146.906C62.2152 146.654 61.819 146.527 61.2766 146.527H59.4099V149.24Z" fill="#186EF0"/>
<path d="M68.195 153.818H67.158L70.1574 145.65H71.1785L74.1779 153.818H73.1409L70.6999 146.942H70.636L68.195 153.818ZM68.5779 150.628H72.758V151.505H68.5779V150.628Z" fill="#186EF0"/>
<path d="M77.5844 153.818V145.65H80.3445C80.9827 145.65 81.5065 145.759 81.916 145.977C82.3255 146.192 82.6287 146.489 82.8254 146.866C83.0222 147.244 83.1206 147.673 83.1206 148.155C83.1206 148.636 83.0222 149.063 82.8254 149.435C82.6287 149.807 82.3268 150.1 81.92 150.312C81.5132 150.523 80.9933 150.628 80.3605 150.628H78.1268V149.734H80.3285C80.7646 149.734 81.1156 149.67 81.3815 149.543C81.6501 149.415 81.8442 149.234 81.9639 149C82.0862 148.764 82.1474 148.482 82.1474 148.155C82.1474 147.828 82.0862 147.542 81.9639 147.297C81.8416 147.052 81.6461 146.864 81.3776 146.731C81.109 146.595 80.754 146.527 80.3126 146.527H78.5736V153.818H77.5844ZM81.4294 150.149L83.4397 153.818H82.2909L80.3126 150.149H81.4294Z" fill="#186EF0"/>
<path d="M86.9029 153.818V145.65H87.8921V149.702H87.9879L91.6574 145.65H92.9497L89.5195 149.335L92.9497 153.818H91.7531L88.9132 150.021L87.8921 151.17V153.818H86.9029Z" fill="#186EF0"/>
<path d="M108.55 149.734C108.55 150.596 108.394 151.34 108.083 151.968C107.772 152.595 107.345 153.079 106.802 153.42C106.26 153.76 105.64 153.93 104.944 153.93C104.247 153.93 103.628 153.76 103.085 153.42C102.543 153.079 102.116 152.595 101.805 151.968C101.494 151.34 101.338 150.596 101.338 149.734C101.338 148.873 101.494 148.128 101.805 147.5C102.116 146.873 102.543 146.389 103.085 146.049C103.628 145.708 104.247 145.538 104.944 145.538C105.64 145.538 106.26 145.708 106.802 146.049C107.345 146.389 107.772 146.873 108.083 147.5C108.394 148.128 108.55 148.873 108.55 149.734ZM107.592 149.734C107.592 149.027 107.474 148.43 107.237 147.943C107.003 147.457 106.685 147.088 106.284 146.838C105.885 146.588 105.438 146.463 104.944 146.463C104.449 146.463 104.001 146.588 103.6 146.838C103.201 147.088 102.883 147.457 102.646 147.943C102.412 148.43 102.295 149.027 102.295 149.734C102.295 150.441 102.412 151.038 102.646 151.525C102.883 152.012 103.201 152.38 103.6 152.63C104.001 152.88 104.449 153.005 104.944 153.005C105.438 153.005 105.885 152.88 106.284 152.63C106.685 152.38 107.003 152.012 107.237 151.525C107.474 151.038 107.592 150.441 107.592 149.734Z" fill="#186EF0"/>
<path d="M118.824 145.65V153.818H117.867L113.416 147.405H113.336V153.818H112.347V145.65H113.304L117.771 152.079H117.851V145.65H118.824Z" fill="#186EF0"/>
<path d="M129.715 153.818L127.481 145.65H128.486L130.193 152.303H130.273L132.012 145.65H133.129L134.868 152.303H134.948L136.655 145.65H137.66L135.426 153.818H134.405L132.602 147.309H132.539L130.736 153.818H129.715Z" fill="#186EF0"/>
<path d="M141.026 153.818V145.65H145.956V146.527H142.016V149.287H145.701V150.165H142.016V152.941H146.02V153.818H141.026Z" fill="#186EF0"/>
<path d="M149.873 153.818V145.65H152.729C153.298 145.65 153.768 145.748 154.137 145.945C154.507 146.139 154.782 146.401 154.963 146.731C155.144 147.058 155.234 147.421 155.234 147.82C155.234 148.171 155.172 148.46 155.047 148.689C154.924 148.918 154.762 149.099 154.56 149.232C154.361 149.365 154.144 149.463 153.91 149.527V149.606C154.16 149.622 154.411 149.71 154.664 149.87C154.916 150.029 155.128 150.258 155.298 150.556C155.468 150.854 155.553 151.218 155.553 151.649C155.553 152.058 155.46 152.426 155.274 152.753C155.088 153.081 154.794 153.34 154.392 153.531C153.991 153.723 153.468 153.818 152.825 153.818H149.873ZM150.863 152.941H152.825C153.471 152.941 153.93 152.816 154.201 152.566C154.475 152.313 154.612 152.008 154.612 151.649C154.612 151.372 154.541 151.117 154.4 150.883C154.26 150.646 154.059 150.457 153.798 150.316C153.538 150.173 153.229 150.101 152.873 150.101H150.863V152.941ZM150.863 149.24H152.697C152.995 149.24 153.264 149.181 153.503 149.064C153.745 148.947 153.936 148.782 154.077 148.569C154.221 148.357 154.293 148.107 154.293 147.82C154.293 147.461 154.168 147.156 153.918 146.906C153.668 146.654 153.272 146.527 152.729 146.527H150.863V149.24Z" fill="#186EF0"/>
<path d="M161.929 153.93C161.403 153.93 160.933 153.84 160.521 153.659C160.112 153.478 159.786 153.227 159.544 152.905C159.305 152.581 159.174 152.204 159.153 151.776H160.158C160.179 152.04 160.27 152.267 160.429 152.458C160.589 152.647 160.798 152.793 161.056 152.897C161.314 153.001 161.599 153.053 161.913 153.053C162.264 153.053 162.575 152.991 162.847 152.869C163.118 152.747 163.33 152.577 163.485 152.359C163.639 152.141 163.716 151.888 163.716 151.601C163.716 151.3 163.642 151.036 163.493 150.807C163.344 150.576 163.126 150.395 162.839 150.265C162.551 150.134 162.2 150.069 161.786 150.069H161.131V149.192H161.786C162.11 149.192 162.394 149.133 162.639 149.016C162.886 148.899 163.079 148.734 163.217 148.522C163.358 148.309 163.429 148.059 163.429 147.772C163.429 147.495 163.368 147.255 163.245 147.05C163.123 146.845 162.95 146.685 162.727 146.571C162.506 146.457 162.246 146.4 161.945 146.4C161.663 146.4 161.397 146.451 161.147 146.555C160.9 146.656 160.698 146.804 160.541 146.998C160.384 147.189 160.299 147.421 160.286 147.692H159.329C159.345 147.264 159.473 146.889 159.715 146.567C159.957 146.243 160.274 145.99 160.665 145.809C161.058 145.628 161.49 145.538 161.961 145.538C162.466 145.538 162.9 145.64 163.261 145.845C163.623 146.047 163.901 146.315 164.095 146.647C164.289 146.979 164.386 147.338 164.386 147.724C164.386 148.184 164.265 148.576 164.023 148.9C163.784 149.225 163.458 149.45 163.046 149.575V149.638C163.562 149.723 163.965 149.943 164.255 150.297C164.544 150.648 164.689 151.082 164.689 151.601C164.689 152.045 164.568 152.444 164.326 152.797C164.087 153.148 163.76 153.425 163.345 153.627C162.93 153.829 162.458 153.93 161.929 153.93Z" fill="#186EF0"/>
<path d="M27.5962 149.734L0.589844 149.734" stroke="#186EF0" stroke-width="0.700747"/>
<path d="M201.596 149.734H173.764" stroke="#186EF0" stroke-width="0.700747"/>
<path d="M86.0758 0.571289C90.329 6.57577 93.0809 16.6662 92.1637 23.9216C91.2712 23.4122 90.3487 22.8146 89.3199 22.1481C85.7863 19.8588 80.9989 16.7574 71.8674 13.6329C82.3232 10.4117 84.5748 5.99184 86.0758 0.571289Z" fill="#186EF0"/>
<path d="M139.972 50.8124C129.783 36.4523 108.75 22.5509 97.3074 19.7518C104.402 23.8426 107.099 31.1119 107.788 37.4595C107.167 34.3938 105.874 30.9276 103.506 28.1162C101.142 26.7487 98.8039 25.5894 96.5581 24.6148C104.319 35.431 105.3 44.538 103.414 51.275C113.312 46.4692 124.049 50.9476 127.934 54.142C126.749 51.6727 125.435 49.3706 124.019 47.2258C121.151 46.012 118.022 45.0474 115.123 44.8496C124.619 44.1703 136.644 48.9133 139.972 50.8124Z" fill="#186EF0"/>
<path d="M119.906 75.8151C131.099 76.5047 133.743 71.8949 132.599 69.7549C134.225 71.077 135.896 80.3292 126.004 81.4355C119.693 81.8573 114.401 79.7863 108.491 77.4737C97.5645 73.1979 84.5271 68.0961 59.0373 76.3947C61.72 75.1793 64.3143 74.1763 66.824 73.3575C66.8657 73.2262 66.9138 73.0971 66.9615 72.969C67.4075 71.7719 67.8202 70.6641 62.6345 68.7501C62.463 68.4884 62.5002 68.3171 62.5464 68.1038C62.5536 68.0707 62.5611 68.0365 62.5679 68.0008C101.459 65.8383 133.089 54.7358 140.419 52.1625L140.42 52.1622C140.89 51.9972 141.26 51.8673 141.526 51.7771C141.791 51.6873 142.04 51.8389 142.128 52.1038C142.233 52.4197 142.043 52.78 141.727 52.8842C138.477 53.9545 123.792 59.4914 119.298 62.0026C114.289 64.802 112.817 66.154 111.188 71.7737C95.9532 68.992 86.1323 69.3012 77.987 70.7605C90.3478 69.0506 100.341 71.5529 108.583 73.6167C112.786 74.669 116.533 75.6072 119.906 75.8151Z" fill="#186EF0"/>
<path d="M97.3554 62.0707C100.051 51.9952 97.3554 35.4688 92.3848 25.9879C84.8123 26.3088 74.8921 20.7359 70.6339 14.5547C73.0333 20.9684 76.087 35.1602 77.311 46.8303C76.6605 43.7033 75.5615 40.3387 74.0671 36.2052C69.2807 36.2052 60.9967 31.3267 56.4863 26.5401C64.8627 39.9792 64.0339 58.0206 61.9168 65.6606C68.084 62.8071 71.5646 63.9225 75.8161 65.6606C76.9118 62.0082 77.5787 58.956 77.8535 56.1377C77.8368 59.0418 77.5724 61.4101 76.9853 62.9313C87.0812 58.9479 93.1038 60.3326 97.3554 62.0707Z" fill="#186EF0"/>
</svg>
