<svg width="390" height="77" viewBox="0 0 390 77" fill="none" xmlns="http://www.w3.org/2000/svg">
<path d="M28.6817 0.00292969C32.7023 5.67912 35.3038 15.2179 34.4367 22.0766C33.593 21.5951 32.7209 21.0301 31.7484 20.4001C28.408 18.236 23.8824 15.3041 15.2501 12.3504C25.1342 9.30534 27.2627 5.12712 28.6817 0.00292969Z" fill="white"/>
<path d="M79.6314 47.4971C69.9997 33.9222 50.1162 20.7809 39.2992 18.1347C46.0063 22.002 48.5551 28.8738 49.2067 34.8743C48.6198 31.9762 47.3976 28.6996 45.1592 26.0419C42.9245 24.7491 40.7139 23.6532 38.5908 22.7319C45.9277 32.9567 46.8549 41.5658 45.0718 47.9345C54.4285 43.3915 64.5785 47.625 68.2517 50.6447C67.131 48.3105 65.8885 46.1342 64.5506 44.1066C61.8393 42.9592 58.8814 42.0474 56.1412 41.8604C65.1174 41.2183 76.4855 45.7019 79.6314 47.4971Z" fill="white"/>
<path d="M60.6624 71.1329C71.2432 71.7848 73.7427 67.4271 72.6611 65.4041C74.1985 66.6538 75.7776 75.4002 66.4267 76.446C60.4608 76.8447 55.4579 74.887 49.8712 72.7008C39.5422 68.6588 27.2176 63.8359 3.12148 71.6808C5.65745 70.5318 8.10992 69.5837 10.4824 68.8097C10.5218 68.6856 10.5673 68.5635 10.6124 68.4424C11.034 67.3107 11.4242 66.2635 6.52198 64.4542C6.35989 64.2068 6.39503 64.0448 6.43875 63.8432C6.44555 63.8119 6.45257 63.7795 6.45907 63.7458C43.2242 61.7016 73.1241 51.2061 80.0542 48.7735L80.055 48.7732C80.4993 48.6172 80.8492 48.4944 81.1003 48.4091C81.3503 48.3242 81.586 48.4675 81.6694 48.718C81.769 49.0166 81.5891 49.3572 81.2901 49.4557C78.2181 50.4675 64.3356 55.7017 60.0878 58.0756C55.3526 60.7219 53.9604 62 52.4211 67.3124C38.019 64.6828 28.7351 64.9752 21.0351 66.3546C32.7201 64.7383 42.1671 67.1038 49.9586 69.0547C53.9311 70.0494 57.4734 70.9364 60.6624 71.1329Z" fill="white"/>
<path d="M39.3446 58.1399C41.8926 48.6153 39.3446 32.9925 34.6457 24.0299C27.4873 24.3333 18.1094 19.0651 14.0841 13.2219C16.3523 19.2848 19.239 32.7008 20.3961 43.7328C19.7812 40.7768 18.7422 37.5961 17.3295 33.6886C12.8049 33.6886 4.97371 29.0768 0.709961 24.552C8.62832 37.2562 7.84487 54.3113 5.84352 61.5335C11.6735 58.8361 14.9638 59.8905 18.9829 61.5335C20.0187 58.0808 20.6492 55.1956 20.9089 52.5314C20.8931 55.2767 20.6432 57.5155 20.0882 58.9535C29.6321 55.1879 35.3254 56.4969 39.3446 58.1399Z" fill="white"/>
<path d="M106.559 11.4442H118.391C125.062 11.4442 129.931 12.8806 132.999 15.7535C136.115 18.5777 137.673 22.4731 137.673 27.4398C137.673 33.1855 135.993 37.5922 132.634 40.6598C129.274 43.7275 124.283 45.2613 117.661 45.2613H114.812V65.128H106.559V11.4442ZM117.88 38.0304C122.165 38.0304 125.159 37.0809 126.863 35.1819C128.568 33.2829 129.42 30.9943 129.42 28.3162C129.42 25.4433 128.592 23.1061 126.937 21.3045C125.281 19.5028 122.505 18.602 118.61 18.602H114.812V38.0304H117.88Z" fill="white"/>
<path d="M144.121 11.4442H167.639V18.602H152.228V33.429H164.645V40.7329H152.228V57.8971H170.05V65.128H144.121V11.4442Z" fill="white"/>
<path d="M177.193 11.4442H185.446V57.8241H200.857V65.128H177.193V11.4442Z" fill="white"/>
<path d="M232.786 11.371L258.642 65.1279H249.22L244.618 54.6102H220.004L215.403 65.1279H206.273L231.982 11.371H232.786ZM229.134 34.2323L223.291 47.2333H241.404L235.634 34.3053L232.494 26.9284H232.348L229.134 34.2323Z" fill="white"/>
<path d="M284.18 65.8582C278.873 65.8582 274.125 64.6409 269.938 62.2063C265.75 59.7717 262.463 56.4362 260.077 52.1999C257.74 47.915 256.571 43.1187 256.571 37.8112C256.571 32.6498 257.764 27.9996 260.15 23.8607C262.536 19.7218 265.847 16.4838 270.084 14.1465C274.32 11.8093 279.092 10.6406 284.399 10.6406C287.272 10.6406 289.853 10.9084 292.141 11.4441C294.479 11.931 296.378 12.5153 297.838 13.197C299.299 13.83 300.297 14.39 300.833 14.8769L297.619 21.7426C294.6 19.3079 290.145 18.0906 284.253 18.0906C280.358 18.0906 276.974 18.9427 274.101 20.647C271.228 22.3512 269.037 24.6642 267.527 27.5857C266.018 30.5073 265.263 33.7697 265.263 37.373C265.263 41.4632 266.066 45.1151 267.673 48.3288C269.329 51.5426 271.593 54.0502 274.466 55.8519C277.388 57.6048 280.674 58.4813 284.326 58.4813C286.615 58.4813 288.806 58.2135 290.9 57.6779C292.994 57.0935 294.771 56.1927 296.232 54.9754V44.6038H285.203V37.0808H304.339V58.1161C302.586 60.3073 299.932 62.1576 296.378 63.6671C292.872 65.1279 288.806 65.8582 284.18 65.8582Z" fill="white"/>
<path d="M330.862 65.8582C324.143 65.8582 319.274 63.8375 316.255 59.796C313.236 55.7545 311.726 49.887 311.726 42.1936V11.4441H319.907V42.3396C319.907 48.0367 320.759 52.1269 322.463 54.6102C324.167 57.0449 326.967 58.2622 330.862 58.2622C334.758 58.2622 337.533 57.0692 339.189 54.6833C340.893 52.2486 341.745 48.1341 341.745 42.3396V11.4441H349.999V42.1936C349.999 49.8383 348.392 55.7058 345.178 59.796C342.013 63.8375 337.241 65.8582 330.862 65.8582Z" fill="white"/>
<path d="M371.991 65.8582C369.07 65.8582 366.173 65.347 363.3 64.3244C360.427 63.3019 358.358 62.1576 357.091 60.8916L360.963 53.9529C361.985 54.878 363.568 55.8519 365.71 56.8744C367.901 57.8483 369.995 58.3352 371.991 58.3352C374.572 58.3352 376.666 57.7266 378.273 56.5092C379.928 55.2919 380.756 53.612 380.756 51.4695C380.756 49.814 380.318 48.3775 379.441 47.1602C378.565 45.9429 377.494 44.9447 376.228 44.1656C374.962 43.3378 373.16 42.3396 370.823 41.171C368.047 39.8076 366.148 38.7851 365.126 38.1034C360.403 34.9383 358.041 30.556 358.041 24.9563C358.041 20.3305 359.575 16.8003 362.642 14.3656C365.71 11.8823 369.581 10.6406 374.256 10.6406C379.271 10.6406 383.532 12.0771 387.038 14.9499L383.166 21.5965C382.241 20.6226 380.927 19.7949 379.222 19.1132C377.567 18.3828 375.79 18.0176 373.89 18.0176C371.456 18.0176 369.532 18.5776 368.12 19.6975C366.757 20.7687 366.075 22.3756 366.075 24.5181C366.075 26.0275 366.514 27.3909 367.39 28.6083C368.266 29.7769 369.362 30.7994 370.677 31.6759C372.04 32.5524 373.866 33.6236 376.155 34.8896C378.346 36.107 380.026 37.0808 381.194 37.8112C382.363 38.4929 383.459 39.3207 384.481 40.2945C385.893 41.5605 387.038 43.07 387.914 44.823C388.79 46.5759 389.229 48.4993 389.229 50.5931C389.229 53.8555 388.474 56.631 386.965 58.9195C385.504 61.2081 383.459 62.9367 380.829 64.1053C378.248 65.2739 375.303 65.8582 371.991 65.8582Z" fill="white"/>
</svg>
