<svg width="156" height="147" viewBox="0 0 156 147" fill="none" xmlns="http://www.w3.org/2000/svg">
<path d="M54.2058 0.18457C61.8865 11.028 66.8563 29.2503 65.1998 42.3525C63.588 41.4328 61.9221 40.3535 60.0642 39.1499C53.6829 35.0157 45.0375 29.4148 28.547 23.7724C47.4289 17.9553 51.4951 9.97348 54.2058 0.18457Z" fill="white"/>
<path d="M151.537 90.9143C133.137 64.9817 95.1529 39.8773 74.4888 34.8224C87.3016 42.21 92.1706 55.3376 93.4154 66.8005C92.2942 61.2642 89.9595 55.0047 85.6832 49.9276C81.4143 47.458 77.1913 45.3645 73.1356 43.6045C87.1514 63.1373 88.9226 79.5835 85.5164 91.7498C103.391 83.0711 122.781 91.1585 129.798 96.9273C127.657 92.468 125.283 88.3106 122.727 84.4373C117.548 82.2453 111.897 80.5034 106.663 80.1463C123.81 78.9195 145.527 87.4848 151.537 90.9143Z" fill="white"/>
<path d="M115.3 136.066C135.513 137.312 140.287 128.987 138.221 125.122C141.158 127.51 144.175 144.219 126.311 146.216C114.914 146.978 105.357 143.238 94.6849 139.062C74.953 131.34 51.4089 122.127 5.3773 137.113C10.2219 134.918 14.9069 133.107 19.4391 131.628C19.5144 131.391 19.6013 131.158 19.6875 130.927C20.4929 128.765 21.2383 126.764 11.8734 123.308C11.5637 122.835 11.6309 122.526 11.7144 122.141C11.7274 122.081 11.7408 122.019 11.7532 121.955C81.9869 118.049 139.106 97.9996 152.344 93.3526L152.346 93.352C153.195 93.054 153.863 92.8195 154.343 92.6565C154.82 92.4944 155.271 92.7681 155.43 93.2465C155.62 93.8169 155.276 94.4676 154.705 94.6557C148.837 96.5886 122.317 106.588 114.202 111.123C105.156 116.178 102.497 118.62 99.5561 128.768C72.0432 123.745 54.3078 124.303 39.5983 126.938C61.9206 123.851 79.9674 128.369 94.8518 132.096C102.441 133.997 109.207 135.691 115.3 136.066Z" fill="white"/>
<path d="M74.5755 111.246C79.443 93.0504 74.5755 63.2056 65.5991 46.0841C51.9241 46.6637 34.0093 36.5997 26.3195 25.4371C30.6525 37.0194 36.1671 62.6483 38.3776 83.7231C37.2028 78.0762 35.2181 72 32.5194 64.5354C23.8758 64.5354 8.91569 55.7254 0.770508 47.0814C15.8972 71.3508 14.4006 103.932 10.5773 117.729C21.7146 112.576 28.0001 114.59 35.678 117.729C37.6567 111.133 38.861 105.621 39.3573 100.531C39.3271 105.776 38.8496 110.053 37.7893 112.8C56.0214 105.606 66.8976 108.107 74.5755 111.246Z" fill="white"/>
</svg>
