<svg width="227" height="154" viewBox="0 0 227 154" fill="none" xmlns="http://www.w3.org/2000/svg">
<path d="M0.702637 110.443H10.1586C15.4897 110.443 19.3811 111.591 21.8326 113.887C24.3231 116.144 25.5683 119.257 25.5683 123.226C25.5683 127.818 24.2258 131.34 21.5408 133.791C18.8557 136.243 14.8671 137.469 9.57489 137.469H7.29846V153.345H0.702637V110.443ZM9.75 131.69C13.1744 131.69 15.5676 130.931 16.9295 129.414C18.2915 127.896 18.9725 126.067 18.9725 123.927C18.9725 121.631 18.311 119.763 16.9879 118.323C15.6648 116.884 13.4468 116.164 10.3337 116.164H7.29846V131.69H9.75Z" fill="white"/>
<path d="M30.7208 110.443H49.516V116.164H37.1999V128.013H47.1228V133.85H37.1999V147.567H51.4422V153.345H30.7208V110.443Z" fill="white"/>
<path d="M57.1506 110.443H63.7465V147.508H76.0626V153.345H57.1506V110.443Z" fill="white"/>
<path d="M101.579 110.385L122.242 153.345H114.712L111.035 144.94H91.3639L87.6866 153.345H80.3903L100.937 110.385H101.579ZM98.6601 128.655L93.9905 139.045H108.466L103.855 128.713L101.345 122.818H101.228L98.6601 128.655Z" fill="white"/>
<path d="M142.651 153.929C138.409 153.929 134.615 152.956 131.269 151.011C127.922 149.065 125.296 146.399 123.389 143.014C121.521 139.589 120.587 135.757 120.587 131.515C120.587 127.39 121.54 123.674 123.447 120.366C125.354 117.059 128 114.471 131.386 112.603C134.771 110.735 138.585 109.801 142.826 109.801C145.122 109.801 147.184 110.015 149.013 110.443C150.881 110.832 152.399 111.299 153.566 111.844C154.734 112.35 155.531 112.798 155.959 113.187L153.391 118.674C150.978 116.728 147.418 115.755 142.709 115.755C139.596 115.755 136.892 116.436 134.596 117.798C132.3 119.16 130.549 121.008 129.343 123.343C128.136 125.678 127.533 128.285 127.533 131.165C127.533 134.433 128.175 137.352 129.459 139.92C130.782 142.489 132.592 144.493 134.888 145.932C137.223 147.333 139.849 148.034 142.768 148.034C144.597 148.034 146.348 147.82 148.021 147.392C149.694 146.925 151.115 146.205 152.282 145.232V136.943H143.468V130.931H158.761V147.742C157.36 149.493 155.239 150.972 152.399 152.178C149.597 153.345 146.348 153.929 142.651 153.929Z" fill="white"/>
<path d="M179.958 153.929C174.588 153.929 170.696 152.314 168.284 149.084C165.871 145.855 164.665 141.165 164.665 135.017V110.443H171.202V135.134C171.202 139.687 171.883 142.955 173.245 144.94C174.607 146.886 176.845 147.859 179.958 147.859C183.071 147.859 185.289 146.905 186.612 144.998C187.974 143.053 188.655 139.765 188.655 135.134V110.443H195.251V135.017C195.251 141.127 193.966 145.816 191.398 149.084C188.869 152.314 185.055 153.929 179.958 153.929Z" fill="white"/>
<path d="M212.826 153.929C210.492 153.929 208.176 153.52 205.88 152.703C203.585 151.886 201.931 150.972 200.919 149.96L204.013 144.415C204.83 145.154 206.094 145.932 207.807 146.75C209.558 147.528 211.231 147.917 212.826 147.917C214.889 147.917 216.562 147.431 217.846 146.458C219.169 145.485 219.831 144.142 219.831 142.43C219.831 141.107 219.481 139.959 218.78 138.986C218.08 138.013 217.224 137.216 216.212 136.593C215.2 135.932 213.76 135.134 211.893 134.2C209.674 133.11 208.157 132.293 207.34 131.748C203.565 129.219 201.678 125.717 201.678 121.242C201.678 117.545 202.904 114.724 205.355 112.778C207.807 110.794 210.9 109.801 214.636 109.801C218.644 109.801 222.049 110.949 224.851 113.245L221.757 118.557C221.018 117.779 219.967 117.117 218.605 116.572C217.282 115.989 215.862 115.697 214.344 115.697C212.398 115.697 210.861 116.144 209.733 117.039C208.643 117.895 208.098 119.179 208.098 120.892C208.098 122.098 208.449 123.187 209.149 124.16C209.85 125.094 210.725 125.911 211.776 126.612C212.865 127.312 214.325 128.168 216.154 129.18C217.905 130.153 219.247 130.931 220.181 131.515C221.115 132.06 221.991 132.721 222.808 133.5C223.936 134.511 224.851 135.718 225.551 137.118C226.252 138.519 226.602 140.056 226.602 141.73C226.602 144.337 225.999 146.555 224.792 148.384C223.625 150.213 221.991 151.594 219.889 152.528C217.827 153.462 215.473 153.929 212.826 153.929Z" fill="white"/>
<path d="M96.7751 0.570312C101.555 7.31843 104.648 18.6586 103.617 26.8124C102.614 26.24 101.577 25.5684 100.421 24.8193C96.4496 22.2466 91.0694 18.761 80.807 15.2496C92.5576 11.6294 95.0881 6.66219 96.7751 0.570312Z" fill="white"/>
<path d="M157.346 57.0336C145.896 40.8951 122.257 25.2721 109.398 22.1262C117.371 26.7238 120.401 34.8933 121.176 42.027C120.478 38.5816 119.025 34.6862 116.364 31.5266C113.708 29.9897 111.079 28.6869 108.556 27.5916C117.278 39.7473 118.38 49.9822 116.26 57.5535C127.384 52.1526 139.451 57.1855 143.818 60.7756C142.485 58.0005 141.008 55.4133 139.418 53.0028C136.194 51.6387 132.678 50.5546 129.42 50.3324C140.091 49.569 153.606 54.8993 157.346 57.0336Z" fill="white"/>
<path d="M134.795 85.1328C147.374 85.9079 150.346 80.7272 149.06 78.3221C150.887 79.8079 152.765 90.2061 141.648 91.4493C134.555 91.9233 128.608 89.5958 121.966 86.9968C109.687 82.1915 95.0345 76.4578 66.3879 85.7842C69.4028 84.4183 72.3184 83.2911 75.1389 82.3709C75.1858 82.2233 75.2398 82.0782 75.2935 81.9342C75.7947 80.5889 76.2586 79.3439 70.4306 77.1929C70.2379 76.8988 70.2797 76.7062 70.3316 76.4665C70.3397 76.4293 70.3481 76.3908 70.3558 76.3508C114.064 73.9204 149.61 61.4429 157.849 58.551L157.85 58.5506C158.378 58.3652 158.794 58.2192 159.093 58.1178C159.39 58.0169 159.67 58.1872 159.769 58.485C159.888 58.84 159.674 59.2449 159.318 59.362C155.666 60.5648 139.162 66.7875 134.112 69.6097C128.483 72.7558 126.828 74.2753 124.998 80.5909C107.876 77.4647 96.8385 77.8123 87.6845 79.4522C101.576 77.5306 112.807 80.3428 122.07 82.6622C126.793 83.8448 131.004 84.8992 134.795 85.1328Z" fill="white"/>
<path d="M109.452 69.6862C112.481 58.3629 109.452 39.7898 103.865 29.1347C95.3551 29.4954 84.2063 23.2323 79.4208 16.2856C82.1173 23.4935 85.5491 39.443 86.9248 52.5583C86.1937 49.0441 84.9586 45.2627 83.2791 40.6174C77.9 40.6174 68.5899 35.1347 63.521 29.7553C72.9347 44.8587 72.0033 65.1346 69.624 73.7207C76.555 70.5139 80.4666 71.7674 85.2447 73.7207C86.4761 69.6159 87.2256 66.1858 87.5345 63.0185C87.5157 66.2823 87.2185 68.9438 86.5587 70.6535C97.905 66.1767 104.673 67.7329 109.452 69.6862Z" fill="white"/>
</svg>
