<svg width="202" height="161" viewBox="0 0 202 161" fill="none" xmlns="http://www.w3.org/2000/svg">
<path d="M0.106934 105.354H8.52085C13.2645 105.354 16.727 106.376 18.9084 108.418C21.1244 110.427 22.2324 113.197 22.2324 116.728C22.2324 120.814 21.0379 123.948 18.6487 126.129C16.2596 128.311 12.7105 129.401 8.00148 129.401H5.9759V143.528H0.106934V105.354ZM8.15729 124.259C11.2043 124.259 13.3338 123.584 14.5456 122.234C15.7575 120.884 16.3635 119.256 16.3635 117.352C16.3635 115.309 15.7748 113.647 14.5976 112.366C13.4203 111.085 11.4467 110.444 8.67667 110.444H5.9759V124.259H8.15729Z" fill="white"/>
<path d="M26.8171 105.354H43.5411V110.444H32.5822V120.987H41.4117V126.181H32.5822V138.387H45.2551V143.528H26.8171V105.354Z" fill="white"/>
<path d="M50.3344 105.354H56.2034V138.335H67.1622V143.528H50.3344V105.354Z" fill="white"/>
<path d="M89.8665 105.302L108.252 143.528H101.552L98.2804 136.049H80.7774L77.5053 143.528H71.0131L89.2952 105.302H89.8665ZM87.2696 121.559L83.1146 130.804H95.9951L91.8921 121.611L89.6587 116.365H89.5549L87.2696 121.559Z" fill="white"/>
<path d="M126.413 144.048C122.639 144.048 119.263 143.182 116.285 141.451C113.307 139.72 110.97 137.348 109.273 134.335C107.611 131.288 106.78 127.878 106.78 124.104C106.78 120.433 107.629 117.127 109.325 114.183C111.022 111.24 113.376 108.938 116.389 107.276C119.401 105.614 122.794 104.783 126.569 104.783C128.611 104.783 130.447 104.973 132.074 105.354C133.736 105.7 135.086 106.116 136.125 106.601C137.164 107.051 137.874 107.449 138.255 107.795L135.969 112.677C133.822 110.946 130.654 110.08 126.465 110.08C123.695 110.08 121.288 110.686 119.245 111.898C117.202 113.11 115.644 114.755 114.571 116.832C113.498 118.91 112.961 121.23 112.961 123.792C112.961 126.7 113.532 129.297 114.675 131.583C115.852 133.868 117.462 135.651 119.505 136.932C121.582 138.179 123.92 138.802 126.517 138.802C128.144 138.802 129.702 138.612 131.191 138.231C132.68 137.815 133.944 137.175 134.982 136.309V128.934H127.14V123.584H140.748V138.542C139.501 140.1 137.614 141.416 135.086 142.49C132.593 143.528 129.702 144.048 126.413 144.048Z" fill="white"/>
<path d="M159.608 144.048C154.83 144.048 151.367 142.611 149.221 139.737C147.074 136.863 146.001 132.691 146.001 127.22V105.354H151.818V127.324C151.818 131.375 152.424 134.283 153.635 136.049C154.847 137.781 156.838 138.646 159.608 138.646C162.378 138.646 164.352 137.798 165.529 136.101C166.741 134.37 167.347 131.444 167.347 127.324V105.354H173.216V127.22C173.216 132.656 172.073 136.828 169.788 139.737C167.537 142.611 164.144 144.048 159.608 144.048Z" fill="white"/>
<path d="M188.855 144.048C186.777 144.048 184.717 143.684 182.674 142.957C180.631 142.23 179.16 141.416 178.26 140.516L181.012 135.582C181.739 136.24 182.865 136.932 184.388 137.659C185.946 138.352 187.435 138.698 188.855 138.698C190.69 138.698 192.179 138.265 193.322 137.4C194.499 136.534 195.087 135.339 195.087 133.816C195.087 132.639 194.776 131.617 194.153 130.752C193.529 129.886 192.768 129.176 191.867 128.622C190.967 128.034 189.686 127.324 188.024 126.493C186.05 125.523 184.7 124.796 183.973 124.311C180.614 122.061 178.935 118.944 178.935 114.963C178.935 111.673 180.025 109.163 182.207 107.432C184.388 105.666 187.141 104.783 190.465 104.783C194.031 104.783 197.061 105.804 199.554 107.847L196.801 112.573C196.143 111.881 195.209 111.292 193.997 110.807C192.819 110.288 191.556 110.028 190.205 110.028C188.474 110.028 187.106 110.427 186.102 111.223C185.133 111.985 184.648 113.127 184.648 114.651C184.648 115.724 184.96 116.694 185.583 117.559C186.206 118.39 186.985 119.118 187.92 119.741C188.889 120.364 190.188 121.126 191.815 122.026C193.373 122.892 194.568 123.584 195.399 124.104C196.23 124.588 197.009 125.177 197.736 125.869C198.74 126.77 199.554 127.843 200.177 129.09C200.801 130.336 201.112 131.704 201.112 133.193C201.112 135.513 200.575 137.486 199.502 139.114C198.463 140.741 197.009 141.97 195.139 142.801C193.304 143.632 191.209 144.048 188.855 144.048Z" fill="white"/>
<path d="M36.9653 160.836V152.667H41.8953V153.545H37.9545V156.305H41.64V157.182H37.9545V159.959H41.9591V160.836H36.9653Z" fill="white"/>
<path d="M45.8122 152.667H46.9929L49.769 159.448H49.8647L52.6408 152.667H53.8214V160.836H52.896V154.63H52.8163L50.2635 160.836H49.3701L46.8174 154.63H46.7376V160.836H45.8122V152.667Z" fill="white"/>
<path d="M57.9388 160.836V152.667H60.7947C61.3637 152.667 61.833 152.766 62.2026 152.963C62.5723 153.157 62.8475 153.419 63.0283 153.748C63.2091 154.075 63.2995 154.438 63.2995 154.837C63.2995 155.188 63.237 155.478 63.112 155.707C62.9897 155.935 62.8275 156.116 62.6254 156.249C62.426 156.382 62.2093 156.48 61.9753 156.544V156.624C62.2252 156.64 62.4765 156.728 62.7291 156.887C62.9818 157.047 63.1931 157.276 63.3633 157.573C63.5335 157.871 63.6186 158.235 63.6186 158.666C63.6186 159.076 63.5255 159.444 63.3394 159.771C63.1533 160.098 62.8594 160.357 62.4579 160.549C62.0564 160.74 61.5339 160.836 60.8904 160.836H57.9388ZM58.928 159.959H60.8904C61.5365 159.959 61.9952 159.834 62.2665 159.584C62.5403 159.331 62.6773 159.025 62.6773 158.666C62.6773 158.39 62.6068 158.134 62.4659 157.9C62.325 157.664 62.1242 157.475 61.8636 157.334C61.603 157.19 61.2946 157.119 60.9382 157.119H58.928V159.959ZM58.928 156.257H60.7627C61.0606 156.257 61.3291 156.199 61.5684 156.082C61.8104 155.965 62.0019 155.8 62.1428 155.587C62.2864 155.374 62.3582 155.124 62.3582 154.837C62.3582 154.478 62.2332 154.174 61.9833 153.924C61.7333 153.671 61.3371 153.545 60.7947 153.545H58.928V156.257Z" fill="white"/>
<path d="M67.7131 160.836H66.676L69.6755 152.667H70.6966L73.696 160.836H72.659L70.2179 153.96H70.1541L67.7131 160.836ZM68.096 157.645H72.2761V158.523H68.096V157.645Z" fill="white"/>
<path d="M77.1024 160.836V152.667H79.8626C80.5007 152.667 81.0246 152.776 81.4341 152.994C81.8436 153.21 82.1467 153.506 82.3435 153.884C82.5403 154.261 82.6386 154.691 82.6386 155.172C82.6386 155.653 82.5403 156.08 82.3435 156.453C82.1467 156.825 81.8449 157.117 81.4381 157.33C81.0312 157.54 80.5114 157.645 79.8785 157.645H77.6449V156.752H79.8466C80.2827 156.752 80.6337 156.688 80.8996 156.56C81.1682 156.433 81.3623 156.252 81.482 156.018C81.6043 155.781 81.6654 155.499 81.6654 155.172C81.6654 154.845 81.6043 154.559 81.482 154.315C81.3596 154.07 81.1642 153.881 80.8956 153.748C80.6271 153.613 80.2721 153.545 79.8307 153.545H78.0916V160.836H77.1024ZM80.9475 157.167L82.9577 160.836H81.809L79.8307 157.167H80.9475Z" fill="white"/>
<path d="M86.421 160.836V152.667H87.4102V156.72H87.5059L91.1754 152.667H92.4678L89.0376 156.353L92.4678 160.836H91.2712L88.4313 157.039L87.4102 158.188V160.836H86.421Z" fill="white"/>
<path d="M108.068 156.752C108.068 157.613 107.912 158.358 107.601 158.985C107.29 159.613 106.863 160.097 106.321 160.437C105.778 160.778 105.159 160.948 104.462 160.948C103.765 160.948 103.146 160.778 102.603 160.437C102.061 160.097 101.634 159.613 101.323 158.985C101.012 158.358 100.856 157.613 100.856 156.752C100.856 155.89 101.012 155.146 101.323 154.518C101.634 153.891 102.061 153.407 102.603 153.066C103.146 152.726 103.765 152.556 104.462 152.556C105.159 152.556 105.778 152.726 106.321 153.066C106.863 153.407 107.29 153.891 107.601 154.518C107.912 155.146 108.068 155.89 108.068 156.752ZM107.11 156.752C107.11 156.044 106.992 155.447 106.755 154.961C106.521 154.474 106.204 154.106 105.802 153.856C105.403 153.606 104.956 153.481 104.462 153.481C103.967 153.481 103.519 153.606 103.118 153.856C102.719 154.106 102.401 154.474 102.164 154.961C101.93 155.447 101.813 156.044 101.813 156.752C101.813 157.459 101.93 158.056 102.164 158.543C102.401 159.029 102.719 159.397 103.118 159.647C103.519 159.897 103.967 160.022 104.462 160.022C104.956 160.022 105.403 159.897 105.802 159.647C106.204 159.397 106.521 159.029 106.755 158.543C106.992 158.056 107.11 157.459 107.11 156.752Z" fill="white"/>
<path d="M118.342 152.667V160.836H117.385L112.934 154.422H112.854V160.836H111.865V152.667H112.822L117.289 159.097H117.369V152.667H118.342Z" fill="white"/>
<path d="M129.233 160.836L126.999 152.667H128.004L129.711 159.32H129.791L131.53 152.667H132.647L134.386 159.32H134.466L136.173 152.667H137.178L134.944 160.836H133.923L132.12 154.327H132.057L130.254 160.836H129.233Z" fill="white"/>
<path d="M140.545 160.836V152.667H145.474V153.545H141.534V156.305H145.219V157.182H141.534V159.959H145.538V160.836H140.545Z" fill="white"/>
<path d="M149.391 160.836V152.667H152.247C152.816 152.667 153.286 152.766 153.655 152.963C154.025 153.157 154.3 153.419 154.481 153.748C154.662 154.075 154.752 154.438 154.752 154.837C154.752 155.188 154.69 155.478 154.565 155.707C154.442 155.935 154.28 156.116 154.078 156.249C153.879 156.382 153.662 156.48 153.428 156.544V156.624C153.678 156.64 153.929 156.728 154.182 156.887C154.434 157.047 154.646 157.276 154.816 157.573C154.986 157.871 155.071 158.235 155.071 158.666C155.071 159.076 154.978 159.444 154.792 159.771C154.606 160.098 154.312 160.357 153.911 160.549C153.509 160.74 152.987 160.836 152.343 160.836H149.391ZM150.381 159.959H152.343C152.989 159.959 153.448 159.834 153.719 159.584C153.993 159.331 154.13 159.025 154.13 158.666C154.13 158.39 154.059 158.134 153.919 157.9C153.778 157.664 153.577 157.475 153.316 157.334C153.056 157.19 152.747 157.119 152.391 157.119H150.381V159.959ZM150.381 156.257H152.215C152.513 156.257 152.782 156.199 153.021 156.082C153.263 155.965 153.455 155.8 153.595 155.587C153.739 155.374 153.811 155.124 153.811 154.837C153.811 154.478 153.686 154.174 153.436 153.924C153.186 153.671 152.79 153.545 152.247 153.545H150.381V156.257Z" fill="white"/>
<path d="M161.447 160.948C160.921 160.948 160.451 160.857 160.039 160.676C159.63 160.496 159.304 160.244 159.062 159.923C158.823 159.598 158.692 159.222 158.671 158.794H159.676C159.698 159.057 159.788 159.284 159.948 159.476C160.107 159.665 160.316 159.811 160.574 159.915C160.832 160.018 161.117 160.07 161.431 160.07C161.782 160.07 162.093 160.009 162.365 159.887C162.636 159.764 162.849 159.594 163.003 159.376C163.157 159.158 163.234 158.906 163.234 158.618C163.234 158.318 163.16 158.053 163.011 157.825C162.862 157.593 162.644 157.412 162.357 157.282C162.069 157.152 161.718 157.087 161.304 157.087H160.649V156.209H161.304C161.628 156.209 161.913 156.151 162.157 156.034C162.404 155.917 162.597 155.752 162.736 155.539C162.876 155.326 162.947 155.076 162.947 154.789C162.947 154.513 162.886 154.272 162.763 154.067C162.641 153.863 162.468 153.703 162.245 153.589C162.024 153.474 161.764 153.417 161.463 153.417C161.181 153.417 160.915 153.469 160.665 153.573C160.418 153.674 160.216 153.821 160.059 154.015C159.902 154.207 159.817 154.438 159.804 154.71H158.847C158.863 154.281 158.992 153.906 159.234 153.585C159.476 153.26 159.792 153.008 160.183 152.827C160.576 152.646 161.008 152.556 161.479 152.556C161.984 152.556 162.418 152.658 162.779 152.863C163.141 153.065 163.419 153.332 163.613 153.665C163.807 153.997 163.904 154.356 163.904 154.741C163.904 155.201 163.783 155.594 163.541 155.918C163.302 156.242 162.976 156.467 162.564 156.592V156.656C163.08 156.741 163.483 156.96 163.773 157.314C164.062 157.665 164.207 158.1 164.207 158.618C164.207 159.062 164.086 159.461 163.844 159.815C163.605 160.166 163.278 160.442 162.863 160.645C162.448 160.847 161.976 160.948 161.447 160.948Z" fill="white"/>
<path d="M27.1133 156.751L0.106934 156.751" stroke="white" stroke-width="0.700747"/>
<path d="M201.112 156.751H173.28" stroke="white" stroke-width="0.700747"/>
<path fill-rule="evenodd" clip-rule="evenodd" d="M46.9323 0.306152C76.2393 7.47543 130.11 43.0799 156.206 79.8591C147.683 74.9953 116.885 62.8484 92.5659 64.5871C99.9892 65.094 108.002 67.5642 115.347 70.6727C118.972 76.166 122.339 82.0623 125.375 88.3867C115.423 80.205 87.9229 68.735 62.5723 81.0436C67.4034 63.7887 66.5677 38.9803 45.0132 12.7611C50.7653 15.2573 56.7545 18.2264 62.809 21.729C68.8732 28.9288 72.1844 37.8052 73.7747 45.6566C72.0088 29.3998 65.1029 10.7832 46.9323 0.306152Z" fill="white"/>
</svg>
