<svg width="202" height="154" viewBox="0 0 202 154" fill="none" xmlns="http://www.w3.org/2000/svg">
<path d="M0.589355 98.336H9.00328C13.7469 98.336 17.2094 99.3575 19.3908 101.4C21.6068 103.409 22.7148 106.179 22.7148 109.71C22.7148 113.796 21.5203 116.93 19.1311 119.111C16.742 121.293 13.1929 122.383 8.4839 122.383H6.45832V136.51H0.589355V98.336ZM8.63971 117.241C11.6867 117.241 13.8162 116.566 15.0281 115.216C16.2399 113.865 16.8459 112.238 16.8459 110.334C16.8459 108.291 16.2573 106.629 15.08 105.348C13.9027 104.067 11.9291 103.426 9.15909 103.426H6.45832V117.241H8.63971Z" fill="white"/>
<path d="M27.2996 98.336H44.0235V103.426H33.0647V113.969H41.8941V119.163H33.0647V131.368H45.7375V136.51H27.2996V98.336Z" fill="white"/>
<path d="M50.8168 98.336H56.6858V131.317H67.6447V136.51H50.8168V98.336Z" fill="white"/>
<path d="M90.3489 98.284L108.735 136.51H102.035L98.7628 129.031H81.2598L77.9877 136.51H71.4955L89.7776 98.284H90.3489ZM87.752 114.541L83.597 123.785H96.4776L92.3745 114.592L90.1411 109.347H90.0373L87.752 114.541Z" fill="white"/>
<path d="M126.895 137.03C123.121 137.03 119.745 136.164 116.767 134.433C113.789 132.701 111.452 130.33 109.756 127.317C108.094 124.27 107.263 120.86 107.263 117.086C107.263 113.415 108.111 110.109 109.808 107.165C111.504 104.222 113.859 101.92 116.871 100.258C119.884 98.5957 123.277 97.7646 127.051 97.7646C129.094 97.7646 130.929 97.9551 132.556 98.336C134.218 98.6822 135.569 99.0977 136.607 99.5825C137.646 100.033 138.356 100.431 138.737 100.777L136.452 105.659C134.305 103.928 131.137 103.062 126.947 103.062C124.177 103.062 121.771 103.668 119.728 104.88C117.685 106.092 116.127 107.737 115.053 109.814C113.98 111.892 113.443 114.212 113.443 116.774C113.443 119.682 114.015 122.279 115.157 124.565C116.334 126.85 117.945 128.633 119.987 129.914C122.065 131.161 124.402 131.784 126.999 131.784C128.626 131.784 130.185 131.593 131.673 131.213C133.162 130.797 134.426 130.157 135.465 129.291V121.916H127.622V116.566H141.23V131.524C139.983 133.082 138.096 134.398 135.569 135.471C133.076 136.51 130.185 137.03 126.895 137.03Z" fill="white"/>
<path d="M160.091 137.03C155.312 137.03 151.85 135.593 149.703 132.719C147.556 129.845 146.483 125.673 146.483 120.202V98.336H152.3V120.306C152.3 124.357 152.906 127.265 154.118 129.031C155.33 130.762 157.321 131.628 160.091 131.628C162.861 131.628 164.834 130.78 166.012 129.083C167.223 127.352 167.829 124.426 167.829 120.306V98.336H173.698V120.202C173.698 125.638 172.556 129.81 170.27 132.719C168.02 135.593 164.627 137.03 160.091 137.03Z" fill="white"/>
<path d="M189.337 137.03C187.26 137.03 185.2 136.666 183.157 135.939C181.114 135.212 179.642 134.398 178.742 133.498L181.495 128.564C182.222 129.222 183.347 129.914 184.871 130.641C186.429 131.334 187.918 131.68 189.337 131.68C191.172 131.68 192.661 131.247 193.804 130.382C194.981 129.516 195.57 128.321 195.57 126.798C195.57 125.621 195.258 124.599 194.635 123.734C194.012 122.868 193.25 122.158 192.35 121.604C191.449 121.015 190.168 120.306 188.506 119.475C186.533 118.505 185.182 117.778 184.455 117.293C181.096 115.043 179.417 111.926 179.417 107.944C179.417 104.655 180.508 102.145 182.689 100.413C184.871 98.6476 187.623 97.7646 190.947 97.7646C194.514 97.7646 197.543 98.7861 200.036 100.829L197.284 105.555C196.626 104.863 195.691 104.274 194.479 103.789C193.302 103.27 192.038 103.01 190.688 103.01C188.956 103.01 187.589 103.409 186.585 104.205C185.615 104.967 185.13 106.109 185.13 107.633C185.13 108.706 185.442 109.676 186.065 110.541C186.688 111.372 187.468 112.099 188.402 112.723C189.372 113.346 190.67 114.108 192.298 115.008C193.856 115.874 195.05 116.566 195.881 117.086C196.712 117.57 197.492 118.159 198.219 118.851C199.223 119.752 200.036 120.825 200.66 122.072C201.283 123.318 201.595 124.686 201.595 126.175C201.595 128.494 201.058 130.468 199.985 132.096C198.946 133.723 197.492 134.952 195.622 135.783C193.787 136.614 191.692 137.03 189.337 137.03Z" fill="white"/>
<path d="M37.4478 153.818V145.649H42.3777V146.527H38.4369V149.287H42.1224V150.164H38.4369V152.94H42.4415V153.818H37.4478Z" fill="white"/>
<path d="M46.2947 145.649H47.4753L50.2514 152.43H50.3471L53.1232 145.649H54.3038V153.818H53.3785V147.612H53.2987L50.746 153.818H49.8525L47.2998 147.612H47.22V153.818H46.2947V145.649Z" fill="white"/>
<path d="M58.4212 153.818V145.649H61.2771C61.8461 145.649 62.3154 145.748 62.6851 145.944C63.0547 146.139 63.3299 146.4 63.5107 146.73C63.6915 147.057 63.7819 147.42 63.7819 147.819C63.7819 148.17 63.7194 148.46 63.5945 148.689C63.4721 148.917 63.3099 149.098 63.1079 149.231C62.9084 149.364 62.6917 149.462 62.4577 149.526V149.606C62.7077 149.622 62.9589 149.71 63.2116 149.869C63.4642 150.029 63.6756 150.257 63.8458 150.555C64.0159 150.853 64.101 151.217 64.101 151.648C64.101 152.058 64.008 152.426 63.8218 152.753C63.6357 153.08 63.3419 153.339 62.9403 153.531C62.5388 153.722 62.0163 153.818 61.3728 153.818H58.4212ZM59.4104 152.94H61.3728C62.019 152.94 62.4777 152.815 62.7489 152.566C63.0228 152.313 63.1597 152.007 63.1597 151.648C63.1597 151.372 63.0892 151.116 62.9483 150.882C62.8074 150.646 62.6066 150.457 62.346 150.316C62.0854 150.172 61.777 150.101 61.4207 150.101H59.4104V152.94ZM59.4104 149.239H61.2452C61.543 149.239 61.8116 149.181 62.0509 149.064C62.2928 148.947 62.4843 148.782 62.6252 148.569C62.7688 148.356 62.8406 148.106 62.8406 147.819C62.8406 147.46 62.7156 147.156 62.4657 146.906C62.2157 146.653 61.8195 146.527 61.2771 146.527H59.4104V149.239Z" fill="white"/>
<path d="M68.1955 153.818H67.1585L70.1579 145.649H71.179L74.1784 153.818H73.1414L70.7004 146.942H70.6365L68.1955 153.818ZM68.5784 150.627H72.7585V151.505H68.5784V150.627Z" fill="white"/>
<path d="M77.5849 153.818V145.649H80.345C80.9832 145.649 81.507 145.758 81.9165 145.976C82.326 146.192 82.6291 146.488 82.8259 146.866C83.0227 147.243 83.1211 147.673 83.1211 148.154C83.1211 148.635 83.0227 149.062 82.8259 149.434C82.6291 149.807 82.3273 150.099 81.9205 150.312C81.5137 150.522 80.9938 150.627 80.3609 150.627H78.1273V149.734H80.329C80.7651 149.734 81.1161 149.67 81.382 149.542C81.6506 149.415 81.8447 149.234 81.9644 149C82.0867 148.763 82.1478 148.481 82.1478 148.154C82.1478 147.827 82.0867 147.541 81.9644 147.297C81.8421 147.052 81.6466 146.863 81.378 146.73C81.1095 146.595 80.7545 146.527 80.3131 146.527H78.574V153.818H77.5849ZM81.4299 150.148L83.4402 153.818H82.2914L80.3131 150.148H81.4299Z" fill="white"/>
<path d="M86.9034 153.818V145.649H87.8926V149.702H87.9883L91.6579 145.649H92.9502L89.52 149.335L92.9502 153.818H91.7536L88.9137 150.021L87.8926 151.17V153.818H86.9034Z" fill="white"/>
<path d="M108.55 149.734C108.55 150.595 108.394 151.34 108.083 151.967C107.772 152.595 107.345 153.079 106.803 153.419C106.261 153.759 105.641 153.93 104.944 153.93C104.248 153.93 103.628 153.759 103.086 153.419C102.543 153.079 102.116 152.595 101.805 151.967C101.494 151.34 101.339 150.595 101.339 149.734C101.339 148.872 101.494 148.128 101.805 147.5C102.116 146.872 102.543 146.389 103.086 146.048C103.628 145.708 104.248 145.538 104.944 145.538C105.641 145.538 106.261 145.708 106.803 146.048C107.345 146.389 107.772 146.872 108.083 147.5C108.394 148.128 108.55 148.872 108.55 149.734ZM107.593 149.734C107.593 149.026 107.474 148.429 107.238 147.943C107.004 147.456 106.686 147.088 106.284 146.838C105.886 146.588 105.439 146.463 104.944 146.463C104.45 146.463 104.002 146.588 103.6 146.838C103.201 147.088 102.883 147.456 102.647 147.943C102.413 148.429 102.296 149.026 102.296 149.734C102.296 150.441 102.413 151.038 102.647 151.525C102.883 152.011 103.201 152.379 103.6 152.629C104.002 152.879 104.45 153.004 104.944 153.004C105.439 153.004 105.886 152.879 106.284 152.629C106.686 152.379 107.004 152.011 107.238 151.525C107.474 151.038 107.593 150.441 107.593 149.734Z" fill="white"/>
<path d="M118.825 145.649V153.818H117.868L113.416 147.404H113.336V153.818H112.347V145.649H113.305L117.772 152.079H117.852V145.649H118.825Z" fill="white"/>
<path d="M129.715 153.818L127.481 145.649H128.487L130.194 152.302H130.273L132.013 145.649H133.129L134.868 152.302H134.948L136.655 145.649H137.66L135.427 153.818H134.406L132.603 147.309H132.539L130.736 153.818H129.715Z" fill="white"/>
<path d="M141.027 153.818V145.649H145.957V146.527H142.016V149.287H145.702V150.164H142.016V152.94H146.021V153.818H141.027Z" fill="white"/>
<path d="M149.874 153.818V145.649H152.73C153.299 145.649 153.768 145.748 154.138 145.944C154.507 146.139 154.783 146.4 154.963 146.73C155.144 147.057 155.235 147.42 155.235 147.819C155.235 148.17 155.172 148.46 155.047 148.689C154.925 148.917 154.763 149.098 154.561 149.231C154.361 149.364 154.144 149.462 153.91 149.526V149.606C154.16 149.622 154.412 149.71 154.664 149.869C154.917 150.029 155.128 150.257 155.298 150.555C155.469 150.853 155.554 151.217 155.554 151.648C155.554 152.058 155.461 152.426 155.274 152.753C155.088 153.08 154.795 153.339 154.393 153.531C153.991 153.722 153.469 153.818 152.825 153.818H149.874ZM150.863 152.94H152.825C153.472 152.94 153.93 152.815 154.202 152.566C154.475 152.313 154.612 152.007 154.612 151.648C154.612 151.372 154.542 151.116 154.401 150.882C154.26 150.646 154.059 150.457 153.799 150.316C153.538 150.172 153.23 150.101 152.873 150.101H150.863V152.94ZM150.863 149.239H152.698C152.996 149.239 153.264 149.181 153.504 149.064C153.745 148.947 153.937 148.782 154.078 148.569C154.221 148.356 154.293 148.106 154.293 147.819C154.293 147.46 154.168 147.156 153.918 146.906C153.668 146.653 153.272 146.527 152.73 146.527H150.863V149.239Z" fill="white"/>
<path d="M161.93 153.93C161.403 153.93 160.934 153.839 160.522 153.658C160.112 153.478 159.786 153.226 159.544 152.905C159.305 152.58 159.175 152.204 159.154 151.776H160.159C160.18 152.039 160.27 152.266 160.43 152.458C160.589 152.647 160.798 152.793 161.056 152.897C161.314 153 161.6 153.052 161.914 153.052C162.265 153.052 162.576 152.991 162.847 152.869C163.118 152.746 163.331 152.576 163.485 152.358C163.639 152.14 163.717 151.887 163.717 151.6C163.717 151.3 163.642 151.035 163.493 150.807C163.344 150.575 163.126 150.394 162.839 150.264C162.552 150.134 162.201 150.069 161.786 150.069H161.132V149.191H161.786C162.11 149.191 162.395 149.133 162.64 149.016C162.887 148.899 163.08 148.734 163.218 148.521C163.359 148.308 163.429 148.058 163.429 147.771C163.429 147.495 163.368 147.254 163.246 147.049C163.124 146.845 162.951 146.685 162.727 146.571C162.507 146.456 162.246 146.399 161.946 146.399C161.664 146.399 161.398 146.451 161.148 146.555C160.901 146.656 160.698 146.803 160.542 146.997C160.385 147.189 160.3 147.42 160.286 147.691H159.329C159.345 147.263 159.474 146.888 159.716 146.567C159.958 146.242 160.274 145.99 160.665 145.809C161.059 145.628 161.491 145.538 161.962 145.538C162.467 145.538 162.9 145.64 163.262 145.845C163.623 146.047 163.901 146.314 164.095 146.646C164.29 146.979 164.387 147.338 164.387 147.723C164.387 148.183 164.266 148.576 164.024 148.9C163.784 149.224 163.459 149.449 163.046 149.574V149.638C163.562 149.723 163.965 149.942 164.255 150.296C164.545 150.647 164.69 151.082 164.69 151.6C164.69 152.044 164.569 152.443 164.327 152.797C164.087 153.148 163.76 153.424 163.346 153.627C162.931 153.829 162.459 153.93 161.93 153.93Z" fill="white"/>
<path d="M27.5957 149.733L0.589355 149.733" stroke="white" stroke-width="0.700747"/>
<path d="M201.595 149.733H173.763" stroke="white" stroke-width="0.700747"/>
<path d="M86.0744 0.570801C90.3275 6.57528 93.0795 16.6658 92.1622 23.9211C91.2697 23.4117 90.3472 22.8141 89.3184 22.1476C85.7848 19.8584 80.9975 16.7569 71.8659 13.6324C82.3217 10.4112 84.5733 5.99136 86.0744 0.570801Z" fill="white"/>
<path d="M139.971 50.8119C129.782 36.4518 108.749 22.5504 97.306 19.7513C104.401 23.8422 107.097 31.1114 107.786 37.459C107.166 34.3933 105.873 30.9271 103.505 28.1157C101.141 26.7482 98.8024 25.5889 96.5566 24.6143C104.318 35.4305 105.299 44.5375 103.412 51.2745C113.31 46.4687 124.047 50.9471 127.933 54.1415C126.747 51.6722 125.433 49.3701 124.018 47.2253C121.15 46.0115 118.021 45.0469 115.122 44.8491C124.617 44.1698 136.643 48.9128 139.971 50.8119Z" fill="white"/>
<path d="M119.905 75.8146C131.097 76.5043 133.742 71.8945 132.597 69.7544C134.224 71.0765 135.894 80.3288 126.002 81.435C119.691 81.8568 114.399 79.7858 108.489 77.4732C97.563 73.1974 84.5256 68.0956 59.0358 76.3942C61.7185 75.1788 64.3128 74.1758 66.8225 73.357C66.8642 73.2257 66.9123 73.0966 66.96 72.9685C67.406 71.7714 67.8188 70.6636 62.633 68.7496C62.4616 68.4879 62.4987 68.3166 62.545 68.1033C62.5522 68.0702 62.5596 68.036 62.5665 68.0003C101.458 65.8378 133.087 54.7353 140.418 52.162L140.419 52.1617C140.889 51.9967 141.259 51.8668 141.525 51.7766C141.789 51.6868 142.038 51.8384 142.127 52.1033C142.232 52.4192 142.042 52.7795 141.725 52.8837C138.476 53.954 123.79 59.4909 119.297 62.0021C114.288 64.8015 112.815 66.1535 111.187 71.7732C95.9517 68.9915 86.1308 69.3008 77.9856 70.76C90.3464 69.0501 100.34 71.5524 108.582 73.6162C112.784 74.6685 116.531 75.6067 119.905 75.8146Z" fill="white"/>
<path d="M97.3539 62.0702C100.049 51.9947 97.3539 35.4683 92.3833 25.9874C84.8109 26.3083 74.8906 20.7354 70.6325 14.5543C73.0319 20.9679 76.0855 35.1598 77.3096 46.8298C76.659 43.7028 75.56 40.3382 74.0656 36.2047C69.2793 36.2047 60.9952 31.3262 56.4849 26.5397C64.8612 39.9787 64.0324 58.0201 61.9153 65.6601C68.0825 62.8066 71.5631 63.9221 75.8147 65.6601C76.9104 62.0077 77.5773 58.9555 77.8521 56.1372C77.8354 59.0414 77.5709 61.4096 76.9838 62.9309C87.0798 58.9474 93.1023 60.3322 97.3539 62.0702Z" fill="white"/>
</svg>
