<svg width="108" height="22" viewBox="0 0 108 22" fill="none" xmlns="http://www.w3.org/2000/svg">
<path d="M0.369629 0.564675H4.85946C7.39076 0.564675 9.23842 1.10974 10.4025 2.19986C11.585 3.2715 12.1762 4.74964 12.1762 6.63425C12.1762 8.8145 11.5388 10.4866 10.2639 11.6507C8.98899 12.8147 7.09513 13.3967 4.58231 13.3967H3.50142V20.9352H0.369629V0.564675ZM4.66545 10.6529C6.2914 10.6529 7.42771 10.2926 8.07439 9.57204C8.72108 8.85145 9.04442 7.98305 9.04442 6.96683C9.04442 5.87671 8.73031 4.98983 8.10211 4.3062C7.4739 3.62256 6.42073 3.28074 4.9426 3.28074H3.50142V10.6529H4.66545Z" fill="white"/>
<path d="M14.6227 0.564675H23.5469V3.28074H17.6991V8.90688H22.4106V11.6784H17.6991V18.1914H24.4615V20.9352H14.6227V0.564675Z" fill="white"/>
<path d="M27.172 0.564675H30.3038V18.1637H36.1516V20.9352H27.172V0.564675Z" fill="white"/>
<path d="M48.267 0.536915L58.0781 20.9351H54.5029L52.7568 16.9442H43.4169L41.6709 20.9351H38.2065L47.9621 0.536915H48.267ZM46.8813 9.2117L44.6641 14.145H51.5374L49.3479 9.23942L48.1562 6.44021H48.1007L46.8813 9.2117Z" fill="white"/>
<path d="M67.7688 21.2123C65.7548 21.2123 63.9533 20.7504 62.3643 19.8265C60.7754 18.9027 59.5282 17.6371 58.6228 16.0296C57.736 14.4036 57.2925 12.5837 57.2925 10.5697C57.2925 8.61121 57.7452 6.84669 58.6505 5.27618C59.5559 3.70566 60.8123 2.47696 62.4198 1.59009C64.0272 0.703206 65.838 0.259766 67.8519 0.259766C68.942 0.259766 69.9213 0.361388 70.7897 0.564631C71.6766 0.749398 72.3972 0.971118 72.9515 1.22979C73.5058 1.46999 73.8845 1.68247 74.0878 1.86723L72.8683 4.47244C71.7228 3.54861 70.0322 3.08669 67.7965 3.08669C66.3184 3.08669 65.0342 3.41003 63.9441 4.05672C62.854 4.7034 62.0225 5.58104 61.4498 6.68964C60.877 7.79824 60.5906 9.03618 60.5906 10.4034C60.5906 11.9555 60.8955 13.3412 61.5052 14.5607C62.1334 15.7802 62.9926 16.7317 64.0827 17.4153C65.1913 18.0805 66.4384 18.4131 67.8242 18.4131C68.6926 18.4131 69.5241 18.3115 70.3185 18.1082C71.113 17.8865 71.7874 17.5447 72.3417 17.0828V13.1472H68.1568V10.2926H75.4181V18.2745C74.7529 19.1059 73.746 19.8081 72.3972 20.3808C71.0669 20.9351 69.5241 21.2123 67.7688 21.2123Z" fill="white"/>
<path d="M85.4825 21.2123C82.9328 21.2123 81.0851 20.4455 79.9395 18.9119C78.794 17.3784 78.2212 15.1519 78.2212 12.2326V0.564631H81.3253V12.2881C81.3253 14.4498 81.6486 16.0019 82.2953 16.9442C82.942 17.868 84.0044 18.3299 85.4825 18.3299C86.9607 18.3299 88.0138 17.8773 88.642 16.9719C89.2887 16.0481 89.6121 14.4868 89.6121 12.2881V0.564631H92.7438V12.2326C92.7438 15.1335 92.1341 17.3599 90.9147 18.9119C89.7137 20.4455 87.903 21.2123 85.4825 21.2123Z" fill="white"/>
<path d="M101.089 21.2123C99.9805 21.2123 98.8811 21.0183 97.791 20.6303C96.7009 20.2423 95.9156 19.8081 95.4352 19.3277L96.9041 16.6947C97.2921 17.0458 97.8926 17.4153 98.7056 17.8033C99.537 18.1729 100.332 18.3576 101.089 18.3576C102.068 18.3576 102.863 18.1267 103.473 17.6648C104.101 17.2029 104.415 16.5654 104.415 15.7524C104.415 15.1242 104.249 14.5792 103.916 14.1173C103.583 13.6553 103.177 13.2766 102.697 12.9809C102.216 12.6668 101.533 12.2881 100.646 11.8446C99.5925 11.3273 98.8719 10.9393 98.4839 10.6806C96.6916 9.47961 95.7955 7.81672 95.7955 5.6919C95.7955 3.93662 96.3775 2.59706 97.5416 1.67323C98.7056 0.73092 100.174 0.259766 101.948 0.259766C103.851 0.259766 105.468 0.804827 106.798 1.89495L105.329 4.41701C104.978 4.04748 104.48 3.73338 103.833 3.4747C103.205 3.19755 102.53 3.05898 101.81 3.05898C100.886 3.05898 100.156 3.27146 99.6202 3.69642C99.1028 4.10291 98.8442 4.71264 98.8442 5.52561C98.8442 6.09839 99.0105 6.61573 99.343 7.07765C99.6756 7.52109 100.091 7.9091 100.59 8.24168C101.108 8.57426 101.8 8.98074 102.669 9.46114C103.5 9.92305 104.138 10.2926 104.581 10.5697C105.025 10.8284 105.44 11.1425 105.828 11.512C106.364 11.9924 106.798 12.5652 107.131 13.2304C107.464 13.8955 107.63 14.6254 107.63 15.4199C107.63 16.6578 107.343 17.711 106.771 18.5794C106.216 19.4478 105.44 20.1037 104.443 20.5471C103.463 20.9906 102.345 21.2123 101.089 21.2123Z" fill="white"/>
</svg>
