<svg width="290" height="82" viewBox="0 0 290 82" fill="none" xmlns="http://www.w3.org/2000/svg">
<path d="M0.571289 1.15414H12.6626C19.4795 1.15414 24.4554 2.62202 27.5902 5.55777C30.7747 8.44377 32.367 12.4244 32.367 17.4998C32.367 23.3713 30.6503 27.8745 27.217 31.0093C23.7836 34.144 18.6834 35.7114 11.9162 35.7114H9.00536V56.0129H0.571289V1.15414ZM12.1401 28.3223C16.5189 28.3223 19.579 27.352 21.3206 25.4114C23.0621 23.4708 23.9329 21.1322 23.9329 18.3955C23.9329 15.4597 23.087 13.0713 21.3952 11.2302C19.7034 9.38918 16.8672 8.46865 12.8865 8.46865H9.00536V28.3223H12.1401Z" fill="white"/>
<path d="M38.9555 1.15414H62.9889V8.46865H47.2403V23.6201H59.9287V31.0839H47.2403V48.6238H65.4519V56.0129H38.9555V1.15414Z" fill="white"/>
<path d="M72.7513 1.15414H81.1854V48.5491H96.9339V56.0129H72.7513V1.15414Z" fill="white"/>
<path d="M129.561 1.07939L155.983 56.0128H146.355L141.653 45.265H116.5L111.798 56.0128H102.468L128.74 1.07939H129.561ZM125.829 24.441L119.858 37.7265H138.369L132.472 24.5157L129.263 16.9772H129.113L125.829 24.441Z" fill="white"/>
<path d="M182.08 56.7592C176.657 56.7592 171.805 55.5152 167.526 53.0273C163.247 50.5394 159.888 47.1309 157.45 42.8019C155.062 38.4232 153.867 33.522 153.867 28.0983C153.867 22.8239 155.087 18.0719 157.525 13.8425C159.963 9.61298 163.346 6.30403 167.675 3.91563C172.004 1.52721 176.881 0.333008 182.304 0.333008C185.24 0.333008 187.877 0.606681 190.216 1.15403C192.604 1.65161 194.545 2.24871 196.038 2.94533C197.531 3.59219 198.551 4.16442 199.098 4.662L195.814 11.678C192.729 9.19003 188.176 7.94606 182.155 7.94606C178.174 7.94606 174.716 8.81684 171.78 10.5584C168.845 12.2999 166.606 14.6635 165.063 17.649C163.521 20.6345 162.749 23.9683 162.749 27.6504C162.749 31.8302 163.57 35.5621 165.212 38.8461C166.904 42.1302 169.218 44.6927 172.154 46.5338C175.139 48.3251 178.498 49.2208 182.23 49.2208C184.568 49.2208 186.808 48.9471 188.947 48.3998C191.087 47.8027 192.903 46.8821 194.396 45.6382V35.0396H183.125V27.3519H202.681V48.8476C200.889 51.0867 198.177 52.9775 194.545 54.52C190.962 56.0128 186.808 56.7592 182.08 56.7592Z" fill="white"/>
<path d="M229.785 56.7592C222.918 56.7592 217.942 54.6942 214.857 50.5642C211.772 46.4343 210.229 40.4384 210.229 32.5765V1.15403H218.589V32.7258C218.589 38.5476 219.46 42.7273 221.201 45.265C222.943 47.7529 225.804 48.9969 229.785 48.9969C233.765 48.9969 236.601 47.7778 238.293 45.3396C240.035 42.8517 240.906 38.6471 240.906 32.7258V1.15403H249.34V32.5765C249.34 40.3886 247.698 46.3845 244.414 50.5642C241.179 54.6942 236.303 56.7592 229.785 56.7592Z" fill="white"/>
<path d="M271.814 56.7592C268.828 56.7592 265.868 56.2367 262.932 55.1918C259.996 54.1469 257.881 52.9775 256.588 51.6838L260.543 44.5932C261.588 45.5386 263.206 46.5338 265.395 47.5787C267.634 48.5739 269.774 49.0715 271.814 49.0715C274.451 49.0715 276.591 48.4495 278.233 47.2055C279.924 45.9616 280.77 44.2449 280.77 42.0555C280.77 40.3637 280.322 38.8959 279.427 37.6519C278.531 36.4079 277.436 35.3879 276.143 34.5918C274.849 33.7459 273.008 32.7258 270.62 31.5316C267.783 30.1384 265.843 29.0934 264.798 28.3968C259.971 25.1625 257.558 20.6842 257.558 14.962C257.558 10.235 259.125 6.62746 262.26 4.13954C265.395 1.60185 269.351 0.333008 274.128 0.333008C279.253 0.333008 283.607 1.80089 287.189 4.73664L283.233 11.5287C282.288 10.5335 280.944 9.68761 279.203 8.99099C277.511 8.24462 275.695 7.87143 273.754 7.87143C271.266 7.87143 269.301 8.44365 267.858 9.5881C266.465 10.6828 265.768 12.3248 265.768 14.5142C265.768 16.0567 266.216 17.4499 267.112 18.6939C268.007 19.8881 269.127 20.933 270.47 21.8287C271.864 22.7243 273.729 23.819 276.068 25.1128C278.307 26.3567 280.024 27.3519 281.218 28.0983C282.412 28.7949 283.532 29.6408 284.577 30.636C286.02 31.9297 287.189 33.4722 288.085 35.2635C288.98 37.0548 289.428 39.0203 289.428 41.1599C289.428 44.4937 288.657 47.3299 287.114 49.6686C285.622 52.0072 283.532 53.7737 280.845 54.9679C278.208 56.1621 275.197 56.7592 271.814 56.7592Z" fill="white"/>
<path d="M53.5386 80.8852V69.1463H60.6232V70.4073H54.9601V74.3738H60.2564V75.6348H54.9601V79.6242H60.7149V80.8852H53.5386Z" fill="white"/>
<path d="M66.2521 69.1463H67.9488L71.9382 78.8905H72.0757L76.0651 69.1463H77.7618V80.8852H76.432V71.9664H76.3173L72.6489 80.8852H71.365L67.6966 71.9664H67.5819V80.8852H66.2521V69.1463Z" fill="white"/>
<path d="M83.6788 80.8852V69.1463H87.7828C88.6005 69.1463 89.275 69.2877 89.8062 69.5705C90.3373 69.8494 90.7328 70.2258 90.9926 70.6997C91.2525 71.1697 91.3824 71.6913 91.3824 72.2645C91.3824 72.7689 91.2926 73.1854 91.113 73.514C90.9372 73.8427 90.7041 74.1025 90.4137 74.2936C90.1271 74.4846 89.8157 74.626 89.4794 74.7177V74.8324C89.8386 74.8553 90.1997 74.9814 90.5628 75.2107C90.9258 75.44 91.2296 75.7686 91.4741 76.1966C91.7187 76.6245 91.841 77.1481 91.841 77.7671C91.841 78.3556 91.7072 78.8848 91.4397 79.3548C91.1723 79.8248 90.75 80.1974 90.173 80.4725C89.596 80.7477 88.8451 80.8852 87.9204 80.8852H83.6788ZM85.1003 79.6242H87.9204C88.8489 79.6242 89.5081 79.4446 89.8979 79.0854C90.2914 78.7224 90.4882 78.283 90.4882 77.7671C90.4882 77.3697 90.387 77.0028 90.1845 76.6666C89.9819 76.3265 89.6934 76.0552 89.3189 75.8526C88.9445 75.6463 88.5012 75.5431 87.9891 75.5431H85.1003V79.6242ZM85.1003 74.305H87.7369C88.1649 74.305 88.5509 74.221 88.8948 74.0528C89.2425 73.8847 89.5176 73.6478 89.7202 73.3421C89.9265 73.0364 90.0297 72.6772 90.0297 72.2645C90.0297 71.7486 89.8501 71.3111 89.4909 70.9519C89.1317 70.5889 88.5623 70.4073 87.7828 70.4073H85.1003V74.305Z" fill="white"/>
<path d="M97.725 80.8852H96.2347L100.545 69.1463H102.012L106.323 80.8852H104.833L101.325 71.0035H101.233L97.725 80.8852ZM98.2753 76.2997H104.282V77.5607H98.2753V76.2997Z" fill="white"/>
<path d="M111.218 80.8852V69.1463H115.185C116.102 69.1463 116.854 69.303 117.443 69.6163C118.031 69.9259 118.467 70.3519 118.75 70.8946C119.033 71.4372 119.174 72.0543 119.174 72.746C119.174 73.4376 119.033 74.0509 118.75 74.5859C118.467 75.1209 118.033 75.5412 117.449 75.8469C116.864 76.1488 116.117 76.2997 115.207 76.2997H111.998V75.0158H115.162C115.788 75.0158 116.293 74.9241 116.675 74.7407C117.061 74.5572 117.34 74.2974 117.512 73.9611C117.687 73.621 117.775 73.216 117.775 72.746C117.775 72.2759 117.687 71.8652 117.512 71.5136C117.336 71.162 117.055 70.8907 116.669 70.6997C116.283 70.5048 115.773 70.4073 115.139 70.4073H112.64V80.8852H111.218ZM116.744 75.6119L119.633 80.8852H117.982L115.139 75.6119H116.744Z" fill="white"/>
<path d="M124.609 80.8852V69.1463H126.031V74.9699H126.169L131.442 69.1463H133.299L128.37 74.4426L133.299 80.8852H131.579L127.498 75.4285L126.031 77.0793V80.8852H124.609Z" fill="white"/>
<path d="M155.717 75.0158C155.717 76.2539 155.493 77.3238 155.046 78.2256C154.599 79.1275 153.986 79.8229 153.206 80.3121C152.427 80.8012 151.536 81.0457 150.535 81.0457C149.534 81.0457 148.644 80.8012 147.864 80.3121C147.085 79.8229 146.471 79.1275 146.024 78.2256C145.577 77.3238 145.354 76.2539 145.354 75.0158C145.354 73.7777 145.577 72.7077 146.024 71.8059C146.471 70.9041 147.085 70.2086 147.864 69.7195C148.644 69.2304 149.534 68.9858 150.535 68.9858C151.536 68.9858 152.427 69.2304 153.206 69.7195C153.986 70.2086 154.599 70.9041 155.046 71.8059C155.493 72.7077 155.717 73.7777 155.717 75.0158ZM154.341 75.0158C154.341 73.9993 154.171 73.1415 153.831 72.4422C153.495 71.7429 153.038 71.2136 152.461 70.8544C151.888 70.4952 151.246 70.3156 150.535 70.3156C149.825 70.3156 149.181 70.4952 148.604 70.8544C148.03 71.2136 147.574 71.7429 147.234 72.4422C146.897 73.1415 146.729 73.9993 146.729 75.0158C146.729 76.0322 146.897 76.8901 147.234 77.5894C147.574 78.2887 148.03 78.8179 148.604 79.1771C149.181 79.5363 149.825 79.7159 150.535 79.7159C151.246 79.7159 151.888 79.5363 152.461 79.1771C153.038 78.8179 153.495 78.2887 153.831 77.5894C154.171 76.8901 154.341 76.0322 154.341 75.0158Z" fill="white"/>
<path d="M170.482 69.1463V80.8852H169.107L162.71 71.6684H162.595V80.8852H161.174V69.1463H162.55L168.969 78.3861H169.084V69.1463H170.482Z" fill="white"/>
<path d="M186.132 80.8852L182.923 69.1463H184.367L186.82 78.7071H186.935L189.434 69.1463H191.039L193.538 78.7071H193.653L196.106 69.1463H197.55L194.341 80.8852H192.873L190.282 71.5308H190.191L187.6 80.8852H186.132Z" fill="white"/>
<path d="M202.388 80.8852V69.1463H209.473V70.4073H203.81V74.3738H209.106V75.6348H203.81V79.6242H209.565V80.8852H202.388Z" fill="white"/>
<path d="M215.102 80.8852V69.1463H219.206C220.024 69.1463 220.698 69.2877 221.229 69.5705C221.76 69.8494 222.156 70.2258 222.416 70.6997C222.676 71.1697 222.806 71.6913 222.806 72.2645C222.806 72.7689 222.716 73.1854 222.536 73.514C222.36 73.8427 222.127 74.1025 221.837 74.2936C221.55 74.4846 221.239 74.626 220.903 74.7177V74.8324C221.262 74.8553 221.623 74.9814 221.986 75.2107C222.349 75.44 222.653 75.7686 222.897 76.1966C223.142 76.6245 223.264 77.1481 223.264 77.7671C223.264 78.3556 223.13 78.8848 222.863 79.3548C222.595 79.8248 222.173 80.1974 221.596 80.4725C221.019 80.7477 220.268 80.8852 219.343 80.8852H215.102ZM216.523 79.6242H219.343C220.272 79.6242 220.931 79.4446 221.321 79.0854C221.715 78.7224 221.911 78.283 221.911 77.7671C221.911 77.3697 221.81 77.0028 221.608 76.6666C221.405 76.3265 221.117 76.0552 220.742 75.8526C220.368 75.6463 219.924 75.5431 219.412 75.5431H216.523V79.6242ZM216.523 74.305H219.16C219.588 74.305 219.974 74.221 220.318 74.0528C220.666 73.8847 220.941 73.6478 221.143 73.3421C221.35 73.0364 221.453 72.6772 221.453 72.2645C221.453 71.7486 221.273 71.3111 220.914 70.9519C220.555 70.5889 219.985 70.4073 219.206 70.4073H216.523V74.305Z" fill="white"/>
<path d="M232.427 81.0457C231.67 81.0457 230.996 80.9158 230.403 80.656C229.815 80.3961 229.347 80.035 228.999 79.5726C228.655 79.1065 228.468 78.5657 228.437 77.9505H229.882C229.912 78.3288 230.042 78.6555 230.272 78.9307C230.501 79.202 230.801 79.4122 231.171 79.5612C231.542 79.7102 231.953 79.7847 232.404 79.7847C232.908 79.7847 233.355 79.6968 233.745 79.5211C234.135 79.3453 234.441 79.1007 234.662 78.7874C234.884 78.474 234.995 78.111 234.995 77.6983C234.995 77.2665 234.888 76.8863 234.674 76.5577C234.46 76.2252 234.146 75.9654 233.734 75.7781C233.321 75.5909 232.817 75.4973 232.22 75.4973H231.28V74.2363H232.22C232.687 74.2363 233.095 74.1522 233.447 73.984C233.802 73.8159 234.079 73.579 234.278 73.2733C234.481 72.9676 234.582 72.6084 234.582 72.1957C234.582 71.7983 234.494 71.4525 234.318 71.1582C234.143 70.864 233.894 70.6347 233.573 70.4704C233.256 70.3061 232.881 70.2239 232.45 70.2239C232.045 70.2239 231.663 70.2984 231.303 70.4475C230.948 70.5927 230.658 70.8048 230.432 71.0837C230.207 71.3588 230.084 71.6913 230.065 72.0811H228.69C228.712 71.4658 228.898 70.927 229.246 70.4647C229.593 69.9985 230.048 69.6355 230.61 69.3756C231.175 69.1158 231.796 68.9858 232.473 68.9858C233.199 68.9858 233.822 69.133 234.341 69.4272C234.861 69.7176 235.26 70.1016 235.539 70.5793C235.818 71.057 235.958 71.5728 235.958 72.1269C235.958 72.788 235.784 73.3516 235.436 73.8178C235.092 74.284 234.624 74.6069 234.032 74.7865V74.8782C234.773 75.0005 235.352 75.3158 235.768 75.824C236.185 76.3284 236.393 76.9532 236.393 77.6983C236.393 78.3365 236.219 78.9097 235.872 79.4179C235.528 79.9223 235.058 80.3197 234.462 80.6101C233.865 80.9005 233.187 81.0457 232.427 81.0457Z" fill="white"/>
<path d="M39.3806 75.0156L0.570801 75.0156" stroke="white"/>
<path d="M289.428 75.0156H249.432" stroke="white"/>
</svg>
